<?xml version="1.0" encoding="utf-8"?>
<!-- Generator: Adobe Illustrator 19.0.0, SVG Export Plug-In . SVG Version: 6.00 Build 0)  -->
<svg version="1.1" id="jack-emoji-keep-it-real" xmlns="http://www.w3.org/2000/svg" xmlns:xlink="http://www.w3.org/1999/xlink" x="0px" y="0px"
	 viewBox="0 0 500 500">
    <path d="M358.81 165.36c-6.97-5.69-14.47-10.72-22.47-14.84-6.65-3.43-13.74-6.51-21.12-8.88a6.105 6.105 0 01-3.95-7.65c1.04-3.18 4.46-4.94 7.65-3.92 3.58 1.15 6.54 2.37 10.62 3.79 10.19 3.36 19.18-3.84 19.52-15.17.91-14.81 2.55-41.12 2.91-45.7.64-5.33-.15-10.44-5.9-11.53-3.89-.69-6.52 2.07-9.01 4.76a24864.74 24864.74 0 00-60.33 65.2l-3.07-.37c-15.05-1.73-36.97-.28-38.91 6.92-2.8 10.3-4.56 26.82-5.41 36.71 6.7-.88 13.53-1.35 20.47-1.35 30.87 0 59.63 9.03 83.81 24.61 6.97 3.73 15.81 5.77 26.44-6.25 4.07-4.65 6.01-9.68 5.61-14.6-.34-4.5-2.88-8.69-6.88-11.73z" fill="#f6be00"/>
    <path d="M351.96 73c-.37 4.58-2 30.91-2.92 45.73-.34 11.34-9.33 18.54-19.53 15.18-1.85-.65-9.07-3.22-10.62-3.79 4.07 1.46 12.77.04 14.17-9.48l3.81-40.86c.4-4.82-5.51-7.43-8.8-3.88 3.03-3.27 6.02-6.5 8.96-9.67 2.49-2.69 5.11-5.45 9.01-4.76 5.76 1.08 6.55 6.21 5.91 11.54zM360.02 191.5c-10.64 12.02-19.48 9.98-26.46 6.25-4.33-2.79-8.82-5.37-13.43-7.72l4.12-.64c5.24-.8 9.93-3.7 12.98-8.04l5.67-8.07c3.66-5.2 4.54-11.86 2.36-17.84 4.7 2.94 9.2 6.2 13.51 9.71 4 3.03 6.54 7.23 6.88 11.73.39 4.92-1.55 9.96-5.62 14.61z" fill="#dbac27"/>
    <path d="M421.01 328.42v-.45c0-1.01-.02-2.02-.04-3.03-.01-.63-.03-1.26-.05-1.89-.01-.4-.03-.79-.05-1.19-1.12-29.85-9.83-57.76-24.26-81.81l14.53-17.28c6.73-7.97 10.1-18.35 9.24-28.49a37.638 37.638 0 00-7.79-19.96c-2.08-2.7-4.86-5.69-8.74-9.4-2.07-2.04-6.23-6.14-13.32-12l7.16-124.71c.3-5.14-.73-10.19-2.99-14.63-2.97-5.82-8.01-9.98-15-12.38l-.38-.13-.39-.11c-2.22-.64-4.52-.96-6.82-.96-4.8 0-11.99 1.41-18.98 8.16-5.53 5.34-68.79 73.79-87.45 93.99-1.86-.08-3.67-.12-5.43-.12-16.41 0-29.51 3.42-38.93 10.16-9.1 6.51-12.26 14.22-13.35 18.29-2.64 9.73-4.39 22.9-5.46 33.09C141.16 181.35 94 232.69 82.04 296.49l-.12.62c-.15.81-.29 1.62-.43 2.43-1.64 9.55-2.5 19.28-2.5 29.1 0 45.76 17.78 88.79 50.07 121.15 32.3 32.37 75.25 50.2 120.94 50.2h.04c.32 0 .63-.01.94-.01 1.12 0 2.24-.01 3.36-.04.61-.02 1.22-.05 1.83-.07.84-.03 1.67-.05 2.51-.1.54-.03 1.07-.07 1.6-.1.92-.05 1.84-.11 2.75-.18.39-.03.78-.07 1.17-.1 1.07-.09 2.14-.18 3.21-.29.21-.02.42-.05.63-.07 1.26-.13 2.51-.27 3.76-.43h.02c37.42-4.75 72.01-21.66 99.11-48.82C403.22 417.42 421 374.39 421 328.63v-.14-.09zM250 484.21c-85.73 0-155.22-69.64-155.22-155.56 0-46.48 20.34-88.19 52.58-116.69 5.89-4.97 13.19 3.46 7.43 8.58-17.34 15.41-31.28 35.36-39.82 58.88-26.69 73.47 9.36 153.99 80.53 179.84 71.16 25.85 150.49-12.75 177.18-86.23 26.68-73.47-9.37-153.99-80.54-179.84-33.76-12.26-69.36-10.02-100.31 3.58-7.14 3.06-11.68-7.12-4.69-10.39 9.54-4.24 19.59-7.55 30.03-9.8.73-9.5 2.64-29.49 6.05-42.01.9-3.46 7.62-20.1 48.92-16.15 13.63-14.78 86.56-93.69 91.96-98.91 4.22-4.07 8.05-4.07 10.48-3.37 3.26 1.12 5.03 2.6 6.06 4.62 1.02 2.01 1.42 4.28 1.29 6.54l-7.63 132.85c10.26 7.96 15.73 13.31 18.54 16.08 2.91 2.79 5.5 5.46 7.26 7.74 2.93 3.77 4.23 7.82 4.55 11.64.52 6.16-1.6 12.25-5.58 16.97l-22.21 26.41c17.86 25.34 28.36 56.26 28.36 89.65 0 85.91-69.49 155.56-155.22 155.56z" fill="#fff"/>
    <path d="M195.38 459.19c71.2 25.86 150.57-12.76 177.27-86.28 26.7-73.51-9.38-154.07-80.58-179.93-9.25-3.36-18.64-5.62-28.03-6.87 3.14.68 6.28 1.49 9.41 2.43 68.29 20.61 105.72 96.73 83.6 170.01-22.12 73.28-95.41 115.97-163.71 95.35-21.92-6.62-40.65-18.95-55.25-35.07 14.76 17.81 34.17 31.97 57.28 40.36z" fill="#edece6"/>
    <path d="M236.9 353.67c-1.17-.28-2.88-.67-4.99-1.13 18.94-1.65 22.46-28.13 5.02-34.86 1.87.06 3.4.22 4.46.48 23.78 6.65 19.51 40.47-4.49 35.51z" fill="#edece6"/>
    <path d="M232.46 316.52c-9.94-1.24-60.82 11.33-62.06 21.24-1.21 9.94 47.64 13.49 57.58 14.73 23.95 2.1 28.22-32.16 4.49-35.97z"/>
    <path d="M376.79 238.89c7.1 10.08 12.85 20.66 17.34 31.92 9.52 23.89 12.82 48.63 10.13 74.18-3.42 32.53-15.97 61.15-37.46 85.72-20.01 22.88-44.69 38.65-74.01 47.06-19.61 5.62-39.56 7.45-59.77 5.04-38.37-4.56-70.83-21.02-97.05-49.48-16.18-17.56-27.59-37.84-34.37-60.77-5.88-19.9-7.58-40.11-5.44-60.71 1.54-14.8 5.17-29.06 10.91-42.79 1.39-3.33.85-5.04-1.92-7.51-.85-.75-1.58-2.15-1.58-3.25-.03-3.94.33-7.88.44-11.82.05-1.84.9-2.91 2.57-3.44 5.46-1.73 10.94-3.41 16.38-5.21 1.01-.33 2.14-.93 2.75-1.76 6.31-8.57 13.52-16.32 21.39-23.46 2.71-2.46 5.41-2.67 7.7-.63 2.75 2.46 2.86 5.4.21 8.14-4.17 4.31-8.4 8.56-12.58 12.86-.56.57-1.01 1.23-1.81 2.22 1.33 0 2.26.07 3.17-.01 13.94-1.19 27.78-.4 41.42 2.68 6.79 1.53 13.43 3.7 20.16 5.51 11.6 3.12 23.25 2.97 34.87.18 8.7-2.09 17.26-4.77 26.02-6.56 15.62-3.2 31.46-3.63 47.36-2.66 14.06.85 27.91 2.78 41.36 7.14.13.04.31-.05.86-.14-1.87-2.51-3.54-4.97-5.42-7.24-18.51-22.29-41.68-37.33-69.74-44.77-20.81-5.52-41.77-6.01-62.69-1.2-8.59 1.98-16.9 5.25-25.26 8.15-3.79 1.31-6.67.64-8.12-2.54-1.39-3.06 0-6.21 3.81-7.55 8.97-3.14 18-6.11 27.05-9.01 1.73-.55 2.35-1.4 2.47-3.09.96-13.03 2.45-25.99 5.51-38.72 1.39-5.8 5.54-9.39 10.52-12.07 7.74-4.15 16.25-5.06 24.83-5.29 3.6-.1 7.22.28 10.83.49 1.7.1 2.94-.2 4.26-1.64 10.95-11.92 22.06-23.68 33.09-35.52 17.97-19.3 35.91-38.63 53.88-57.93 1.56-1.68 3.13-3.41 4.93-4.8 3.26-2.52 6.83-3.36 10.8-1.44 4.26 2.06 5.39 5.72 5.32 9.99-.06 3.28-.26 6.57-.46 9.85-.96 15.91-1.99 31.82-2.91 47.74-.88 15.26-1.65 30.52-2.49 45.78-.5 9.03-.99 18.05-1.59 27.07-.13 1.93.54 3.1 1.97 4.39 7.52 6.73 15.21 13.32 22.24 20.53 8.23 8.45 8.08 20.64.4 29.74-3.71 4.39-7.32 8.86-11 13.27-3.68 4.41-7.41 8.78-11.27 13.35zm-264.71 49.68c-2.99 9.99-4.82 20.07-5.48 30.31-1.3 20.25 1.27 40 8.35 59.1 9.62 25.98 25.39 47.38 47.77 63.73 16.92 12.36 35.82 20.16 56.5 23.66 19.36 3.27 38.5 2.27 57.39-2.87 21.69-5.91 40.92-16.42 57.52-31.61 28.37-25.98 43.94-58.37 47.27-96.52 2.01-23.04-1.76-45.38-10.83-66.73-.33-.77-.89-1.67-1.59-2.02-6.33-3.2-11.46-1.47-14 5.14-1.9 4.95-3.13 10.17-4.63 15.27-2.67 9.12-4.82 18.41-9.16 26.98-5.95 11.74-14.97 19.25-28.2 21.51-11.66 1.99-23.27 1.79-34.8-.49-10.92-2.16-20.35-7.34-26.93-16.44-10.83-14.98-18.32-31.38-19.63-50.18-.09-1.36-1.29-3.32-2.47-3.8-3.86-1.57-8.02-1.68-12.11-.77-3.46.77-4.34 2.12-4.65 5.65-.23 2.6-.49 5.28-1.27 7.75-4.15 13.06-9.7 25.46-18.22 36.33-6.39 8.15-14.56 13.38-24.93 14.92-8.57 1.27-17.05.52-25.49-1.1-12.45-2.39-21.21-9.37-25.58-21.35-1.93-5.29-3.2-10.82-4.83-16.48zm117.5-113.94c2.09-.26 3.85-.54 5.61-.7 14.91-1.41 29.71-.7 44.42 2.14 18.91 3.65 36.53 10.55 52.82 20.85 4.1 2.6 8.53 4.41 13.51 3.58 8.79-1.46 14.44-7.19 18.36-14.65 3.72-7.08 2.13-14.81-3.6-19.71-8.85-7.56-18.57-13.83-29.17-18.63-5.22-2.37-10.65-4.28-15.99-6.4-3.23-1.28-4.62-4.12-3.59-7.32.98-3.07 3.72-4.61 6.98-3.68 2.91.83 5.77 1.88 8.61 2.92 4.11 1.5 8.25 2.4 12.47.6 6.51-2.78 9.13-8.15 9.58-14.85.72-10.66 1.39-21.32 2.05-31.99.37-5.97.96-11.94.97-17.92.01-6.31-5.72-9.88-10.82-6.93-1.74 1.01-3.23 2.54-4.62 4.03-10.4 11.19-20.74 22.44-31.12 33.66-9.26 10.01-18.52 20.03-27.86 29.97-.66.7-1.96 1.14-2.95 1.12-5.58-.12-11.18-.84-16.73-.54-5.7.3-11.39 1.29-16.99 2.43-4.21.86-6.7 3.64-7.32 8.18-1.08 7.88-2.55 15.7-3.71 23.57-.49 3.29-.6 6.64-.91 10.28zm46.3 146.73c2.23.33 3.41-1.15 4.61-2.47 6.14-6.73 12.22-13.52 18.37-20.25 12.12-13.28 24.29-26.52 36.4-39.81 2.97-3.26 2.43-6.35-1.67-7.91-3.58-1.36-7.39-2.13-11.1-3.12-3.06-.82-5.2.4-7.28 2.73-9.18 10.3-18.52 20.45-27.81 30.65-8.13 8.92-16.27 17.83-24.41 26.75-1.85 2.02-2.36 4.42-.88 5.96 3.79 3.91 8.5 6.24 13.77 7.46zm-94.4-72.43c-.87.65-2.33 1.39-3.33 2.53-8.4 9.67-16.72 19.41-25.06 29.13-6.47 7.54-12.96 15.06-19.39 22.63-2.98 3.51-2.89 5.81.93 8.38 3.02 2.03 6.52 3.33 9.82 4.94 2.66 1.3 4.58.05 6.24-1.89 11.49-13.4 22.96-26.82 34.44-40.22 3.79-4.43 7.65-8.8 11.37-13.29 2.22-2.68 2.13-5.11-.32-6.84-4.17-2.94-9-4.28-14.71-5.37zm119.59-1.98l-.24-1.06c-2.55-.08-5.14-.45-7.64-.12-1.72.23-3.77 1.02-4.9 2.26-10.95 12.01-21.74 24.16-32.57 36.29-2.02 2.26-4.09 4.5-5.88 6.93-1.2 1.63-.01 6.04 1.59 7.11 1.73 1.15 3.32.58 5.43-1.85 2.75-3.15 5.51-6.3 8.31-9.41 10.43-11.6 20.89-23.17 31.31-34.77 1.58-1.75 3.06-3.59 4.59-5.39zm-141.9-1.77c-2.34.29-3.94 1.09-5.34 2.77-9.25 11.1-18.4 22.3-27.94 33.14-3.2 3.63-4.54 7-2.43 11.43.43.91.99 1.76 1.49 2.63.76-.56 1.66-1 2.25-1.7 11.59-13.75 23.18-27.51 34.68-41.33 1.11-1.34 1.67-3.14 2.49-4.72-1.73-.74-3.47-1.48-5.2-2.21z"/>
    <path d="M301.76 386.41c-4.71-3.51-10.25-3.88-14.91-1.34l.24.37-.26-.36a77.715 77.715 0 01-10.08 6.98c-17.43 10.12-35.39 14.21-55.96 10.43-4.69-.86-7.42-2.14-10.45-1.1-4.26 1.67-7.16 5.31-8.15 10.37-1.01 5.15 1.42 8.92 5.31 12.02.17.14 9.03 5.33 32.08 4.2 12.55-.62 25.29-2.78 36.77-7.74 18.94-8.19 23.89-15.02 28.97-19.94 2.43-4.97 1.05-10.44-3.56-13.89z" fill="#e31937"/>
</svg>