<?xml version="1.0" encoding="utf-8"?>
<!-- Generator: Adobe Illustrator 19.0.0, SVG Export Plug-In . SVG Version: 6.00 Build 0)  -->
<svg version="1.1" id="jack-emoji-groovy" xmlns="http://www.w3.org/2000/svg" xmlns:xlink="http://www.w3.org/1999/xlink" x="0px" y="0px"
	 viewBox="0 0 500 500">
    <path d="M255.77 499.89c.97-.03 1.94-.06 2.91-.11.42-.02.84-.05 1.27-.08 1.03-.06 2.07-.12 3.1-.2.3-.02.59-.05.89-.08 1.16-.09 2.32-.19 3.48-.31.14-.01.28-.03.42-.05 33.51-3.46 64.92-16.64 90.9-38.18.18-.14.35-.29.52-.44.83-.7 1.66-1.39 2.49-2.11.98-.85 1.95-1.71 2.92-2.59.02-.02.05-.04.07-.06 5.23-4.74 10.16-9.8 14.77-15.15.45-.52.89-1.06 1.34-1.58.41-.49.82-.97 1.22-1.46 15.94-19.35 27.28-41.69 33.46-65.66l.15-.57c.24-.92.46-1.85.68-2.78.13-.54.26-1.07.38-1.61.13-.56.24-1.12.36-1.68.2-.91.39-1.82.58-2.74l.09-.45c2.13-10.8 3.26-21.97 3.26-33.4 0-32.37-8.96-62.64-24.51-88.46l14.62-17.38c6.72-7.97 10.09-18.34 9.24-28.47-.62-7.31-3.32-14.22-7.79-19.95-2.08-2.7-4.86-5.69-8.74-9.4-2.07-2.04-6.24-6.15-13.33-12.01l7.16-124.73c.3-5.14-.73-10.18-2.99-14.62-2.96-5.81-8.01-9.97-14.99-12.36l-.38-.13-.39-.11c-2.22-.64-4.51-.96-6.82-.96-4.79 0-11.97 1.41-18.96 8.15-5.51 5.33-68.82 73.82-87.47 94.01-1.86-.08-3.68-.12-5.44-.12-16.4 0-29.5 3.42-38.92 10.16-9.1 6.51-12.26 14.21-13.34 18.28-2.66 9.83-4.43 23.19-5.5 33.42-39.82 11.52-73.65 37.15-95.79 71.14a66.07 66.07 0 00-6.99 9.65c-.8.57-2.65 1.32-3.99 1.61-8.13 1.54-14 8.62-14 16.9v9c0 3.84 1.29 7.46 3.51 10.39a172.194 172.194 0 00-5.83 34.14c-.03.4-.05.8-.08 1.2-.06.99-.12 1.99-.16 2.99-.04.86-.07 1.72-.1 2.58l-.03 1.35c-.03 1.21-.04 2.41-.05 3.62v.19c0 45.76 17.78 88.78 50.07 121.14 30.18 30.25 69.66 47.79 111.98 49.96.06 0 .12 0 .18.01 1.32.07 2.65.11 3.97.15.14 0 .28.01.42.02 1.45.04 2.91.06 4.37.06h.5c1.29 0 2.57-.02 3.86-.05.48-.01.96-.04 1.44-.05z" fill="#fff"/>
    <path d="M228.03 352.67c23.99 2.11 28.26-32.21 4.49-36.03-9.96-1.24-60.92 11.35-62.16 21.28-1.21 9.96 47.72 13.51 57.67 14.75z"/>
    <path d="M376.86 239l22.21-26.41c3.99-4.72 6.1-10.82 5.58-16.98-.32-3.82-1.62-7.87-4.55-11.64-1.76-2.28-4.34-4.95-7.26-7.74-2.81-2.78-8.29-8.12-18.54-16.09l7.63-132.87c.13-2.26-.27-4.53-1.29-6.54-1.03-2.02-2.8-3.5-6.06-4.62-2.43-.7-6.26-.7-10.48 3.37-5.4 5.22-78.34 84.14-91.97 98.92-41.31-3.95-48.02 12.69-48.93 16.15-3.4 12.53-5.32 32.52-6.05 42.02a153.827 153.827 0 00-30.03 9.8c-6.99 3.27-2.45 13.45 4.69 10.39 30.95-13.6 66.55-15.84 100.32-3.58 33.83 12.29 59.71 36.94 74.7 67.31-2.21.47-5.48.75-10.04.2-2.8-.71-9.84-2.93-13.39-8.11-5.16-9.13-12.85-16.38-21.95-21.21-8.56-5.34-18.63-8.47-29.44-8.47-23.19 0-43.11 14.2-51.55 34.36-.17-.07-.36-.13-.55-.13h-32.27c-8.59-18.33-27.47-30.12-48.37-30.12-4.36 0-8.62.54-12.74 1.52 2.66-2.77 5.37-5.47 8.22-8 5.76-5.12-1.54-13.55-7.43-8.58-10.63 9.4-19.94 20.26-27.68 32.23-2.65 2.88-5 6.05-6.95 9.51-4.28 6.29-13.93 8.06-14.03 8.07-.69.12-1.19.72-1.19 1.42v9c0 .65.43 1.22 1.06 1.39 1.76.48 3.87 1.33 5.44 2.27a155.506 155.506 0 00-9.23 52.81c0 85.92 69.5 155.58 155.24 155.58s155.24-69.65 155.24-155.58c0-33.39-10.5-64.32-28.36-89.66zm-16.62-47.57c-10.64 12.02-19.47 9.98-26.45 6.25-24.18-15.57-52.95-24.61-83.82-24.61-6.94 0-13.77.46-20.47 1.35.85-9.9 2.61-26.42 5.41-36.72 1.94-7.2 23.86-8.65 38.91-6.92l3.07.37c16.82-18.24 39.86-43.16 60.34-65.2 2.48-2.69 5.11-5.45 9.01-4.76 5.75 1.09 6.55 6.21 5.91 11.53-.37 4.58-2 30.9-2.91 45.71-.34 11.33-9.32 18.53-19.52 15.17-4.08-1.42-7.04-2.64-10.62-3.79-3.19-1.03-6.62.73-7.65 3.92-1 3.19.73 6.62 3.95 7.65 7.38 2.37 14.47 5.46 21.12 8.88 8 4.12 15.5 9.15 22.47 14.84 4 3.03 6.54 7.22 6.88 11.73.39 4.92-1.55 9.95-5.62 14.6zm-102.53 112.5l16.54-30.4c.75-1.38.72-3-.09-4.35a4.39 4.39 0 00-3.8-2.16h-.75c-.81 0-1.21-.55-1.33-.78-.14-.23-.4-.84-.03-1.53l16.11-28.96c.23-.4.63-.72 1.1-.78 2.22-.35 4.52-.52 6.86-.52 11.79 0 22.91 4.47 31.27 12.59.46.43.58 1.18.26 1.79l-22.36 44.03c-.69 1.38-.63 3 .17 4.32a4.43 4.43 0 003.77 2.1h3.63c.78 0 1.18.52 1.33.75.12.23.4.84.03 1.53l-10.17 18.76c-.26.46-.66.75-1.12.81-2.22.35-4.52.52-6.8.52-13.4 0-25.96-5.82-34.46-16.02-.37-.46-.43-1.15-.14-1.7zm-130.54-1.76l15.13-27.81c.75-1.38.72-3-.09-4.35-.81-1.35-2.22-2.19-3.8-2.19-.81 0-1.18-.52-1.33-.75-.14-.23-.4-.84-.03-1.53l14.75-26.51c.23-.43.63-.72 1.1-.78 2.05-.32 4.15-.46 6.25-.46 10.86 0 21.12 4.09 28.87 11.56.46.46.58 1.18.26 1.79l-20.55 40.49c-.72 1.38-.63 2.97.17 4.29.81 1.33 2.22 2.1 3.77 2.1h2.68c.78 0 1.18.55 1.33.78.12.2.4.81.03 1.5l-9.25 17.06c-.23.43-.66.75-1.1.81-2.05.32-4.15.46-6.22.46-12.36 0-23.97-5.39-31.87-14.75-.37-.46-.43-1.15-.12-1.7zm68.3 157.11c-65.62-23.83-101.35-94.15-85.61-162.56 7.72 19.08 26.93 32.66 49.41 32.66 29.24 0 53.04-22.94 53.04-50.95 1.23-7.36 8.54-10.66 13.33-10.66 3.63 0 7.76 1.66 10.54 4.22.11.1.25.13.39.19-.26 2.16-.42 4.35-.42 6.59 0 30.81 25.06 55.87 55.87 55.87 16.6 0 31.49-7.32 41.74-18.86 10.09-9.65 16.35-23.01 16.35-37.77 0-1.69 4.4-3.82 7.74-4.78 2.98-.76 8.58-1.71 14.37-.37 11.7 30.85 12.78 66.26.46 100.18-26.69 73.49-106.03 112.09-177.2 86.24z"/>
    <path d="M220.08 381.99c7.8 7.5 22.5 8.15 34.33 2.77 13.49-6.18 20.86-18.46 21.41-25.93.3-4.05-3.65-5.58-4.38-5.8-2.82-.85-5.64.6-8.36 4.13-3.95 5.13-7.98 9.92-12.92 12.46-6.38 3.28-12.37 5.02-20.99 2.92-3.59-.88-8.13-1.38-10.14 1.84-1.81 2.9-.92 5.71 1.05 7.61z" fill="#e31937"/>
    <path d="M360.24 191.43c-10.64 12.02-19.47 9.98-26.45 6.25-24.18-15.57-52.95-24.61-83.82-24.61-6.94 0-13.77.46-20.47 1.35.85-9.9 2.61-26.42 5.41-36.72 1.94-7.2 23.86-8.65 38.91-6.92l3.07.37c16.82-18.24 39.86-43.16 60.34-65.2 2.48-2.69 5.11-5.45 9.01-4.76 5.75 1.09 6.55 6.21 5.91 11.53-.37 4.58-2 30.9-2.91 45.71-.34 11.33-9.32 18.53-19.52 15.17-4.08-1.42-7.04-2.64-10.62-3.79-3.19-1.03-6.62.73-7.65 3.92-1 3.19.73 6.62 3.95 7.65 7.38 2.37 14.47 5.46 21.12 8.88 8 4.12 15.5 9.15 22.47 14.84 4 3.03 6.54 7.22 6.88 11.73.39 4.92-1.55 9.95-5.62 14.6z" fill="#f6be00"/>
    <path d="M236.93 353.83c-1.17-.28-2.88-.67-4.99-1.13 18.94-1.65 22.46-28.14 5.02-34.86 1.87.06 3.4.22 4.46.48 23.78 6.65 19.51 40.48-4.49 35.52z" fill="#ebebe3"/>
    <g 
        fill="#ebebe3">
        <path d="M372.68 373.05c12.32-33.92 11.24-69.33-.46-100.18-5.79-1.34-11.38-.39-14.37.37-.27.08-.55.17-.83.26 8.27 26.4 8.92 56.04.1 85.22C335 432.01 261.7 474.7 193.4 454.08c-21.21-6.4-39.43-18.18-53.83-33.55 14.58 17.05 33.5 30.61 55.9 38.75 71.17 25.85 150.51-12.76 177.2-86.24zM351.51 258.86c2.13.96 4.1 1.54 5.29 1.84 4.55.55 7.83.28 10.04-.2-15-30.37-40.87-55.02-74.7-67.31-9.05-3.29-18.23-5.52-27.41-6.79 2.94.65 5.87 1.41 8.79 2.29 35.94 10.85 63.33 37.07 77.99 70.16z"/>
    </g>
    <path d="M352.25 72.65c-.37 4.58-2 30.92-2.92 45.73-.34 11.34-9.33 18.54-19.53 15.18-1.85-.65-9.07-3.22-10.62-3.79 4.07 1.47 12.77.04 14.18-9.48l3.81-40.87c.4-4.82-5.51-7.43-8.8-3.88 3.03-3.27 6.02-6.5 8.96-9.67 2.49-2.69 5.11-5.45 9.01-4.76 5.76 1.08 6.55 6.21 5.91 11.54zM360.27 191.34c-10.64 12.02-19.48 9.99-26.46 6.25-4.33-2.79-8.82-5.37-13.43-7.72l4.13-.64c5.24-.8 9.93-3.7 12.98-8.04l5.67-8.07c3.66-5.2 4.54-11.86 2.36-17.84 4.7 2.94 9.2 6.2 13.51 9.72 4 3.03 6.54 7.23 6.88 11.73.39 4.92-1.55 9.96-5.62 14.61z" fill="#dbac27"/>
</svg>