<?xml version="1.0" encoding="utf-8"?>
<!-- Generator: Adobe Illustrator 19.0.0, SVG Export Plug-In . SVG Version: 6.00 Build 0)  -->
<svg version="1.1" id="jack-emoji-gotcha" xmlns="http://www.w3.org/2000/svg" xmlns:xlink="http://www.w3.org/1999/xlink" x="0px" y="0px"
	 viewBox="0 0 500 500">
    <path d="M412.4 312.1v-4.6c-.1-2.6-.2-5.2-.4-7.7v-.3c-1.9-25.3-9.7-49.6-22.8-71.3l13.9-16.5c6.4-7.6 9.6-17.4 8.8-27.1-.6-6.9-3.2-13.5-7.4-19-2-2.6-4.6-5.4-8.3-8.9-2-1.9-5.9-5.8-12.6-11.4l6.8-118.4c.3-4.9-.7-9.7-2.8-13.9-2.8-5.5-7.6-9.5-14.3-11.8l-.5-.2-.4-.1c-2.1-.6-4.3-.9-6.5-.9-4.6 0-11.4 1.3-18 7.8-5.3 5.1-65.3 70-83 89.2-1.8-.1-3.5-.1-5.1-.1-15.6 0-28 3.2-37 9.7-8.7 6.2-11.7 13.5-12.7 17.4-2.5 9.4-4.2 22.1-5.2 31.8-7 2-13.9 4.6-20.6 7.5l-.3.1c-.3.1-.6.3-.8.4-14.5 6.6-27.9 15.2-39.7 25.6-.2.1-.4.3-.5.4l-.1.1-.1.1c-8.3 7.3-15.8 15.5-22.3 24.2-.2.2-.4.5-.6.7-.5.6-.9 1.3-1.4 1.9-.4.6-.8 1.1-1.2 1.7-.3.4-.6.9-.9 1.3-.6.8-1.1 1.6-1.7 2.4-.2.2-.3.5-.5.7-15.2 23.2-24.6 50.6-26.3 80v.5c-.1 1.1-.1 2.3-.1 3.5v.9c0 1.3 0 2.6-.1 3.9v4.5c0 .5 0 1.1.1 1.6 0 .8.1 1.7.1 2.5 0 .5.1 1 .1 1.4.1.9.1 1.8.2 2.7 0 .4.1.7.1 1.1.1 1 .2 2 .3 3.1 0 .2 0 .4.1.7.1 1.2.3 2.3.4 3.5v.2c4 31.7 17.2 61.2 38.2 85.5.5.5.9 1 1.4 1.6.4.4.8.9 1.1 1.3 3.6 4 7.3 7.7 11.3 11.3.6.6 1.3 1.1 1.9 1.7.3.3.6.6.9.8 4.8 4.2 9.8 8.1 15.1 11.6 1.2 7.3 3.3 15.1 7 22.5 4.9 9.8 11.8 17.5 20.4 22.8 8.6 5.3 18.5 8 29.5 8h2.5c.9 0 1.8-.1 2.7-.2h3.2c15.7-.6 29.9-7.8 40-20.3 1.4-1.8 2.8-3.7 4-5.7 32.6-3.6 63.1-17 88-38.6.3-.3.6-.6.9-.8.6-.6 1.3-1.1 1.9-1.7 3.9-3.6 7.7-7.4 11.3-11.3.4-.4.8-.9 1.1-1.3.5-.5.9-1 1.4-1.6 21-24.3 34.2-53.8 38.2-85.5v-.2c.1-1.2.3-2.3.4-3.5 0-.2.1-.4.1-.7.1-1 .2-2 .3-3.1 0-.4.1-.7.1-1.1.1-.9.1-1.8.2-2.7 0-.5.1-1 .1-1.4 0-.8.1-1.7.1-2.5 0-.5 0-1.1.1-1.6v-3.4c-.1-.4-.1-.6-.1-.8z" fill="#fff"/>
    <path d="M198.3 436.5c67.7 24.6 143.2-12.1 168.6-82.1 25.4-69.9-8.9-146.6-76.6-171.2-8.8-3.2-17.7-5.3-26.7-6.5 3 .6 6 1.4 9 2.3 65 19.6 100.6 92 79.5 161.7-21 69.7-90.8 110.3-155.7 90.7-20.8-6.3-38.7-18-52.6-33.4 14 17 32.5 30.5 54.5 38.5z" fill="#ebebe3"/>
    <path d="M237.8 336.1c-1.1-.3-2.7-.6-4.7-1.1 18-1.6 21.4-26.8 4.8-33.2 1.8.1 3.2.2 4.2.5 22.6 6.3 18.5 38.5-4.3 33.8z" fill="#ebebe3"/>
    <path d="M158.7 276.5c12.4 19.2 40.1 10.9 44.5-9 3.1-11.8-4.2-25.8-18-28.2-22.3-3.8-36.8 21-26.5 37.2z" fill="#407ec9"/>
    <path d="M233.4 300.7c-9.5-1.2-57.8 10.8-59 20.2-1.2 9.5 45.3 12.8 54.7 14 22.8 2 26.9-30.6 4.3-34.2z"/>
    <path d="M317.1 272.2c-4.1-16-16-26.8-30.5-27.5-16.5-.8-31.5 9.1-36.3 24-1.1 3.4.5 5.1 1.2 5.6 2.5 1.9 7.1 1 11.6-2 6.5-4.4 11.7-6.3 17.9-6.4 8-.1 14.8 1.6 22.4 10.6 3.1 3.7 6.2 5.1 8.6 5.1.9 0 1.8-.2 2.5-.6 2.6-1.4 3.7-4.7 2.6-8.8z" fill="#407ec9"/>
    <path d="M397.4 312.1c0-31.7-10-61.1-26.9-85.1l21.1-25.1c3.8-4.5 5.8-10.3 5.3-16.1-.3-3.6-1.5-7.5-4.3-11.1-1.7-2.2-4.1-4.7-6.9-7.4-2.7-2.6-7.9-7.7-17.6-15.3l7.2-126.1c.1-2.1-.3-4.3-1.2-6.2-1-1.9-2.7-3.3-5.8-4.4-2.3-.7-5.9-.7-9.9 3.2-5.1 5-74.4 79.9-87.3 93.9-39.2-3.8-45.6 12-46.4 15.3-3.2 11.9-5 30.9-5.7 39.9-9.9 2.1-19.4 5.3-28.5 9.3-6.6 3.1-2.3 12.8 4.5 9.9 29.4-12.9 63.2-15 95.2-3.4 67.6 24.5 101.8 101 76.5 170.7-17.2 47.4-57.6 79.6-102.9 87.5 0-.5.1-1 .1-1.5.9-14.4 4.2-24.4 10.5-31.4 3.5-3.9 5.6-7.8 6.8-11.5 18.5-10.3 26-25 29.9-35.5 3.3-8.7-3.4-12.7-10-11.3-33.7 7-88.9 12.3-134.1 7.6-7.6-.8-13 6-9 12.9 1.1 1.9 7.7 13.7 21.9 23.8-3.5 6.8-6 16.5-6.9 27.2 0 .4-.1.8-.1 1.2-50.2-32.4-72.8-97.8-50.9-158.1 8.1-22.3 21.3-41.3 37.8-55.9 5.5-4.9-1.5-12.9-7.1-8.2-30.6 27.1-49.9 66.7-49.9 110.8 0 53.2 28.1 99.8 70.2 125.8.6 7.8 2.4 16.6 6.4 24.7 3.7 7.3 8.7 12.9 14.9 16.7 6.2 3.8 13.5 5.8 21.7 5.8h1.9c.8 0 1.7-.1 2.7-.2h3.2c11.5-.4 21.5-5.5 28.9-14.8 2.6-3.2 4.7-6.7 6.4-10.6 77.1-4.3 138.3-68.5 138.3-147zm-42.7-130.3c-10.1 11.4-18.5 9.5-25.1 5.9-23-14.8-50.3-23.4-79.6-23.4-6.6 0-13.1.4-19.4 1.3.8-9.4 2.5-25.1 5.1-34.9 1.8-6.8 22.6-8.2 36.9-6.6l2.9.3c16-17.3 37.8-41 57.3-61.9 2.4-2.5 4.9-5.2 8.5-4.5 5.5 1 6.2 5.9 5.6 10.9-.3 4.3-1.9 29.3-2.8 43.4-.3 10.8-8.9 17.6-18.5 14.4-3.9-1.4-6.7-2.5-10.1-3.6-3-1-6.3.7-7.3 3.7s.7 6.3 3.8 7.3c7 2.2 13.7 5.2 20.1 8.4 7.6 3.9 14.7 8.7 21.3 14.1 3.8 2.9 6.2 6.9 6.5 11.1.5 4.9-1.4 9.7-5.2 14.1z"/>
    <path d="M264.8 383c-3.9-5.3-11.2-5-17.1-4.7-1.8.1-4.4.7-7.3 1.9-.3.1-.7.3-1 .4-7 3.3-12.3 9.4-14.8 16.8-2.7 7.7-5.9 20.3-6.8 37.7-.1 1.7-1.5 3-3.2 3-.3 0-.6 0-1-.2-1.4-.6-2.2-2-2.2-3.5 1-18.9 4.6-32.3 7.5-40.3 1.9-5.2-1.8-10.8-7.3-11h-.2c-10.5-.2-15.8 5.1-21.6 12.2-12 14.9-17.8 82.3 27.5 80.6 19.2-.7 30.3-18.3 31.4-36.1 1.1-17.8 5.8-29 12.8-36.8 7.1-7.7 6.8-15.3 3.3-20z" fill="#e31937"/>
    <path d="M354.7 181.8c-10.1 11.4-18.5 9.5-25.1 5.9-23-14.8-50.3-23.4-79.6-23.4-6.6 0-13.1.4-19.4 1.3.8-9.4 2.5-25.1 5.1-34.9 1.8-6.8 22.6-8.2 36.9-6.6l2.9.3c16-17.3 37.8-41 57.3-61.9 2.4-2.5 4.9-5.2 8.5-4.5 5.5 1 6.2 5.9 5.6 10.9-.3 4.3-1.9 29.3-2.8 43.4-.3 10.8-8.9 17.6-18.5 14.4-3.9-1.4-6.7-2.5-10.1-3.6-3-1-6.3.7-7.3 3.7s.7 6.3 3.8 7.3c7 2.2 13.7 5.2 20.1 8.4 7.6 3.9 14.7 8.7 21.3 14.1 3.8 2.9 6.2 6.9 6.5 11.1.5 4.9-1.4 9.7-5.2 14.1z" fill="#f6be00"/>
    <path d="M354.5 181.9c-10.1 11.4-18.5 9.5-25.2 5.9-4.1-2.7-8.4-5.1-12.8-7.3l3.9-.6c5-.8 9.4-3.5 12.3-7.7l5.4-7.7c3.5-4.9 4.3-11.3 2.2-17 4.5 2.8 8.8 5.9 12.8 9.2 3.8 2.9 6.2 6.9 6.5 11.2.6 4.7-1.2 9.5-5.1 14zM347.1 68.9c-.3 4.4-1.9 29.4-2.8 43.5-.3 10.8-8.9 17.6-18.6 14.4-1.8-.6-8.6-3.1-10.1-3.6 3.9 1.4 12.1 0 13.5-9l3.6-38.9c.4-4.6-5.2-7.1-8.4-3.7 2.9-3.1 5.7-6.2 8.5-9.2 2.4-2.6 4.9-5.2 8.6-4.5 5.6 1 6.3 5.9 5.7 11z" fill="#dbac27"/>
    <path d="M187.6 403c5.7-7.1 11.1-12.4 21.6-12.2h.2c5 .1 8.5 4.8 7.7 9.5.7-2.3 1.3-4.3 2-6.1 1.9-5.2-1.8-10.8-7.3-11h-.2c-10.5-.2-15.8 5.1-21.6 12.2-2.4 3-4.6 8.1-6.1 14.4 1.1-2.8 2.3-5.2 3.7-6.8zM265.5 397.5c.2-.4.3-.7.5-1v-.1c.3-.7.5-1.4.7-2.1v-.1c.1-.3.2-.7.2-1v-.1c.1-.3.1-.6.1-1v-.1c0-.3.1-.6.1-1v-.1c0-.6 0-1.2-.1-1.8v-.1c0-.3-.1-.6-.1-.9v-.1c-.1-.3-.1-.5-.2-.8v-.1c-.1-.3-.2-.5-.2-.8q0-.1-.1-.2c-.1-.3-.2-.5-.3-.8v-.1c-.1-.2-.2-.5-.3-.7 0 0 0-.1-.1-.1-.1-.2-.3-.5-.4-.7l-.1-.1c-.1-.2-.3-.4-.5-.7-3.9-5.3-11.2-5-17.1-4.7-1.8.1-4.4.7-7.3 1.9-.3.1-.7.3-1 .4-.5.2-.9.4-1.4.7-.1 0-.1.1-.2.1-.4.2-.8.4-1.2.7 0 0-.1 0-.1.1-.4.3-.8.5-1.2.8-5 3.5-8.7 8.6-10.7 14.4-.7 1.9-1.4 4.2-2.1 6.7 2.6-7 16.9-23.5 31.1-18.3 4.5 1.6 5.3 12.6-1.7 20.4s-10.7 23.3-10.9 37.5c-.1 11.7-4 24.5-16 30.9 14.5-4.4 22.9-19.5 23.8-34.9 1.1-17.8 5.8-29 12.8-36.8 1.7-1.9 2.9-3.7 3.8-5.5q.1.3.2.2z" fill="#a30c34"/>
</svg>