<?xml version="1.0" encoding="utf-8"?>
<!-- Generator: Adobe Illustrator 19.0.0, SVG Export Plug-In . SVG Version: 6.00 Build 0)  -->
<svg version="1.1" id="jack-emoji-cowboy" xmlns="http://www.w3.org/2000/svg" xmlns:xlink="http://www.w3.org/1999/xlink" x="0px" y="0px"
	 viewBox="0 0 500 500">
     
    <path d="M496.4 223.5c-2.3-7.6-5.8-15.1-10.4-22.2l-1.5-2.3c-.5-.8-1-1.4-1.4-2-.1-.2-.3-.3-.4-.5l-1.8-2.4c-.2-.3-.5-.7-.9-1.2l-1-1.2c-.3-.4-.6-.7-.9-1.1-.8-1-1.6-1.9-2.6-3l-.1-.2-3.5-3.6-2-2-2.2-2-2.1-1.9-2.1-1.8s-2.2-1.8-2.4-1.9c-.5-.4-1.2-1-2.1-1.6l-3.6-2.7c-1.3-1-2.4-1.7-3.4-2.4-.3-.2-.7-.4-1-.7l-2.1-1.4c-.7-.5-1.6-1.1-2.7-1.7-.7-.4-1.3-.8-2-1.2-2.1-1.2-4.2-2.5-6.5-3.7l-4.2-2.2-4.3-2.1c-1.4-.7-3-1.5-4.8-2.3l-4.3-1.9c-8.6-3.7-17.9-6.9-27.6-9.6.1-2.7.1-5.3-.1-7.9 0-1.1-.1-2-.2-2.7l-.2-1.9c-.1-1.1-.2-2-.4-2.7l-.4-2.4c-.2-1.1-.4-2-.5-2.6 0-.1-.1-.2-.1-.4l-.5-2.2-.3-1.1-.4-1.2-.4-1.3-.4-1c-.3-.6-.6-1.4-.9-2.1l-.1-.2c-.2-.4-.4-.9-.7-1.5-2-3.8-4.2-6.7-6.2-9.3l-.1-.1c-1.8-2.2-3.6-4.3-6.1-6.9-3.5-3.6-7.3-7.1-11.9-11.1l-.1-.1c-3.5-3-7.3-6.1-12.1-9.7-4.9-3.7-8.7-6.5-12.4-9-4.1-2.8-8.4-5.6-12.6-8.3-5.1-3.3-9.1-5.7-13-7.9h-.1c-4.7-2.7-9.2-5.1-13.5-7.4-2.5-1.3-4.9-2.5-7.2-3.5l-.1-.1c-2.7-1.3-5.3-2.3-7.9-3.3-.8-.3-1.5-.6-2.2-.8 0 0-.9-.3-1.1-.4-.6-.2-1.5-.5-2.5-.8l-2-.5-.3-.1c-.8-.2-1.5-.3-2.1-.4l-.8-.2c-3.9-.7-7.7-1.1-11.2-1.1h-.3c-3.6 0-7 .3-10.3.7-3.4.5-6.6 1.2-9.6 2l-4.2 1.2c-2.2-.7-4.3-1.2-6.5-1.7-3.9-.8-7.9-1.2-11.9-1.2-1.6 0-3.2.1-4.8.2-9.8.7-19.6 3.7-29.2 8.7-4.2 2.2-8.3 4.8-12.2 7.8-4.2 3.1-7.7 6.3-10.9 9.7-1.9 2-3.6 4.1-5.2 6.3l-.1.2-.3.5c-.3.4-.6.9-1.1 1.6l-.3.5c-.3.5-.6 1-1 1.6l-.1.2-.5 1-.1.3c-.2.3-.5 1-.9 1.8l-.4.9-.1.3c-.1.2-.3.6-.4 1.1l-2 5.7-1 2.8-.9 2.8c-4.4 13.6-8.6 28.2-12.6 44.4-1.8 7-3.5 14.3-5.1 21.7-14.6-5-29.5-9.9-44.5-14.6l-7.4-2.3-1.3-.4c-3.7-1.1-7.4-1.9-11.1-2.5-3.8-.6-7.7-.9-11.3-.9-4.5 0-9 .4-13.2 1.3-9.7 2-18.4 6.3-25.2 12.5-3.9 3.6-7.2 7.7-9.7 12.3-2.6 4.9-4.3 10-5.1 15.4-.7 5.3-.5 10.7.7 16 1.1 4.8 2.9 9.6 5.6 14.1v.1c2.3 3.9 5.2 7.6 8.6 11l1.2 1.1c.3.3.7.6 1 .9l.2.2c1 .9 1.9 1.6 2.8 2.3 1.6 1.3 3.4 2.5 5.5 3.8l.1.1c6.4 3.8 13.4 6.5 22.1 8.6h.1c6.1 1.4 12.5 2.4 20.1 3 7.3.6 14.8.9 23.8.9h2c-14.3 24.1-22 51.8-22 80.4 0 42.1 16.4 81.7 46.1 111.5 29.7 29.8 69.2 46.2 111.3 46.2s81.6-16.4 111.3-46.2c26-26.1 41.8-59.8 45.3-96 1.5.1 3.1.3 4.8.4 3.5.2 6.8.3 9.9.4h.2c15.3-.1 28.7-2.1 41.1-6.3 1.4-.5 2.7-.9 3.8-1.4.4-.2.8-.3 1.2-.5l.2-.1.2-.1c1.5-.6 3-1.2 5-2.1l.2-.1 2.4-1.2 1.4-.7.2-.1c.4-.2.7-.4 1.1-.6l2.6-1.5 1-.6 2-1.3c7.2-4.6 13.5-10.3 18.7-16.9l.1-.1c3-3.8 5.3-7.1 7.2-10.5l.3-.6c.4-.7.7-1.3 1.1-2l.1-.3 1.2-2.5c.9-1.8 1.6-3.5 2.2-5l.4-1.1c3.1-8 4.7-16.6 5-25.5.2-7.7-1-16.2-3.6-24.6zM90.6 182.4c-.3-.7-.7-1.4-1.1-2.1l2.1.6c-.4.6-.7 1-1 1.5zm362 65.4v.1c-.1 6.7-2.6 13.6-7.2 19.4-2.1 2.8-4.8 5.2-7.9 7.4-2.9 2-6.6 3.9-10.9 5.5-7.9 3-17.2 4.9-27.5 5.6-2.9.2-5.8.3-8.8.3-2 0-4 0-6-.1-3.2-15.5-9.3-29.5-18.1-41.5-3.1-6.2-6.8-11.9-11.1-17.1v-.1c-4.8-5.8-10.3-10.9-16.4-15.3-1.4-1-2.7-1.9-3.8-2.7l-.8-.5s-.9-.5-1.2-.7c-1.1-.7-2.2-1.4-3.6-2.1-3.4-2-6.8-3.6-9.3-4.8l-.1-.1c-6-2.7-12.5-5.1-19.3-7-6.1-1.7-12.4-3.1-19.3-4.2-6.2-1-12.6-1.8-19.1-2.2-3.8-.3-7.5-.5-11.2-.6 18.6-5.1 38.4-8 59-8.8 3-.1 6-.2 8.9-.2 14.3 0 28.3 1.2 41.7 3.7.6.2 1.2.5 1.8.6 1.9.6 3.9.9 5.9.9 1.5.3 2.8.6 4.1.9 10.4 2.6 20.2 5.9 29 9.7.8.4 1.5.7 2.3 1 1.6.7 3.1 1.4 4.5 2.1l.1.1 3.6 1.8 3.4 1.8.3.1c1.3.7 2.7 1.5 4.2 2.4.8.5 1.5.9 2.3 1.4l.2.1c.1.1.5.3.8.5l1.7 1.1c.4.3.8.6 1.2.8.5.3 1 .7 1.3.9l.2.1 3.6 2.7c.1.1.2.1.2.2.2.2.4.3.6.5l2.8 2.3s3.2 3 3.3 3l2.8 2.9c.4.4.7.9 1.2 1.4.3.4.7.8 1 1.2l.4.4c.1.1 1.4 1.8 1.4 1.8.2.2.4.5.5.7.1.1.1.2.2.3l1 1.5c2.2 3.4 3.8 6.9 4.9 10.4.8 3.4 1.3 6.9 1.2 10.4z" fill="#fff"/>
    <path d="M467.2 248.1c-.1 10.1-4 20.1-10.2 28.1-3.1 4-6.9 7.5-11.1 10.4-4.1 2.9-9 5.2-14 7.1-10 3.8-20.8 5.8-31.7 6.5-5.5.4-11 .4-16.5.2-2.7-.1-5.5-.3-8.2-.6-1.4-.1-2.7-.3-4.1-.4l-2-.3-1-.1-.9-.2c-1.1-.2-2.3 0-3.3.4-.1-.8-.2-1.7-.3-2.5l-.8-8.6c-.6-5.9-1.5-11.9-2.9-17.9s-3.4-11.9-6.1-17.6c-2.7-5.7-6.1-11.1-10.2-16s-8.8-9.3-13.9-13l-3.9-2.7c-1.3-.8-2.6-1.7-4-2.4-2.7-1.6-5.5-3-8.3-4.3-5.6-2.5-11.4-4.6-17.3-6.3-5.9-1.6-11.8-2.9-17.7-3.9-5.9-1-11.9-1.6-17.8-2.1-6-.4-11.7-.7-17.6-.9-11.6-.4-23.3-.5-34.9-.4-23.3.2-46.4 1.3-69.5 2.4-11.5.6-23 1.2-34.4 1.5s-22.8.4-33.9-.4c-5.5-.4-11-1.1-16.2-2.3s-10.1-2.9-14.2-5.3c-1-.6-2-1.3-2.9-2l-.7-.5c-.2-.2-.4-.4-.7-.6-.2-.2-.4-.4-.7-.6l-.6-.6c-1.7-1.7-3.2-3.5-4.3-5.4-2.3-3.9-3.4-8.2-2.8-12.4.5-4.1 2.6-8.1 5.9-11 3.3-3 7.6-5.1 12.3-6.1s9.9-1.1 15-.3c2.6.4 5.1.9 7.7 1.6l1 .3 1 .3 2.1.6 4.1 1.2c11 3.3 22 6.8 32.9 10.3s21.9 7.2 32.7 10.9c3 1 6.3-.5 7.4-3.6.1-.2.2-.5.2-.7l.1-.2c2.5-7 4.6-14.1 6.7-21.2l1.5-5.3.8-2.7.7-2.7c1-3.6 2-7.1 2.9-10.7.5-1.8.9-3.6 1.4-5.4.5-1.8 1-3.6 1.4-5.3.9-3.6 1.9-7.1 2.9-10.7 1-3.5 2-7.1 3.1-10.6l1.6-5.3 1.6-5.3.8-2.6.9-2.6 1.7-5.2.1-.3v-.1q0-.1.1-.2s.1-.2.1-.3l.2-.3c.1-.2.3-.5.4-.8.2-.3.4-.6.5-.8.8-1.1 1.7-2.3 2.8-3.5 2.1-2.4 4.5-4.6 7.1-6.7.6-.5 1.3-1 2-1.5s1.4-.9 2-1.4l2.1-1.4c.7-.4 1.4-.9 2.1-1.3 2.9-1.6 5.8-3 8.9-4.1 3-1.1 6.1-1.9 9.3-2.3.7-.1 1.4-.1 2.1-.2l-.6.3c-2.1 1.1-4.1 2.3-6.1 3.3s-4 2-5.8 2.8l-.6.2c-2.7 1.1-4.2 4.2-3.4 7.1.9 3.1 4.2 4.9 7.3 3.9 2.6-.8 5-1.7 7.3-2.7s4.5-2 6.7-3c4.3-2 8.6-4 12.8-5.7s8.5-3.2 12.7-4.2c2.1-.5 4.2-.9 6.3-1.1 2.1-.3 4.2-.3 6.3-.3s4.1.3 6.1.7l1.5.3 1.5.4c.5.1 1 .3 1.4.5.5.2.9.3 1.5.5 4.1 1.6 8.3 3.7 12.4 5.8 8.2 4.3 16.3 9.1 24.3 14.1 7.9 5 15.7 10.3 23.3 15.8 3.8 2.8 7.5 5.6 11 8.6 3.6 2.9 7.1 6 10.3 9.1 1.6 1.6 3.1 3.2 4.5 4.8 1.4 1.6 2.6 3.3 3.5 4.8l.3.6c.1.2.2.4.2.5l.1.2.1.2.1.2.1.4.4 1.5c.1.5.3 1 .4 1.5l.3 1.6c.1.5.2 1 .3 1.6l.2 1.6c.1.5.2 1.1.2 1.6.4 4.3.4 8.8 0 13.2 0 .5-.1 1-.1 1.5l-2.3-.4-2.2-.4c-.7-.1-1.5-.2-2.2-.3l-4.4-.6-4.5-.5-2.2-.2-2.2-.2c-5.9-.6-11.9-.7-17.8-.9-5.9-.1-11.9 0-17.8.3s-11.8.8-17.7 1.4c-5.9.7-11.7 1.5-17.6 2.4-2.9.5-5.8 1-8.7 1.6-1.5.3-2.9.6-4.3.9-1.4.3-2.9.6-4.3 1-2.9.7-5.8 1.4-8.6 2.2-1.4.4-2.9.8-4.3 1.2-1.4.4-2.9.9-4.2 1.3-11 3.4-21.8 7-32.6 10.4s-21.5 6.5-32.4 9.1c-2.7.7-5.4 1.2-8.2 1.8-2.7.6-5.5 1.1-8.2 1.7-2.7.6-5.5 1-8.2 1.4-2.7.5-5.5.8-8.3 1.2-1.4.2-2.8.4-4.2.5l-4.2.4-4.2.5c-1.4.2-2.8.2-4.2.4l-4.2.3-2.1.2-2.1.1-8.4.5h-.4c-3.1.2-5.5 2.7-5.5 5.9s2.6 5.9 5.9 5.8c11.6 0 23.2-.6 34.8-1.7 11.6-1.1 23.1-2.9 34.4-5.3 11.4-2.4 22.6-5.3 33.6-8.5s22-6.5 32.9-9.7c21.4-6.2 43.7-9.5 66-10.3 18.7-.7 37.5.6 55.8 4.1.4.3.9.5 1.4.7.9.3 1.8.3 2.7.2 2.1.5 4.3.9 6.4 1.4 10.8 2.7 21.3 6.1 31.5 10.5 2.5 1.1 5.1 2.2 7.5 3.5l3.7 1.8 3.6 2c2.5 1.3 4.8 2.7 7.1 4.1.6.3 1.2.7 1.7 1.1l1.7 1.1c1.1.8 2.3 1.5 3.4 2.3l3.3 2.4c.6.4 1.1.8 1.6 1.3l1.6 1.3 1.6 1.3 1.5 1.4 1.5 1.4c.5.5 1 .9 1.4 1.4l2.8 2.9c.9 1 1.7 2 2.6 3l.6.8c.2.3.4.5.6.8l1.2 1.6c.4.5.8 1 1.2 1.6l1.1 1.6c2.8 4.4 5.1 9.1 6.6 14 1.3 5.8 2.1 10.8 2 15.9z" fill="#f6be00"/>
    <path d="M231.2 281.3c2.4 1.8 6.9 1 11.3-2 6.3-4.3 11.3-6.1 17.3-6.2 7.8-.1 14.4 1.6 21.7 10.3 3.1 3.6 6 4.9 8.3 4.9.9 0 1.7-.2 2.4-.6 2.6-1.3 3.6-4.6 2.6-8.5-3.9-15.5-15.5-26-29.6-26.7-16-.7-30.5 8.8-35.2 23.3-1.1 3.3.4 5 1.2 5.5zM184.4 270.4c3-13-4.1-28.3-17.4-30.9-21.6-4.1-35.7 23-25.7 40.8 11.9 21 38.8 12 43.1-9.9z" fill="#407ec9"/>
    <path d="M213.6 302.5c-9.2-1.1-56 10.4-57.2 19.6-1.1 9.2 43.9 12.4 53.1 13.6 22.1 1.8 26-29.7 4.1-33.2z"/>
    <path d="M295.6 331.6c-4.4 9.2-8.1 16.2-14 23.7-20.2 27.6-51.8 36.2-80.8 29.7-14.6-2.8-18.1 20.1-3.7 22.5 1.9.5 13.5 2.6 23 2.6 41.7 0 79.1-28.6 95.6-70.7 5.1-13.3-14.2-19.1-20.1-7.8z" fill="#e31937"/>
    <path d="M482.5 227.8c-2-6.7-5.1-12.9-8.7-18.5l-1.4-2.1c-.5-.7-1-1.3-1.5-2l-1.5-2c-.3-.3-.5-.7-.8-1l-.8-.9c-1.1-1.2-2.1-2.5-3.2-3.7l-3.4-3.5c-.6-.6-1.2-1.1-1.7-1.7l-1.8-1.6-1.7-1.8-1.8-1.5-1.8-1.5c-.6-.5-1.2-1-1.9-1.5l-3.8-2.8c-1.3-1-2.6-1.8-3.9-2.6l-2-1.3c-.7-.4-1.3-.9-2-1.2-2.7-1.6-5.3-3.2-8-4.6l-4-2.2-4.1-2c-1.4-.7-2.7-1.3-4.1-1.9l-4.2-1.8c-11.2-4.7-22.7-8.4-34.4-11.2l-3.1-.7c.2-1 .3-1.9.4-2.9.7-5.1.9-10.2.6-15.5 0-.7-.1-1.3-.1-2l-.2-2c0-.7-.2-1.3-.3-2l-.3-2c-.1-.7-.3-1.3-.4-2l-.5-2-.1-.5-.2-.7-.2-.7-.3-.6c-.2-.4-.3-.8-.5-1.2-.2-.4-.4-.8-.6-1.1-1.5-2.9-3.2-5.1-4.9-7.2-1.7-2.1-3.5-4-5.2-5.9-3.6-3.7-7.3-7-11-10.3-3.8-3.2-7.6-6.2-11.5-9.2s-7.8-5.8-11.8-8.6c-4-2.8-8.1-5.4-12.2-8.1-4.1-2.6-8.2-5.2-12.5-7.6-4.2-2.4-8.5-4.8-12.9-7.1-2.2-1.1-4.4-2.2-6.7-3.3-2.3-1-4.6-2-7.1-3-.6-.2-1.3-.5-2-.7s-1.4-.5-2.1-.7l-2.1-.6c-.7-.2-1.4-.3-2.1-.4-2.9-.5-5.8-.9-8.6-.9s-5.7.2-8.4.6c-2.7.4-5.4.9-8 1.6-2.6.7-5.1 1.5-7.5 2.4-.2.1-.4.2-.6.2-3-1.3-6.1-2.3-9.3-2.9-4.2-.8-8.5-1.1-12.7-.7-8.4.6-16.4 3.3-23.6 7.1-3.6 1.9-7 4.1-10.2 6.5s-6.3 5.1-9.1 8.1c-1.4 1.5-2.8 3.1-4.1 4.9-.3.5-.6.9-1 1.4l-.9 1.5-.4.8c-.1.3-.3.5-.4.9l-.4 1c-.1.1-.1.4-.2.5l-.1.3-1.9 5.4-.9 2.7-.9 2.7c-4.7 14.4-8.7 28.9-12.4 43.5-1.8 7.3-3.6 14.6-5.2 21.9-.8 3.7-1.6 7.3-2.4 11-.3 1.5-.6 2.9-.9 4.4-19.7-7-39.5-13.6-59.5-19.8l-4.2-1.3-2.1-.6-1-.3-1.1-.3c-3-.9-6.1-1.6-9.2-2.1-6.3-1-12.9-1-19.5.3-6.5 1.3-13.1 4.2-18.4 9-2.6 2.4-4.9 5.3-6.7 8.5-1.7 3.2-2.9 6.8-3.4 10.4-.5 3.6-.3 7.4.5 10.9.8 3.6 2.2 6.9 4 9.9s4 5.7 6.4 8.1l.9.9c.3.3.6.6 1 .9.6.6 1.3 1.1 2 1.7 1.4 1.1 2.8 2 4.2 2.9 5.8 3.5 12 5.5 18 6.9 6.1 1.4 12.1 2.2 18.1 2.7 11.9 1 23.7.9 35.3.7 6.2-.2 12.3-.4 18.4-.6-22.8 25.4-36.7 58.9-36.7 95.7 0 79.1 63.9 143.1 142.8 143.1s142.8-64.1 142.8-143.1v-1.3c.6.1 1.2.3 1.7.4 2.9.6 5.9 1 8.9 1.4s6 .7 9 .9c3 .2 6 .3 9.1.3 12.1-.1 24.5-1.5 36.7-5.6 1.5-.5 3-1.1 4.5-1.7s3-1.2 4.5-1.9l2.2-1.1 1.1-.5c.4-.2.7-.4 1.1-.6l2.2-1.3.6-.3.5-.4 1.1-.7c5.8-3.8 11-8.4 15.3-13.8 2.2-2.7 4.2-5.5 5.9-8.6.4-.8.9-1.5 1.3-2.3l1.1-2.4c.8-1.6 1.4-3.2 2.1-4.8 2.5-6.6 3.8-13.6 4-20.7.1-7.2-.9-14.3-3-20.9zM342.6 354.4C318 422 245 457.5 179.5 433.7s-98.7-97.9-74.1-165.5c7.3-20.1 18.9-37.4 33.3-51.1.4 0 .7 0 1.1-.1 23.1-1.1 46-2.2 68.9-2.3 11.5-.1 22.9.1 34.3.5 5.7.2 11.5.5 17 .9 5.6.4 11.1 1.1 16.6 2s10.9 2.1 16.1 3.5c5.2 1.5 10.4 3.3 15.2 5.5 9.7 4.5 18.5 10.6 25.1 18.5 1.6 1.8 3 3.7 4.3 5.7 15.2 30.8 18.1 67.8 5.3 103.1zm124.6-106.3c-.1 10.1-4 20.1-10.2 28.1-3.1 4-6.9 7.5-11.1 10.4-4.1 2.9-9 5.2-14 7.1-10 3.8-20.8 5.8-31.7 6.5-5.5.4-11 .4-16.5.2-2.7-.1-5.5-.3-8.2-.6-.5 0-2-.2-3.7-.3-2.1-19.1-8.4-34.8-18-47.6-2.6-5.4-5.9-10.6-9.8-15.3-4.1-4.9-8.8-9.3-13.9-13l-3.9-2.7c-1.3-.8-2.6-1.7-4-2.4-2.7-1.6-5.5-3-8.3-4.3-5.6-2.5-11.4-4.6-17.3-6.3-5.9-1.6-11.8-2.9-17.7-3.9-5.9-1-11.9-1.6-17.8-2.1-6-.4-11.7-.7-17.6-.9-11.6-.4-23.3-.5-34.9-.4-23.3.2-46.4 1.3-69.5 2.4-11.5.6-23 1.2-34.4 1.5s-22.8.4-33.9-.4c-5.5-.4-11-1.1-16.2-2.3s-10.1-2.9-14.2-5.3c-1-.6-2-1.3-2.9-2l-.7-.5c-.2-.2-.4-.4-.7-.6-.2-.2-.4-.4-.7-.6l-.6-.6c-1.7-1.7-3.2-3.5-4.3-5.4-2.3-3.9-3.4-8.2-2.8-12.4.5-4.1 2.6-8.1 5.9-11 3.3-3 7.6-5.1 12.3-6.1s9.9-1.1 15-.3c2.6.4 5.1.9 7.7 1.6l1 .3 1 .3 2.1.6 4.1 1.2c11 3.3 22 6.8 32.9 10.3s21.9 7.2 32.7 10.9c3 1 6.3-.5 7.4-3.6.1-.2.2-.5.2-.7l.1-.2c2.5-7 4.6-14.1 6.7-21.2l1.5-5.3.8-2.7.7-2.7c1-3.6 2-7.1 2.9-10.7.5-1.8.9-3.6 1.4-5.4.5-1.8 1-3.6 1.4-5.3.9-3.6 1.9-7.1 2.9-10.7 1-3.5 2-7.1 3.1-10.6l1.6-5.3 1.6-5.3.8-2.6.9-2.6 1.7-5.2.1-.3v-.1q0-.1.1-.2s.1-.2.1-.3l.2-.3c.1-.2.3-.5.4-.8.2-.3.4-.6.5-.8.8-1.1 1.7-2.3 2.8-3.5 2.1-2.4 4.5-4.6 7.1-6.7.6-.5 1.3-1 2-1.5s1.4-.9 2-1.4l2.1-1.4c.7-.4 1.4-.9 2.1-1.3 2.9-1.6 5.8-3 8.9-4.1 3-1.1 6.1-1.9 9.3-2.3.7-.1 1.4-.1 2.1-.2l-.6.3c-2.1 1.1-4.1 2.3-6.1 3.3s-4 2-5.8 2.8l-.6.2c-2.7 1.1-4.2 4.2-3.4 7.1.9 3.1 4.2 4.9 7.3 3.9 2.6-.8 5-1.7 7.3-2.7s4.5-2 6.7-3c4.3-2 8.6-4 12.8-5.7s8.5-3.2 12.7-4.2c2.1-.5 4.2-.9 6.3-1.1 2.1-.3 4.2-.3 6.3-.3s4.1.3 6.1.7l1.5.3 1.5.4c.5.1 1 .3 1.4.5.5.2.9.3 1.5.5 4.1 1.6 8.3 3.7 12.4 5.8 8.2 4.3 16.3 9.1 24.3 14.1 7.9 5 15.7 10.3 23.3 15.8 3.8 2.8 7.5 5.6 11 8.6 3.6 2.9 7.1 6 10.3 9.1 1.6 1.6 3.1 3.2 4.5 4.8 1.4 1.6 2.6 3.3 3.5 4.8l.3.6c.1.2.2.4.2.5l.1.2.1.2.1.2.1.4.4 1.5c.1.5.3 1 .4 1.5l.3 1.6c.1.5.2 1 .3 1.6l.2 1.6c.1.5.2 1.1.2 1.6.4 4.3.4 8.8 0 13.2 0 .5-.1 1-.1 1.5l-2.3-.4-2.2-.4c-.7-.1-1.5-.2-2.2-.3l-4.4-.6-4.5-.5-2.2-.2-2.2-.2c-5.9-.6-11.9-.7-17.8-.9-5.9-.1-11.9 0-17.8.3s-11.8.8-17.7 1.4c-5.9.7-11.7 1.5-17.6 2.4-2.9.5-5.8 1-8.7 1.6-1.5.3-2.9.6-4.3.9-1.4.3-2.9.6-4.3 1-2.9.7-5.8 1.4-8.6 2.2-1.4.4-2.9.8-4.3 1.2-1.4.4-2.9.9-4.2 1.3-11 3.4-21.8 7-32.6 10.4s-21.5 6.5-32.4 9.1c-2.7.7-5.4 1.2-8.2 1.8-2.7.6-5.5 1.1-8.2 1.7-2.7.6-5.5 1-8.2 1.4-2.7.5-5.5.8-8.3 1.2-1.4.2-2.8.4-4.2.5l-4.2.4-4.2.5c-1.4.2-2.8.2-4.2.4l-4.2.3-2.1.2-2.1.1-8.4.5h-.4c-3.1.2-5.5 2.7-5.5 5.9s2.6 5.9 5.9 5.8c11.6 0 23.2-.6 34.8-1.7 11.6-1.1 23.1-2.9 34.4-5.3 11.4-2.4 22.6-5.3 33.6-8.5s22-6.5 32.9-9.7c21.4-6.2 43.7-9.5 66-10.3 18.7-.7 37.5.6 55.8 4.1.4.3.9.5 1.4.7.9.3 1.8.3 2.7.2 2.1.5 4.3.9 6.4 1.4 10.8 2.7 21.3 6.1 31.5 10.5 2.5 1.1 5.1 2.2 7.5 3.5l3.7 1.8 3.6 2c2.5 1.3 4.8 2.7 7.1 4.1.6.3 1.2.7 1.7 1.1l1.7 1.1c1.1.8 2.3 1.5 3.4 2.3l3.3 2.4c.6.4 1.1.8 1.6 1.3l1.6 1.3 1.6 1.3 1.5 1.4 1.5 1.4c.5.5 1 .9 1.4 1.4l2.8 2.9c.9 1 1.7 2 2.6 3l.6.8c.2.3.4.5.6.8l1.2 1.6c.4.5.8 1 1.2 1.6l1.1 1.6c2.8 4.4 5.1 9.1 6.6 14 1.2 5.8 2 10.8 1.9 15.9z"/>
    <path d="M71.7 184.8c-2.7.1-5.3.1-7.9-.1-2.5-.2-5-.6-7.1-1.4-1-.4-2-.8-2.8-1.4-.8-.5-1.4-1.2-1.9-1.9-1-1.5-1.3-3.7-1-6.1v-.1c.2-1.5-.7-2.9-2.2-3.4-1.6-.5-3.4.4-3.9 2.1-.5 1.6-.8 3.2-.8 5.1 0 1.8.2 3.7 1 5.6.3.9.8 1.8 1.4 2.6.6.8 1.2 1.6 1.8 2.2 1.3 1.4 2.8 2.4 4.4 3.3 3 1.7 6.2 2.7 9.2 3.5 3.1.8 6.1 1.3 9.1 1.7h1c3.2-.1 5.8-2.8 5.7-6.1-.1-3.2-2.8-5.7-6-5.6z"/>
    <path d="M452.6 247.8v.1c-.1 6.7-2.6 13.6-7.2 19.4-2.1 2.8-4.8 5.2-7.9 7.4-2.9 2-6.6 3.9-10.9 5.5-7.9 3-17.2 4.9-27.5 5.6-2.9.2-5.8.3-8.8.3-2 0-4 0-6-.1-3.2-15.5-9.3-29.5-18.1-41.5-3.1-6.2-6.8-11.9-11.1-17.1v-.1c-4.8-5.8-10.3-10.9-16.4-15.3-1.4-1-2.7-1.9-3.8-2.7l-.8-.5s-.9-.5-1.2-.7c-1.1-.7-2.2-1.4-3.6-2.1-3.4-2-6.8-3.6-9.3-4.8l-.1-.1c-6-2.7-12.5-5.1-19.3-7-6.1-1.7-12.4-3.1-19.3-4.2-6.2-1-12.6-1.8-19.1-2.2-3.8-.3-7.5-.5-11.2-.6 18.6-5.1 38.4-8 59-8.8 3-.1 6-.2 8.9-.2 14.3 0 28.3 1.2 41.7 3.7.6.2 1.2.5 1.8.6 1.9.6 3.9.9 5.9.9 1.5.3 2.8.6 4.1.9 10.4 2.6 20.2 5.9 29 9.7.8.4 1.5.7 2.3 1 1.6.7 3.1 1.4 4.5 2.1l.1.1 3.6 1.8 3.4 1.8.3.1c1.3.7 2.7 1.5 4.2 2.4.8.5 1.5.9 2.3 1.4l.2.1c.1.1.5.3.8.5l1.7 1.1c.4.3.8.6 1.2.8.5.3 1 .7 1.3.9l.2.1 3.6 2.7c.1.1.2.1.2.2.2.2.4.3.6.5l2.8 2.3s3.2 3 3.3 3l2.8 2.9c.4.4.7.9 1.2 1.4.3.4.7.8 1 1.2l.4.4c.1.1 1.4 1.8 1.4 1.8.2.2.4.5.5.7.1.1.1.2.2.3l1 1.5c2.2 3.4 3.8 6.9 4.9 10.4.8 3.4 1.3 6.9 1.2 10.4z" fill="#e2aa00"/>
    <path d="M217.8 336.4c-1.1-.3-2.7-.6-4.6-1 17.4-1.5 20.7-25.9 4.6-32.1 1.7.1 3.1.2 4.1.4 21.9 6.1 17.9 37.3-4.1 32.7z" fill="#ebebe3"/>
    <path d="M333.2 245.6c-5.7-6.8-13-12.3-21.1-16.5 21.1 30.7 28.4 71.7 16.3 111.8-20.4 67.4-87.8 106.7-150.6 87.7-20.2-6.1-37.4-17.4-50.8-32.3 13.6 16.4 31.4 29.4 52.7 37.1 65.5 23.8 138.5-11.7 163.1-79.4 12.6-34.6 10-71-4.3-101.4-1.7-2.3-3.4-4.7-5.3-7z" fill="#ebebe3"/>
    <path d="M271.1 74.4c24.4 28.5 64.4 39.6 64.4 39.6l-.4 17.6-33.7-5-30.4-21.5-7.8-19.3s4.5-10.7 7.9-11.4z" fill="#e2aa00"/>
    <path d="M264.3 103c1.6 2.4 3.4 4.6 5.3 6.7l1.5 1.5 1.5 1.4c.5.5 1 .9 1.5 1.4.5.4 1 .9 1.6 1.3l1.6 1.3c.5.4 1.1.8 1.6 1.2 1.1.8 2.2 1.5 3.3 2.3.6.4 1.1.7 1.6 1.1l1.6 1c1.1.7 2.2 1.3 3.3 2 4.4 2.6 9 5.1 13.8 7.3s9.7 4.1 15.1 5.5c2.7.6 5.5 1.1 8.6 1.2 1.6 0 3.2-.1 4.9-.5.9-.2 1.8-.5 2.7-.8.9-.4 1.8-.9 2.6-1.5 1.7-1.3 3-3.1 3.8-4.9.4-.9.6-1.8.8-2.7.1-.9.2-1.7.2-2.5 0-3.2-.7-6-1.6-8.6-.6-1.6-2.2-2.7-4-2.5-2 .3-3.4 2.1-3.2 4.1v.1c.3 2.3.4 4.5.1 6.3-.1.9-.4 1.6-.7 2.1-.3.5-.6.7-.9.8-.4.2-.9.3-1.7.4-.7.1-1.6 0-2.6 0-1.9-.2-4-.7-6.2-1.4-2.1-.7-4.3-1.5-6.5-2.5-2.2-.9-4.3-2-6.4-3-4.3-2.2-8.5-4.6-12.7-7.1-2.1-1.2-4.2-2.6-6.2-3.9-1-.6-2-1.3-2.9-2-1-.7-1.9-1.4-2.8-2-3.6-2.8-6.9-5.9-9.5-9.3s-4.4-7.1-5-11c-.1-1-.2-1.9-.2-2.9s.1-1.9.3-2.9c.2-.9.5-1.9.9-2.7.4-.9.8-1.7 1.3-2.3l.3-.4c.9-1.2.9-2.9 0-4.1-1.1-1.5-3.3-1.8-4.8-.7-2.7 2-4.5 4.7-5.7 7.6-.6 1.4-1 2.9-1.3 4.5-.3 1.5-.4 3.1-.4 4.6 0 3.1.6 6.1 1.6 8.9 1 2.6 2.3 5.2 3.9 7.6z"/>

</svg>