<?xml version="1.0" encoding="utf-8"?>
<!-- Generator: Adobe Illustrator 19.0.0, SVG Export Plug-In . SVG Version: 6.00 Build 0)  -->
<svg version="1.1" id="jack-emoji-devious" xmlns="http://www.w3.org/2000/svg" xmlns:xlink="http://www.w3.org/1999/xlink" x="0px" y="0px"
	 viewBox="0 0 500 500">
     
    <path d="M358.8 165.4c-7-5.7-14.5-10.7-22.5-14.8-6.7-3.4-13.7-6.5-21.1-8.9-3.2-1-5-4.5-4-7.7s4.5-4.9 7.7-3.9c3.6 1.2 6.5 2.4 10.6 3.8 10.2 3.4 19.2-3.8 19.5-15.2.9-14.8 2.5-41.1 2.9-45.7.6-5.3-.2-10.4-5.9-11.5-3.9-.7-6.5 2.1-9 4.8-20.5 22-43.5 47-60.3 65.2l-3.1-.4c-15.1-1.7-37-.3-38.9 6.9-2.8 10.3-4.6 26.8-5.4 36.7 6.7-.9 13.5-1.3 20.5-1.3 30.9 0 59.6 9 83.8 24.6 7 3.7 15.8 5.8 26.4-6.2 4.1-4.6 6-9.7 5.6-14.6-.3-4.6-2.8-8.8-6.8-11.8z" fill="#f6be00"/>
    <path d="M352 73c-.4 4.6-2 30.9-2.9 45.7-.3 11.3-9.3 18.5-19.5 15.2-1.9-.6-9.1-3.2-10.6-3.8 4.1 1.5 12.8 0 14.2-9.5l3.8-40.9c.4-4.8-5.5-7.4-8.8-3.9 3-3.3 6-6.5 9-9.7 2.5-2.7 5.1-5.5 9-4.8 5.6 1.2 6.4 6.4 5.8 11.7zM360 191.5c-10.6 12-19.5 10-26.5 6.3-4.3-2.8-8.8-5.4-13.4-7.7l4.1-.6c5.2-.8 9.9-3.7 13-8l5.7-8.1c3.7-5.2 4.5-11.9 2.4-17.8 4.7 2.9 9.2 6.2 13.5 9.7 4 3 6.5 7.2 6.9 11.7.3 4.8-1.6 9.8-5.7 14.5z" fill="#dbac27"/>
    <path d="M421 328.4v-6.6c-1.1-29.9-9.8-57.8-24.3-81.8l14.5-17.3c6.7-8 10.1-18.4 9.2-28.5-.6-7.3-3.3-14.2-7.8-20-2.1-2.7-4.9-5.7-8.7-9.4-2.1-2-6.2-6.1-13.3-12l7.2-124.7c.3-5.1-.7-10.2-3-14.6-3-5.8-8-10-15-12.4l-.4-.1h-.5c-2.2-.6-4.5-1-6.8-1-4.8 0-12 1.4-19 8.2-5.5 5.3-68.8 73.8-87.4 94-1.9-.1-3.7-.1-5.4-.1-16.4 0-29.5 3.4-38.9 10.2-9.1 6.5-12.3 14.2-13.3 18.3-2.6 9.7-4.4 22.9-5.5 33.1C141.2 181.4 94 232.7 82 296.5c0 .2-.1.4-.1.6-.1.8-.3 1.6-.4 2.4-1.6 9.5-2.5 19.3-2.5 29.1 0 45.8 17.8 88.8 50.1 121.1C161.4 482.2 204.3 500 250 500h4.3c.6 0 1.2 0 1.8-.1.8 0 1.7-.1 2.5-.1.5 0 1.1-.1 1.6-.1.9-.1 1.8-.1 2.8-.2.4 0 .8-.1 1.2-.1 1.1-.1 2.1-.2 3.2-.3.2 0 .4 0 .6-.1 1.3-.1 2.5-.3 3.8-.4 37.4-4.7 72-21.7 99.1-48.8 32.3-32.4 50.1-75.4 50.1-121.1v-.3q0 .1 0 0zM250 484.2c-85.7 0-155.2-69.6-155.2-155.6 0-46.5 20.3-88.2 52.6-116.7 5.9-5 13.2 3.5 7.4 8.6-17.3 15.4-31.3 35.4-39.8 58.9-26.7 73.5 9.4 154 80.5 179.8C266.7 485 346 446.4 372.7 373c26.7-73.5-9.4-154-80.5-179.8-33.8-12.3-69.4-10-100.3 3.6-7.1 3.1-11.7-7.1-4.7-10.4 9.5-4.2 19.6-7.5 30-9.8.7-9.5 2.6-29.5 6-42 .9-3.5 7.6-20.1 48.9-16.1 13.6-14.8 86.6-93.7 92-98.9 4.2-4.1 8-4.1 10.5-3.4 3.3 1.1 5 2.6 6.1 4.6 1 2 1.4 4.3 1.3 6.5l-7.6 132.9c10.3 8 15.7 13.3 18.5 16.1 2.9 2.8 5.5 5.5 7.3 7.7 2.9 3.8 4.2 7.8 4.6 11.6.5 6.2-1.6 12.3-5.6 17L376.9 239c17.9 25.3 28.4 56.3 28.4 89.7-.1 85.9-69.6 155.5-155.3 155.5z" fill="#fff"/>
    <path d="M195.4 459.2c71.2 25.9 150.6-12.8 177.3-86.3s-9.4-154.1-80.6-179.9c-9.2-3.4-18.6-5.6-28-6.9 3.1.7 6.3 1.5 9.4 2.4 68.3 20.6 105.7 96.7 83.6 170s-95.4 116-163.7 95.4c-21.9-6.6-40.6-19-55.3-35.1 14.8 17.8 34.2 32 57.3 40.4z" fill="#ebebe3"/>
    <path d="M236.9 368.2c-1.2-.3-2.9-.7-5-1.1 18.9-1.7 22.5-28.1 5-34.9 1.9.1 3.4.2 4.5.5 23.8 6.7 19.5 40.5-4.5 35.5z" fill="#ebebe3"/>
    <path d="M376.8 239.2l22.2-26.4c4-4.7 6.1-10.8 5.6-17-.3-3.8-1.6-7.9-4.5-11.6-1.8-2.3-4.3-4.9-7.3-7.7-2.8-2.8-8.3-8.1-18.5-16.1l7.6-132.8c.1-2.3-.3-4.5-1.3-6.5s-2.8-3.5-6.1-4.6c-2.4-.7-6.3-.7-10.5 3.4-5.4 5.2-78.3 84.1-91.9 98.9-41.3-3.9-48 12.7-48.9 16.1-3.4 12.5-5.3 32.5-6 42-10.4 2.2-20.5 5.6-30 9.8-7 3.3-2.5 13.4 4.7 10.4 30.9-13.6 66.5-15.8 100.2-3.6 71.1 25.8 107.2 106.3 80.5 179.7s-106 112-177.1 86.2C124.4 433.5 88.4 353.1 115 279.6c8.5-23.5 22.5-43.4 39.8-58.8 5.8-5.1-1.5-13.5-7.4-8.6-32.2 28.5-52.5 70.2-52.5 116.6 0 85.9 69.5 155.5 155.1 155.5s155.1-69.6 155.1-155.5c0-33.3-10.5-64.2-28.3-89.6zm-16.6-47.5c-10.6 12-19.5 10-26.4 6.2-24.2-15.6-52.9-24.6-83.8-24.6-6.9 0-13.8.5-20.5 1.3.8-9.9 2.6-26.4 5.4-36.7 1.9-7.2 23.8-8.6 38.9-6.9l3.1.4c16.8-18.2 39.8-43.1 60.3-65.2 2.5-2.7 5.1-5.4 9-4.8 5.7 1.1 6.5 6.2 5.9 11.5-.4 4.6-2 30.9-2.9 45.7-.3 11.3-9.3 18.5-19.5 15.2-4.1-1.4-7-2.6-10.6-3.8-3.2-1-6.6.7-7.6 3.9s.7 6.6 3.9 7.6c7.4 2.4 14.5 5.5 21.1 8.9 8 4.1 15.5 9.1 22.5 14.8 4 3 6.5 7.2 6.9 11.7.3 5.1-1.7 10.2-5.7 14.8z"/>
    <path d="M232.5 331.4c-9.9-1.2-60.9 11.3-62.1 21.3-1.2 9.9 47.7 13.5 57.6 14.7 24 2.1 28.3-32.2 4.5-36z"/><path d="M155.8 278.5c-3.1-.6-6.2 1.4-7.1 4.6-1.8 6.5-1.7 13.4.5 19.5 3.7 10 10.8 16.4 20.2 18.1 13.9 2.5 28.7-6.5 34.3-20.9.9-2.2 1.6-4.5 2.1-6.8.6-3-1.4-5.9-4.4-6.5l-45.6-8zM261 285.9c-2.9.3-5.1 2.7-5.3 5.6-.1 2.3 0 4.8.4 7.4 2.1 14.5 13.1 29.5 32.4 28.1h.1c8.4-.9 15.6-5.6 20.3-13.2 5.2-8.2 6.2-18.5 3-28.1-1-3-4-5-7.2-4.6l-43.7 4.8z" fill="#407ec9"/>
    <path d="M347.9 286.1c-1.7.5-3.6.9-5.4 1-5.9.4-11.8-1.6-16.7-5.8-4.8-4.1-7.8-10.5-8-17 0-1.3 0-2.6.2-3.8-3.3.6-6.6.6-9.9-.2-.7-.2-1.3-.4-2-.6l-1.8-.7c-.4-.2-.8-.3-1.2-.5-5.4-2.6-9.6-7.4-11.7-13.5-2.1-5.9-1.5-12.8 1.6-18.5 2.9-5.4 7.9-9.6 13.5-11.2.7-.2 1.3-.4 2-.5 2.4-.5 4.8-1 7.1-1.8 2.7-.8 5.5-1.8 8.2-3 5.4-2.5 10.5-5.7 15.1-9.5 4-3.4 7.6-7.3 10.7-11.4 1.3-2.1 2.9-3.9 4.8-5.4 2.3-2 5-3.5 7.9-4.4.3-.1.5-.2.8-.2h.1c3.6-.9 7.2-1 10.9-.3 4.8.9 9.3 3.6 12.7 7.5 2.4 2.6 4.1 5.7 5 9.2l.3 1.5.3 2c.2 1.1.2 2.2.2 3.3-.3 6.8-1.2 13.4-2.6 19.6-2.4 11-6.4 21.6-11.9 31.5-5.6 10.1-12.4 19.1-20.4 26.8-2.8 2.8-6.1 4.8-9.8 5.9z" fill="#fff"/>
            <path d="M331.43 354.48c-5.54-1.14-10.52.81-13.55 4.92l.36.22-.37-.21a75.12 75.12 0 01-5.94 10.2c-7.94 11.44-16.86 21.48-29.29 26.23-1.51.58-2.81.94-3.92 2.04-3.03 3.28-4.07 7.77-2.88 12.72 1.22 5.04 4.91 7.3 9.54 8.55 1.78.48 6.74-1.95 8.81-3.05 10.69-5.66 20.91-12.75 28.89-21.77 13.17-14.88 15.83-22.53 17.11-29.21 1-5.23-3.35-9.54-8.78-10.65z"/>

    
    <g>
        <path d="M294.83 410.8c5.92 1.65 10.71-2.04 12.29-3.26.81-.63 1.55-1.26 2.13-1.77.11-.09.21-.18.3-.27.09-.07.19-.14.28-.21.8-.62 1.51-1.23 2.08-1.72h.01c1.32-1.15 2.68-2.89 3.82-4.9.95-1.67 1.68-3.48 2.19-5.37 2.15-.27 4.18-1.1 6.04-2.48.08-.06.15-.11.22-.16.63-.48 1.24-1.02 1.82-1.61.23-.15.43-.29.63-.44.1-.08.2-.15.3-.22 6.64-5.12 7.33-11.59 7.45-17.26.1-4.87-2.46-11.83-6.85-18.63-2.82-4.37-8.83-12.31-17.38-16.43-4.3-2.07-8.63-2.89-12.88-2.44-4.25.45-8.33 2.16-12.13 5.09-.3.23-.6.47-.89.71-.38.31-.75.65-1.18 1.06-.23.17-.47.34-.7.52-.26.2-.53.42-.79.63-5.17 4.29-7.98 10.22-8.13 17.17-.13 6.07 1.81 12.39 5.46 17.78 4.72 6.99 6.74 12.81 6.35 18.32-.68 9.58 4.72 14.54 9.56 15.89z"/>
        <path d="M298.9 403.53c3.7 1.03 6.98-1.7 9.59-3.94.81-.7 1.78-1.91 2.68-3.5.1-.19.21-.37.3-.56 2.09-4.03 2.31-8.76.87-13.06-1.51-4.51-4.51-11.52-10.32-19.9-.57-.82-.39-1.93.39-2.53.14-.11.29-.2.53-.26.86-.23 1.76.14 2.27.87 6.28 9.1 9.39 16.61 10.91 21.35.98 3.08 4.7 4.36 7.32 2.46l.07-.05c4.92-3.65 5.51-8.04 5.63-13.38.24-11.16-21.16-44.48-41.53-27.56-8.64 7.18-7.53 19.31-1.67 27.98 5.86 8.67 7.67 15.53 7.23 21.63-.44 6.1 2.42 9.54 5.73 10.47z" fill="#e31937"/>
    </g>    

    <path d="M144.3 260.7c-2.1 0-4.2-.3-6.2-.8-5.8-1.6-10.9-5.5-14-10.7-3.2-5.4-5.7-11.3-7.4-17.6-5.4-19.9-2.6-39.7.8-58.2 1.1-6 4.8-11.3 10.5-15 3.5-2.3 7.8-3.5 12.2-3.5 1.1 0 2.2.1 3.3.2 4.9.7 9.2 2.7 12.9 6.1l.1.1c2.4 2.2 4.2 4.9 5.4 7.8 1 2.3 1.6 4.7 1.8 7.2.5 2.9 1.3 5.7 2.4 8.5 1.4 3.1 3.1 6.1 5.2 8.9 2.1 2.6 4.5 5 7.1 7.2 2.7 2 5.6 3.7 8.6 4.9 5.7 2.4 10.1 7.6 12.3 14.2 1.9 5.9 1.2 12.3-1.8 18.1-2.8 5.3-8.1 9.5-14 11.3-2 .6-4.1.9-6.2.9-1.1 0-2.3-.1-3.4-.3-2.7-.3-5.4-1.1-7.8-2.4l-.6-.3c-1.9 3.9-4.9 7.3-8.8 9.8-3.5 2.3-7.8 3.6-12.4 3.6z" fill="#fff"/>
    <path d="M187.3 222.5c-2-.7-4-1.3-6.1-1.7-.2-.2-.5-.3-.7-.4-4.3-1.8-8.3-4.2-12-6.9-3.7-3-7-6.3-10-10-2.9-3.9-5.3-8-7.3-12.4-1.7-4.2-2.9-8.5-3.6-13 0-1-.2-1.9-.6-2.7-.3-.9-.8-1.8-1.6-2.4-1.3-1.2-2.7-1.9-4.4-2.1-1.6-.2-3.4 0-4.8.9-1.6 1-3.1 2.6-3.5 4.5-3.1 16.8-5.7 34.5-1.1 51.2 1.3 4.8 3.2 9.5 5.8 13.7.1.2.3.5.5.7-.9 1.7-1.7 3.4-2.3 5.2-1.4 3.8.6 8 4.3 9.4.8.3 1.7.4 2.5.4 3 0 5.8-1.8 6.8-4.8 2.4-6.7 7.3-12 13.5-15s13.2-3.3 19.5-1c3.8 1.4 8-.6 9.4-4.3 1.5-3.7-.5-7.9-4.3-9.3zm-39 6.7c0-.1-.1-.2-.2-.3-1.6-3.9-2.6-8-3.2-12.2-.3-2.3-.4-4.6-.5-6.9 1.7 2.5 3.6 4.8 5.6 7 2.2 2.5 4.6 4.8 7.2 6.9-.2.1-.5.2-.7.3-3 1.5-5.7 3.2-8.2 5.2zM376 199.1c-.3-1-.8-1.9-1.5-2.6-1-1.2-2.4-2.3-4-2.6-1.3-.3-2.7-.2-4 .1-1 .3-1.9.8-2.6 1.5-.8.5-1.3 1.2-1.8 2-4 5.4-8.7 10.4-13.8 14.8-5.7 4.6-12 8.6-18.7 11.7-6.1 2.7-12.4 4.6-18.9 5.9-.4.1-.8.2-1.2.4-2.9-.3-5.8-.4-8.8-.2-4 .3-7 3.8-6.7 7.8s3.8 7 7.8 6.7c16.1-1.2 30.2 10.5 31.3 26.1.3 3.8 3.5 6.8 7.3 6.8h.5c4-.3 7-3.8 6.7-7.8-.1-.8-.2-1.7-.3-2.5 6.4-6.5 11.9-13.9 16.3-21.8 4.7-8.5 8.2-17.7 10.3-27.2 1.2-5.6 1.9-11.3 2.2-17 .1-.7 0-1.4-.1-2.1zm-20.4 28c-2.7 6.9-6.3 13.5-10.6 19.6-1.1 1.5-2.2 2.9-3.3 4.3-2.7-4.4-6.1-8.2-10.1-11.4 3.5-1.4 6.9-3 10.3-4.8 5-2.7 9.9-5.9 14.3-9.4-.2.5-.4 1.1-.6 1.7z"/>
    <path d="M355.6 227.1c-2.7 6.9-6.3 13.5-10.6 19.6-1.1 1.5-2.2 2.9-3.3 4.3-2.7-4.4-6.1-8.2-10.1-11.4 3.5-1.4 6.9-3 10.3-4.8 5-2.7 9.9-5.9 14.3-9.4-.2.5-.4 1.1-.6 1.7z" fill="#e31937"/>
    <path d="M115 279.5c8.5-23.5 22.5-43.4 39.8-58.8 5.8-5.1-1.5-13.5-7.4-8.6-32.2 28.5-52.5 70.2-52.5 116.6"/>
    <path d="M148.3 229.2c0-.1-.1-.2-.2-.3-1.6-3.9-2.6-8-3.2-12.2-.3-2.3-.4-4.6-.5-6.9 1.7 2.5 3.6 4.8 5.6 7 2.2 2.5 4.6 4.8 7.2 6.9-.2.1-.5.2-.7.3-3 1.5-5.7 3.2-8.2 5.2z" fill="#e31937"/>
</svg>