<?xml version="1.0" encoding="utf-8"?>
<!-- Generator: Adobe Illustrator 19.0.0, SVG Export Plug-In . SVG Version: 6.00 Build 0)  -->
<svg version="1.1" id="32-tb-profile" xmlns="http://www.w3.org/2000/svg" xmlns:xlink="http://www.w3.org/1999/xlink" x="0px" y="0px"
	 viewBox="0 -1 35 35">
     <g fill="#edede6">
	 <path d="M18.62 12.18c-.62-.23-1.26-.38-1.89-.46.21.05.42.1.64.16 4.61 1.39 7.14 6.53 5.64 11.47-1.49 4.95-6.44 7.83-11.05 6.44a8.257 8.257 0 01-3.73-2.37c1 1.2 2.31 2.16 3.87 2.72 4.81 1.75 10.16-.86 11.96-5.82 1.8-4.96-.63-10.4-5.44-12.14zM22.47 7.13c.06-1 .17-2.78.2-3.09.04-.36-.01-.71-.4-.78-.26-.05-.44.14-.61.32-.2.21-.4.43-.6.65.22-.24.62-.06.59.26l-.26 2.76c-.09.64-.68.74-.96.64.1.04.59.21.72.26.69.23 1.29-.26 1.32-1.02zM22.06 10.83l-.38.54c-.21.29-.52.49-.88.54l-.28.04c.31.16.61.33.91.52.47.25 1.07.39 1.79-.42.27-.31.41-.65.38-.99-.02-.3-.19-.59-.46-.79-.29-.24-.59-.46-.91-.66.15.4.09.85-.16 1.2z"/>
	 <path d="M14.56 22.95c.14.03.26.06.34.08 1.62.33 1.91-1.95.3-2.4-.07-.02-.17-.03-.3-.03 1.18.45.94 2.24-.34 2.35z"/>
	 </g>
	 <path d="M9.36 18.79c.3.51.76.79 1.29.79.79 0 1.52-.63 1.69-1.46.12-.48.02-1.01-.26-1.42-.23-.34-.56-.56-.94-.63-.1-.02-.2-.03-.3-.03-.57 0-1.08.31-1.41.84-.37.61-.4 1.36-.07 1.92zM18.46 20.09c.51 0 .98-.23 1.31-.66.48-.6.55-1.47.17-2.22-.32-.63-.9-1.01-1.53-1.01h-.1c-.84.08-1.67.72-1.63 1.98.03.89.6 1.87 1.78 1.91z"/>
	 <path d="M24.35 15.26l1.5-1.79c.27-.32.41-.73.38-1.15a1.46 1.46 0 00-.31-.79 5.49 5.49 0 00-.49-.52c-.19-.19-.56-.55-1.25-1.09L24.7.94a.94.94 0 00-.09-.44c-.07-.13-.19-.24-.41-.31-.16-.05-.42-.05-.71.23-.37.35-5.29 5.69-6.22 6.69-2.79-.27-3.25.86-3.31 1.09-.23.85-.36 2.2-.41 2.84-.71.15-1.38.38-2.03.66-.47.22-.17.91.32.7 2.09-.92 4.5-1.07 6.78-.24 4.81 1.75 7.25 7.19 5.44 12.16-1.8 4.97-7.17 7.58-11.98 5.83-4.81-1.75-7.25-7.19-5.44-12.16a9.8 9.8 0 012.69-3.98c.39-.35-.1-.92-.5-.58a10.506 10.506 0 00-3.55 7.89c0 5.81 4.7 10.51 10.49 10.51s10.49-4.71 10.49-10.51c0-2.26-.71-4.35-1.92-6.06zm-1.12-3.21c-.72.81-1.32.67-1.79.42a10.435 10.435 0 00-5.66-1.66c-.47 0-.93.03-1.38.09.06-.67.18-1.79.37-2.48.13-.49 1.61-.58 2.63-.47l.21.03c1.14-1.23 2.69-2.92 4.08-4.41.17-.18.35-.37.61-.32.39.07.44.42.4.78-.02.31-.13 2.09-.2 3.09-.02.77-.63 1.25-1.32 1.03-.28-.1-.48-.18-.72-.26a.414.414 0 00-.52.26c-.07.22.05.45.27.52a9.067 9.067 0 012.95 1.6c.27.21.44.49.47.79.03.33-.11.67-.38.99z"/>
	 <path d="M9.46 23.62c-.53-.93-1.93-.03-1.37.85 1.45 2.46 4.23 4.03 6.98 4.02 3.06.02 5.81-2.1 7.02-5.19.37-.97-1.04-1.4-1.47-.57-.32.68-.6 1.19-1.03 1.74-2.65 3.62-7.97 2.78-10.13-.85z"/>
	 <path d="M14.59 20.52c-.67-.08-4.11.77-4.2 1.44-.08.67 3.22.91 3.89 1 1.62.14 1.91-2.17.3-2.43z"/>
	 </svg>