<?xml version="1.0" encoding="utf-8"?>
<!-- Generator: Adobe Illustrator 19.0.0, SVG Export Plug-In . SVG Version: 6.00 Build 0)  -->
<svg version="1.1" id="jack-emoji-spicy" xmlns="http://www.w3.org/2000/svg" xmlns:xlink="http://www.w3.org/1999/xlink" x="0px" y="0px"
	 viewBox="0 0 500 500">
<path d="M390.9 430.6c-9.3 9.3-19.7 17.3-31.1 23.9-2.1 1.2-4.2 2.3-6.3 3.4-.9.5-1.8.9-2.8 1.4l-7.2 3.3c-2.4 1-4.9 2-7.4 2.9-2 .7-4 1.4-6.1 2-2.3.7-4.7 1.4-7 2l-3.6.9c-2.7.6-5.4 1.2-8.2 1.7-2 .4-4.1.7-6.2.9-2.1.2-4.2.5-6.3.7-1.1.1-2.1.2-3.2.2-3.2.2-6.4.3-9.7.3-2.2 0-4.4 0-6.6-.1l-3.2-.2c-.9-.1-1.8-.1-2.7-.2-1.4-.1-2.7-.2-4-.4-3.1-.4-6.2-.8-9.3-1.3-1.1-.2-2.1-.4-3.1-.6s-1.8-.4-2.7-.6c-.3 0-.6-.1-.9-.2-.9-.2-1.8-.4-2.6-.6-1-.2-2-.5-3.1-.8-3.6-1-7.2-2-10.6-3.2-.7-.2-1.4-.5-2.1-.7-1.4-.5-2.8-1-4.2-1.6l-2.1-.9c-5.9-2.5-11.6-5.3-17.2-8.5-.9-.5-1.8-1-2.6-1.6-.6-.4-1.3-.8-1.8-1.2l-1.7-1.1c-2.6-1.7-5.1-3.4-7.6-5.3-.8-.6-1.7-1.2-2.4-1.8-.8-.6-1.6-1.3-2.4-1.9-.3.4-.6.8-.9 1.1-4.6 5.6-10.6 6.4-17.7 7.1-4.2.4-11.3-.1-16.6-5.2-10.8-10.3-24-15.7-36.3-4.2-3.9 3.7-8.8 6.6-14.2 6.4-8-.4-10.6-6.5-11.7-13-.9-5.3-1.1-12.4-5.9-15.9-4.1-3-8.3-.5-12.9 0-6.7.7-7.4-2.8-9.2-8.2-2-6-4.9-7.7-11.8-7.9-7.9-.2-11 1.1-17-4.7-1.4-1.4-2.7-3-3.7-4.7-1.6-2.9 2.1-6.1 4.7-3.9 2.6 2.2 5.8 3.2 10.1 1.5 6.9-2.6 13.6-16.3 21.8-9.8 4 3.2 4.7 8.9 8.7 12.6s8 5.2 13.1 2.3c8.3-4.8 3.3-13.6-3.7-15.5-3-.7-5.9-1.6-8.7-2.6-2.4-.9-1.7-4.3.8-4.5h.2c5.7-.6 10-6.5 15.6-7.9 6.2-1.5 10.2.6 14.6 4.8 2.4 2.2 7.8 8.7 11.5 7.5 9.3-2.8-.9-16.9-4.8-19-9.2-5-18.3-4.3-25.5-12.9-5.3-6.3-2.4-15.2-8.8-21.5C74.6 313 57 318 44.5 313c-7.8-3.1-11.5-9.9-12.6-18.1-.9-6.7 1.3-11.3-3-17.5-3.5-4.9-8.6-7.1-13.1-9.4-3-1.6-1.7-6.2 1.7-5.8 5.3.5 11.4-.2 16.2 1.3 14.2 4.3 12.6 24 23.8 31.9 8 5.7 20.6.2 29.6 1 9.7.8 16.6 5.9 23.4 12.4 5.9 5.7 7.7 9.7 16 9.5 3.9-.2 7.7.9 10.9 3.1v-.3c.1-3 .3-6 .5-9l.3-3.3c.1-1.4.3-2.7.5-4l.6-3.9c0-.1 0-.3.1-.4.2-1.2.4-2.5.7-3.7.2-1.2.5-2.6.8-3.9l.9-3.9c.3-1.3.7-2.6 1-3.8.4-1.3.7-2.6 1.1-3.8.4-1.2.8-2.5 1.2-3.8s.8-2.3 1.2-3.4c.1-.3.2-.5.3-.8.3-.9.7-1.8 1.1-2.8l.4-.9c.4-.9.8-1.9 1.2-2.8.1-.2.2-.4.2-.6.5-1.1.9-2.1 1.4-3.2.1-.1.1-.2.2-.4.5-1.1 1.1-2.3 1.6-3.3.6-1.1 1.1-2.3 1.8-3.5.6-1.2 1.2-2.3 1.8-3.4.6-1.1 1.3-2.2 1.9-3.4 1.3-2.2 2.7-4.4 4.1-6.6 1.4-2.1 2.9-4.3 4.5-6.3.8-1 1.6-2 2.4-3.1 1.6-2 3.2-4 4.9-5.9.8-1 1.7-1.9 2.6-2.9l1.8-2c1.2-1.2 2.3-2.4 3.5-3.6.9-.9 1.8-1.8 2.8-2.7.9-.9 1.9-1.7 2.9-2.6.3-.2.6-.5.9-.7.4-.2.9-.4 1.4-.6.5-.1 1-.2 1.5-.2.4 0 .7 0 1.1.1.3.1.7.2 1 .3.2.1.3.1.5.2.1.1.3.2.4.3.3.2.5.4.8.7 2.1 2 2.2 5.4.1 7.5l-.5.5c-10.6 9.4-19.6 20.4-26.8 32.5-.6.9-1.1 1.8-1.6 2.8-1.6 2.8-3.1 5.8-4.5 8.7-1.9 4-3.6 8.1-5.1 12.3-1.8 4.8-3.3 9.8-4.5 14.8-.7 2.9-1.4 5.9-1.8 8.9-.4 2.5-.8 4.9-1.1 7.4-.1.5-.1 1.1-.2 1.6-.1.4-.1.8-.1 1.3l-.3 3.6c-.1.7-.1 1.3-.1 2-.3 5-.3 10 0 15 .9 1.1 1.8 2.1 2.8 3 3.7 3.7 7 6.3 12.6 6.7 4 .3 6.4-.8 9.6 1.7 3.2 2.6 3 7.1 5.5 10.1 5.9 7 15.8-.1 23.1 2.6 6.1 2.2 9.8 8.6 13.5 13 4.1 5 10.2 7.9 16.7 7.9 5.3-11.1 15.7-19.7 31.3-21.1 34.7-2 53.4 42.7 32.1 68.6-6.9 8.9-17.6 14.2-28.9 14.2-13.1-.4-23-6.1-29.5-14.4-7.8 2.3-14.3-2.4-22.5-2.4-7.6 0-11.8 4-15.2 8.9.2.1.3.3.5.4 2.3 1.7 4.6 3.4 7.1 5l.5.4c1.2.8 2.5 1.6 3.8 2.4 1.4.8 2.8 1.7 4.2 2.4.7.4 1.5.8 2.2 1.2.8.4 1.4.7 2.1 1.1 8.3 4.2 16.9 7.4 25.9 9.7 1.4.4 2.7.7 4.1 1 1.8.4 3.6.8 5.4 1.1 1.8.3 3.7.6 5.4.8.9.1 1.8.2 2.8.3 1.8.2 3.6.4 5.4.5 6.1.4 12.1.3 18.2-.1 1.5-.1 3-.3 4.5-.4 1.7-.2 3.3-.4 5-.7.9-.1 1.8-.3 2.8-.5.3 0 .6-.1.8-.2 6.5-1.2 12.9-2.8 19.1-5 2.4-.8 4.7-1.7 7.1-2.6.8-.3 1.6-.6 2.3-1s1.5-.7 2.3-1c1.5-.7 3-1.4 4.6-2.2.8-.4 1.5-.8 2.3-1.2 2.2-1.1 4.4-2.4 6.6-3.7 1.5-.9 2.9-1.8 4.3-2.7 2.8-1.8 5.6-3.8 8.3-5.9 1.4-1 2.7-2.1 4-3.2l3.9-3.3c1.3-1.1 2.6-2.3 3.8-3.5l2.8-2.8c.9-.9 1.8-1.8 2.7-2.8 1.2-1.2 2.3-2.5 3.5-3.8 2.3-2.6 4.5-5.3 6.5-8.1 1-1.3 1.9-2.6 2.9-4 1.6-2.4 3.2-4.8 4.7-7.3.8-1.3 1.5-2.5 2.2-3.8 1.4-2.6 2.8-5.2 4-7.8.5-1 .9-2 1.4-3.1 1.4-3 2.6-6.2 3.8-9.4 1.4-3.7 2.5-7.4 3.5-11.1.3-1.2.7-2.5.9-3.7.5-2 .9-3.9 1.3-5.9l.6-3c.4-2 .7-4 .9-5.9v-.1c.3-2 .5-3.9.6-5.9.2-2 .3-3.9.4-5.9 1.4-31.8-8.4-63.1-27.8-88.4-1.3-1.7-2.6-3.3-4-4.9-5.4-6.3-11.4-12.1-17.9-17.3-1.3-1.1-2.6-2.1-4-3.1-2-1.5-4.1-2.9-6.2-4.3-2.1-1.4-4.3-2.7-6.6-3.9-.7-.4-1.5-.8-2.2-1.2-2.7-1.4-5.3-2.8-8.1-4-2.8-1.2-5.6-2.4-8.5-3.4l-2.7-.9c-1.4-.5-2.7-.9-4.1-1.3s-2.7-.8-4.1-1.1c-.9-.2-1.8-.5-2.7-.7-1.8-.4-3.6-.8-5.5-1.2-1.8-.4-3.7-.7-5.4-.9-6.3-1-12.7-1.4-19.1-1.4h-3c-1 0-2.1 0-3.1.1s-1.8.1-2.8.2-2 .1-3 .2-1.8.2-2.8.3c-.9.1-2.1.2-3.1.4-.6.1-1.1.2-1.7.2-.4.1-.8.1-1.2.2-1 .2-1.9.3-2.9.5l-3.3.7c-2.2.5-4.4 1-6.6 1.6-3.2.9-6.4 1.8-9.7 3-1.6.6-3.2 1.2-4.7 1.8s-3.1 1.2-4.7 1.9c-.4.2-.8.3-1.3.4-1 .2-2 .2-2.9-.2-.3-.1-.5-.2-.8-.4-.1 0-.2-.1-.3-.2-.2-.1-.5-.3-.7-.5l-.4-.4c-1.9-2-2-5.1-.2-7.2l.6-.6c.2-.2.4-.4.7-.5.3-.2.5-.3.8-.4 1.7-.8 3.4-1.5 5.2-2.2s3.5-1.4 5.3-2l3.6-1.2c2.4-.8 4.8-1.5 7.3-2.2 2.4-.7 4.9-1.2 7.4-1.8.7-9.1 2.5-28.2 5.8-40.2.1-.2.1-.4.2-.7s.2-.5.3-.8c.2-.6.5-1.1.8-1.6.4-.6.8-1.3 1.3-1.8.4-.4.7-.9 1.1-1.3l1.4-1.4c.5-.5 1.1-.9 1.7-1.4l1-.7c.7-.4 1.4-.9 2.2-1.3 1.8-.9 3.7-1.7 5.7-2.3 2.4-.8 4.9-1.3 7.4-1.7 1.4-.2 2.8-.4 4.4-.6 6.4-.5 12.7-.4 19.1.3l.7-.7c.5-.5 1-1.1 1.5-1.7.6-.6 1.2-1.3 1.8-2l1.4-1.7c.8-.8 1.5-1.7 2.4-2.6 1.2-1.4 2.6-2.8 4-4.3l4.5-4.9c.7-.8 1.4-1.5 2.1-2.3 1.1-1.1 2.1-2.3 3.3-3.5 2.1-2.3 4.4-4.7 6.6-7.2 1.7-1.8 3.5-3.7 5.2-5.6 1.8-2 3.6-3.8 5.3-5.8 2.2-2.4 4.5-4.8 6.7-7.3 2.1-2.3 4.2-4.5 6.3-6.8 1.4-1.5 2.8-2.9 4.1-4.4 2-2.2 4-4.3 6-6.4l3-3.3c1.1-1.1 2.1-2.3 3.1-3.3 1-1.1 2-2.1 3-3.2 1.5-1.6 2.8-3 4.1-4.4.9-.9 1.8-1.8 2.6-2.8.4-.4.8-.9 1.2-1.3l1.5-1.5c.3-.3.5-.6.8-.9.5-.6 1-1.1 1.5-1.6.9-1 1.8-1.8 2.5-2.6l1-1.1c.4-.4.7-.8 1-1.1l.7-.7c.8-.8 1.7-1.5 2.6-2 .6-.4 1.3-.7 2-.9l.5-.2c.4-.1.9-.2 1.4-.3 1.2-.2 2.5-.1 3.7.2 1.9.5 3.6 1.6 4.9 3.1.2.2.3.4.5.7.1.2.3.5.4.7.2.4.4.8.6 1.3.2.4.3.9.4 1.3.1.5.2.9.2 1.4 0 .2 0 .5.1.7s0 .4 0 .7v.9L404.8 164c4.3 3.3 7.7 6.2 10.4 8.6.9.8 1.7 1.5 2.4 2.1l2 1.8c.4.4.8.7 1.1 1.1l1.3 1.2.5.5c2.5 2.3 4.8 4.8 6.9 7.4.1.2.3.4.4.6.5.7 1 1.4 1.4 2.2.5.9 1 1.9 1.3 2.8.3.9.6 1.9.8 2.8.2.9.3 1.8.4 2.8.2 2.2 0 4.5-.5 6.7-.2.6-.3 1.2-.5 1.8-.3.9-.7 1.9-1.1 2.8-.6 1.2-1.3 2.3-2 3.4-.4.5-.8 1.1-1.2 1.6l-21.3 25.3c8.1 11.5 14.5 24 19.1 37.3l.9 2.7.6 1.8c.4 1.4.9 2.9 1.3 4.3.4 1.5.7 2.8 1.1 4.1.1.4.2.9.3 1.3.4 1.5.7 2.9 1 4.4 10 49.1-5.2 99.7-40.5 135.2z"/>
<path d="M396.2 177.2c0-.1-.1-.3-.1-.4-.1-.3-.2-.5-.3-.8l-.6-1.2c-.2-.4-.4-.7-.6-1.1-.3-.4-.6-.9-.9-1.3-.3-.5-.7-.9-1.1-1.3l-.9-.9-.3-.3c-.1-.1-.3-.2-.4-.3s-.4-.3-.6-.5-.3-.2-.4-.3c-.6-.5-1.3-1-1.9-1.5l-1.9-1.5c-1.3-1-2.6-1.9-3.9-2.8-4.4-3.1-9-5.9-13.8-8.4-1-.6-2.1-1.1-3.2-1.6s-2.2-1.1-3.3-1.6l-3.3-1.5c-1.7-.7-3.4-1.4-5.1-2s-3.5-1.2-5.3-1.8c-.6-.2-1.2-.5-1.7-.9-.2-.2-.5-.4-.7-.6-2.2-2.3-2.2-6 .1-8.2 1.5-1.5 3.8-2 5.8-1.4 3.4 1.1 6.3 2.3 10.2 3.6.8.3 1.6.5 2.4.6.6.1 1.3.2 1.9.2 1.7.1 3.4-.2 5-.8.2-.1.5-.2.7-.3.7-.3 1.4-.7 2-1.1.6-.4 1.2-.9 1.8-1.4.6-.5 1.1-1.1 1.6-1.7 1.5-2 2.5-4.3 2.9-6.7.2-1.1.3-2.2.4-3.2.6-9.8 1.5-24.7 2.2-34.5.1-.9.1-1.8.2-2.6s.1-1.6.1-2.3c0-.5.1-1 .1-1.5s.1-.9.1-1.2v-.5c0-.5.1-.9.1-1.2.1-.5.1-.9.1-1.4.1-1.4 0-2.8-.2-4.2-.2-1.1-.7-2.1-1.3-3-.1-.2-.3-.3-.4-.5-1-1-2.4-1.7-3.8-1.9-1.1-.2-2.3-.1-3.4.3-.3.1-.7.3-1 .5-1.1.7-2.2 1.5-3.1 2.4l-.4.4-.4.4-.4.4c-1.5 1.7-3.1 3.3-4.6 5-3.1 3.3-6.3 6.7-9.5 10.2l-4.8 5.1c-7.6 8.2-15.2 16.4-22.3 24.1l-7 7.6c-.8.9-1.7 1.8-2.5 2.8-1.6 1.8-3.2 3.5-4.8 5.2l-2.3 2.4h-.2l-2.8-.4c-6.4-.7-12.9-.8-19.4-.3-3.6.2-7.2.9-10.7 1.8-.3.1-.5.2-.8.3-2.6.9-4.6 2-5.7 3.5-.2.3-.4.6-.5.9-.1.2-.1.3-.2.5-.3 1.2-.7 2.6-.9 4-.3 1.4-.6 2.8-.9 4.4-.1.8-.3 1.5-.4 2.3-.3 1.6-.5 3.1-.7 4.7-1 7.1-1.8 14.5-2.2 19.8.8-.1 1.5-.2 2.3-.3s1.7-.2 2.6-.3c1.6-.2 3.2-.3 4.9-.4 3.3-.2 6.6-.3 9.9-.3 28.5 0 56.3 8.1 80.2 23.5 1.5.9 3.2 1.5 4.9 2 1.1.3 2.3.6 3.5.7 1.2.1 2.3.1 3.5-.1.8-.1 1.6-.3 2.3-.5 1.4-.4 2.7-1 3.9-1.8.3-.2.7-.4 1-.6.7-.5 1.4-1 2-1.5l2.1-1.8c.7-.7 1.4-1.4 2.1-2.3 3.9-4.5 5.8-9.3 5.4-14 0-.9-.1-1.9-.4-2.8z" fill="#f6be00"/>
<path d="M481.3 229c-9.3-5.2-20-7.8-32-7.8-3 0-6.1.2-9.1.5 5.4-7.1 8.1-16 7.4-24.9-.6-6.7-3.1-13.1-7.2-18.4-2.5-3.2-5.3-6.1-8.3-8.9l-.5-.5c2.9-1.8 4.5-1.8 5.2-1.8 1.5.1 3.1.3 4.6.6 3 .7 6.1 1 9.2 1.1 3.6 0 7.1-.6 10.5-1.8 7.8-2.8 13.9-8.1 17.2-15 3.1-6.5 3.4-14 1-20.8-3.1-8.8-13.4-17.8-27-17.8-3.8 0-7.6.7-11.2 2-7.8 2.8-14.8 7.5-20.5 13.5l5.2-91.4c.3-4.6-.6-9.3-2.7-13.4-2.7-5.3-7.3-9.1-13.7-11.3l-.3-.1-.3-.1c-2-.6-4.1-.9-6.3-.9-4.4 0-10.9 1.3-17.3 7.4-5.3 5.1-66.7 71.6-84.1 90.4-2-.1-3.9-.1-5.8-.1-15.4 0-27.7 3.2-36.5 9.5-8.5 6.1-11.3 13.2-12.3 16.8-.3 1.1-.6 2.2-.9 3.4-1.3-6-3.7-11.8-7.1-17-6.1-9.2-15.4-14.5-25.8-14.5-5-.1-9.9 1.3-14.2 3.9-11 7.3-17.3 23.4-7.4 39-6.7-2.7-13.9-4-21.1-4.1-22.1 0-33.9 17.5-33.9 30.2 0 14.6 11.2 30.1 32 30.1 2.2 0 4.4-.2 6.5-.6-20.7 19.4-36 43.9-44.4 71.1-2.9-1.3-6-2.1-9.1-2.5-.4-.3-1-.7-1.4-1-2.5-1.9-5.3-3.4-8.3-4.5-1.8-.6-3.7-.9-5.6-.9-5.4 0-10.6 2.6-13.8 7-1.5 2.1-2.6 4.6-2.9 7.2-.4-.1-.8-.1-1.2-.1-1-.1-2-.1-3.1-.1-3.5.1-7.1.4-10.5.9-2.5.4-4.9.7-7.4.7-.6 0-1.3 0-1.9-.2-1.7-1.4-3.4-5.5-5-9.1-3.4-8.1-8.6-20.4-22.7-24.7-5-1.5-9.8-1.6-14.1-1.7-1.8 0-3.5-.1-4.7-.2-.6-.1-1.3-.1-1.9-.1-9.4.1-17 7.7-16.9 17.1 0 6.3 3.6 12.1 9.2 15l1.8.9c3.3 1.7 5.4 2.8 6.4 4.3.1.1.2.2.2.3.1 1 .1 1.9 0 2.9-.1 2.6 0 5.3.3 7.9 1.8 14.1 9.4 24.5 21.2 29.3 6.2 2.5 12.7 3.1 18.6 3.6-.5.2-1.1.4-1.6.6-1.7.8-3.2 1.6-4.6 2.3-.9.5-2.2 1.2-3.1 1.6-8.4-4.1-18.6-.7-22.7 7.7-3.1 6.3-2 13.8 2.7 19 5.4 5.9 13 8.7 23.2 8.7h1.2c-2 1.5-3.8 3.1-5.6 4.9-.4.4-1 .9-1.5 1.4-2.5-1.4-5.2-2.1-8-2.1-6 0-11.6 3.3-14.7 8.5s-3.2 11.6-.2 16.8c1.6 2.9 3.7 5.6 6.1 7.9 7.4 7.2 13.8 8.7 21.3 8.7h4.4c1.7 5.1 6 16.3 20.2 16.3 1 0 2.1-.1 3.2-.2s1.9-.3 2.8-.4c.1.7.2 1.4.3 2 .1 1 .3 2 .4 2.9 3.6 21.3 18.6 24.3 24.8 24.6h1.1c8.1 0 16.1-3.5 23.2-10.2 2.9-2.7 4.6-2.7 5.3-2.7 3 0 7.4 2.5 11.9 6.9 6.5 6 15.1 9.2 24 9.1 1.2 0 2.4 0 3.5-.1 4.6-.4 11.3-1 17.7-4.4 27.2 18.9 59.6 29 92.7 29 89.6 0 162.5-73 162.5-162.8 0-18.4-3.1-36.7-9.2-54 3.3 5.5 7.9 10 13.5 13.2 5.2 3 11.2 4.7 17.2 4.7 11.1 0 21.4-6 26.9-15.7 6.8-11.5 5-33.3-15-44.5zM419 156.3c4-8.7 12.3-22.5 26.8-27.7 11.5-4.1 19.1 3.3 20.5 7.3 2.3 6.4-.3 14.7-9.8 18-11.6 4.1-18.5-6.7-34.6 4.8-.9.6-2.2.4-2.8-.5-.3-.5-.4-1.2-.1-1.9zm-212.5-33c3.6-2.3 14-3.6 20.7 6.6 8.5 12.9 6.7 29 4.7 38.3-.2 1.1-1.3 1.8-2.4 1.5-.7-.2-1.3-.7-1.5-1.4-5.9-19-17.9-14.5-24.6-24.8-5.5-8.3-2.7-16.4 3.1-20.2zm32.1 157.2c-4.4 22.7-32.4 32.2-44.9 10.3-10.4-18.5 4.3-46.7 26.8-42.4 13.8 2.6 21.3 18.6 18.1 32.1zm14.8 35.1c.4-.1.7-.1 1.1-.2 3.2-.6 6.2-1.1 8.6-1.4h.2c1.9-.3 3.8-.3 5.7-.2l.6.1c.3 0 .6.1.8.2h.1c.2 0 .4.1.7.2l.2.1c.3.1.7.2 1 .3l.5.2c.4.1.9.3 1.3.5s1 .5 1.5.8c.9.5 1.8 1.2 2.6 1.8.4.3.8.7 1.1 1 9.9 10.2 3.7 31-14.8 29.3-3.7-.5-12.9-1.2-22.8-2.6l-2.4-.3c-2.8-.4-5.6-.9-8.3-1.4-1.2-.2-2.3-.4-3.4-.7l-2.2-.5c-.7-.2-1.4-.3-2.1-.5-.7-.2-1.4-.3-2.1-.5-1-.3-1.9-.6-2.8-.8-1.9-.6-3.7-1.3-5.4-2.2l-.8-.4-.7-.4c-.2-.2-.4-.3-.6-.5l-.5-.5c-.8-.7-1.2-1.7-1.1-2.8.3-1.2.9-2.3 1.8-3 .5-.5 1-.9 1.6-1.3.4-.3.8-.6 1.3-.9s.9-.6 1.5-.9c4.7-2.7 11.6-5.3 18.9-7.6l2-.6c1.3-.4 2.7-.8 4-1.1.5-.2 1.1-.3 1.6-.4 1.1-.3 2.1-.6 3.2-.8s1.9-.5 2.8-.7l.9-.2c1.7-.5 3.1-.8 4.4-1.1zm-85-122.5c-11.9 0-18-8.1-18-16.3 0-5 5.5-16.2 20-16.2 19.1 0 34.4 13.3 41.9 21.3.8.8.7 2.1-.1 2.8-.5.5-1.3.7-2 .4-23.8-7.4-26.9 8-41.8 8zm-61.1 89.5c4 1.3 6.9 5.5 11.6 6 12.7 1.5 11.9 9.4 12.4 16.3.2 2.8-2.3 4.1-4.9 2.9-3.7-1.7-5.3-8-12.6-8.9-6.4-.8-8.8-7.2-10.6-12.7-.7-2.4 1.5-4.4 4.1-3.6zm-68.5 68.7c-2.4-2.6.9-6.4 3.9-4.6.1 0 .1.1.2.1 6.9 4.1 13.1-1.2 19.2-4 11.4-5.2 16.7 4.3 22.6 11.9.9 1.2.7 2.9-.5 3.9-.8.6-1.8.7-2.6.4-2.5-1-4.7-2.5-7.8-3.8-5.9-2.4-12.3-.1-18.3.3-8.3.5-13.5-.8-16.7-4.2zm352.1 79.3c-9.3 9.3-19.7 17.3-31.1 23.9-2.1 1.2-4.2 2.3-6.3 3.4-.9.5-1.8.9-2.8 1.4l-7.2 3.3c-2.4 1.1-4.9 2-7.4 2.9-2 .7-4 1.4-6.1 2-2.3.7-4.7 1.4-7 2l-3.6.9c-2.7.6-5.4 1.2-8.2 1.7-2 .4-4.1.7-6.2.9-2.1.2-4.2.5-6.3.7-1.1.1-2.1.2-3.2.2-3.2.2-6.4.3-9.7.3-2.2 0-4.4 0-6.6-.1l-3.2-.2c-.9-.1-1.8-.1-2.7-.2-1.4-.1-2.7-.2-4-.4-3.1-.4-6.2-.8-9.3-1.3-1.1-.2-2.1-.4-3.1-.6s-1.8-.4-2.7-.6c-.3 0-.6-.1-.9-.2-.9-.2-1.8-.4-2.6-.6-1-.2-2-.5-3.1-.8-3.6-1-7.2-2-10.6-3.2-.7-.2-1.4-.5-2.1-.7-1.4-.5-2.8-1-4.2-1.6l-2.1-.9c-5.9-2.5-11.6-5.3-17.2-8.5-.9-.5-1.8-1-2.6-1.6-.6-.4-1.3-.8-1.8-1.2l-1.7-1.1c-2.6-1.7-5.1-3.4-7.6-5.3-.8-.6-1.7-1.2-2.4-1.8-.8-.6-1.6-1.3-2.4-1.9-.3.4-.6.8-.9 1.1-4.6 5.6-10.6 6.4-17.7 7.1-4.2.4-11.3-.1-16.6-5.2-10.8-10.3-24-15.7-36.3-4.2-3.9 3.7-8.8 6.6-14.2 6.4-8-.4-10.6-6.5-11.7-13-.9-5.3-1.1-12.4-5.9-15.9-4.1-3-8.3-.5-12.9 0-6.7.7-7.4-2.8-9.2-8.2-2-6-4.9-7.7-11.8-7.9-7.9-.2-11 1.1-17-4.7-1.4-1.4-2.7-3-3.7-4.7-1.6-2.9 2.1-6.1 4.7-3.9 2.6 2.2 5.8 3.2 10.1 1.5 6.9-2.6 13.6-16.3 21.8-9.8 4 3.2 4.7 8.9 8.7 12.6s8 5.2 13.1 2.3c8.3-4.8 3.3-13.6-3.7-15.5-3-.7-5.9-1.6-8.7-2.6-2.4-.9-1.7-4.3.8-4.5h.2c5.7-.6 10-6.5 15.6-7.9 6.2-1.5 10.2.6 14.6 4.8 2.4 2.2 7.8 8.7 11.5 7.5 9.3-2.8-.9-16.9-4.8-19-9.2-5-18.3-4.3-25.5-12.9-5.3-6.3-2.4-15.2-8.8-21.5C74.6 313 57 318 44.5 313c-7.8-3.1-11.5-9.9-12.6-18.1-.9-6.7 1.3-11.3-3-17.5-3.5-4.9-8.6-7.1-13.1-9.4-3-1.6-1.7-6.2 1.7-5.8 5.3.5 11.4-.2 16.2 1.3 14.2 4.3 12.6 24 23.8 31.9 8 5.7 20.6.2 29.6 1 9.7.8 16.6 5.9 23.4 12.4 5.9 5.7 7.7 9.7 16 9.5 3.9-.2 7.7.9 10.9 3.1v-.3c.1-3 .3-6 .5-9l.3-3.3c.1-1.4.3-2.7.5-4l.6-3.9c0-.1 0-.3.1-.4.2-1.2.4-2.5.7-3.7.2-1.2.5-2.6.8-3.9l.9-3.9c.3-1.3.7-2.6 1-3.8.4-1.3.7-2.6 1.1-3.8.4-1.2.8-2.5 1.2-3.8s.8-2.3 1.2-3.4c.1-.3.2-.5.3-.8.3-.9.7-1.8 1.1-2.8l.4-.9c.4-.9.8-1.9 1.2-2.8.1-.2.2-.4.2-.6.5-1.1.9-2.1 1.4-3.2.1-.1.1-.2.2-.4.5-1.1 1.1-2.3 1.6-3.3.6-1.1 1.1-2.3 1.8-3.5.6-1.2 1.2-2.3 1.8-3.4.6-1.1 1.3-2.2 1.9-3.4 1.3-2.2 2.7-4.4 4.1-6.6 1.4-2.1 2.9-4.3 4.5-6.3.8-1 1.6-2 2.4-3.1 1.6-2 3.2-4 4.9-5.9.8-1 1.7-1.9 2.6-2.9l1.8-2c1.2-1.2 2.3-2.4 3.5-3.6.9-.9 1.8-1.8 2.8-2.7.9-.9 1.9-1.7 2.9-2.6.3-.2.6-.5.9-.7.4-.2.9-.4 1.4-.6.5-.1 1-.2 1.5-.2.4 0 .7 0 1.1.1.3.1.7.2 1 .3.2.1.3.1.5.2.1.1.3.2.4.3.3.2.5.4.8.7 2.1 2 2.2 5.4.1 7.5l-.5.5c-10.6 9.4-19.6 20.4-26.8 32.5-.6.9-1.1 1.8-1.6 2.8-1.6 2.8-3.1 5.8-4.5 8.7-1.9 4-3.6 8.1-5.1 12.3-1.8 4.8-3.3 9.8-4.5 14.8-.7 2.9-1.4 5.9-1.8 8.9-.4 2.5-.8 4.9-1.1 7.4-.1.5-.1 1.1-.2 1.6-.1.4-.1.8-.1 1.3l-.3 3.6c-.1.7-.1 1.3-.1 2-.3 5-.3 10 0 15 .9 1.1 1.8 2.1 2.8 3 3.7 3.7 7 6.3 12.6 6.7 4 .3 6.4-.8 9.6 1.7s3 7.1 5.5 10.1c5.9 7 15.8-.1 23.1 2.6 6.1 2.2 9.8 8.6 13.5 13 4.1 5 10.2 7.9 16.7 7.9 5.3-11.1 15.7-19.7 31.3-21.1 34.7-2 53.4 42.7 32.1 68.6-6.9 8.9-17.6 14.2-28.9 14.2-13.1-.4-23-6.1-29.5-14.4-7.8 2.3-14.3-2.4-22.5-2.4-7.6 0-11.8 4-15.2 8.9.2.1.3.3.5.4 2.3 1.7 4.6 3.4 7.1 5l.5.4c1.2.8 2.5 1.6 3.8 2.4 1.4.8 2.8 1.7 4.2 2.4.7.4 1.5.8 2.2 1.2.8.4 1.4.7 2.1 1.1 8.3 4.2 16.9 7.4 25.9 9.7 1.4.4 2.7.7 4.1 1 1.8.4 3.6.8 5.4 1.1 1.8.3 3.7.6 5.4.8.9.1 1.8.2 2.8.3 1.8.2 3.6.4 5.4.5 6.1.4 12.1.3 18.2-.1 1.5-.1 3-.3 4.5-.4 1.7-.2 3.3-.4 5-.7.9-.1 1.8-.3 2.8-.5.3 0 .6-.1.8-.2 6.5-1.2 12.9-2.8 19.1-5 2.4-.8 4.7-1.7 7.1-2.6.8-.3 1.6-.6 2.3-1s1.5-.7 2.3-1c1.5-.7 3-1.4 4.6-2.2.8-.4 1.5-.8 2.3-1.2 2.2-1.1 4.4-2.4 6.6-3.7 1.5-.9 2.9-1.8 4.3-2.7 2.8-1.8 5.6-3.8 8.3-5.9 1.4-1 2.7-2.1 4-3.2l3.9-3.3c1.3-1.1 2.6-2.3 3.8-3.5l2.8-2.8c.9-.9 1.8-1.8 2.7-2.8 1.2-1.2 2.3-2.5 3.5-3.8 2.3-2.6 4.5-5.3 6.5-8.1 1-1.3 1.9-2.6 2.9-4 1.6-2.4 3.2-4.8 4.7-7.3.8-1.3 1.5-2.5 2.2-3.8 1.4-2.6 2.8-5.2 4-7.8.5-1 .9-2 1.4-3.1 1.4-3 2.6-6.2 3.8-9.4 1.4-3.7 2.5-7.4 3.5-11.1.3-1.2.7-2.5.9-3.7.5-2 .9-3.9 1.3-5.9l.6-3c.4-2 .7-4 .9-5.9v-.1c.3-2 .5-3.9.6-5.9.2-2 .3-3.9.4-5.9 1.4-31.8-8.4-63.1-27.8-88.4-1.3-1.7-2.6-3.3-4-4.9-5.4-6.3-11.4-12.1-17.9-17.3-1.3-1.1-2.6-2.1-4-3.1-2-1.5-4.1-2.9-6.2-4.3-2.1-1.4-4.3-2.7-6.6-3.9-.7-.4-1.5-.8-2.2-1.2-2.7-1.4-5.3-2.8-8.1-4-2.8-1.2-5.6-2.4-8.5-3.4l-2.7-.9c-1.4-.5-2.7-.9-4.1-1.3s-2.7-.8-4.1-1.1c-.9-.2-1.8-.5-2.7-.7-1.8-.4-3.6-.8-5.5-1.2-1.8-.4-3.7-.7-5.4-.9-6.3-1-12.7-1.4-19.1-1.4h-3c-1 0-2.1 0-3.1.1s-1.8.1-2.8.2-2 .1-3 .2-1.8.2-2.8.3c-.9.1-2.1.2-3.1.4-.6.1-1.1.2-1.7.2-.4.1-.8.1-1.2.2-1 .2-1.9.3-2.9.5l-3.3.7c-2.2.5-4.4 1-6.6 1.6-3.2.9-6.4 1.8-9.7 3-1.6.6-3.2 1.2-4.7 1.8s-3.1 1.2-4.7 1.9c-.4.2-.8.3-1.3.4-1 .2-2 .2-2.9-.2-.3-.1-.5-.2-.8-.4-.1 0-.2-.1-.3-.2-.2-.1-.5-.3-.7-.5l-.4-.4c-1.9-2-2-5.1-.2-7.2l.6-.6c.2-.2.4-.4.7-.5.3-.2.5-.3.8-.4 1.7-.8 3.4-1.5 5.2-2.2s3.5-1.4 5.3-2l3.6-1.2c2.4-.8 4.8-1.5 7.3-2.2 2.4-.7 4.9-1.2 7.4-1.8.7-9.1 2.5-28.2 5.8-40.2.1-.2.1-.4.2-.7s.2-.5.3-.8c.2-.6.5-1.1.8-1.6.4-.6.8-1.3 1.3-1.8.4-.4.7-.9 1.1-1.3l1.4-1.4c.5-.5 1.1-.9 1.7-1.4l1-.7c.7-.4 1.4-.9 2.2-1.3 1.8-.9 3.7-1.7 5.7-2.3 2.4-.8 4.9-1.3 7.4-1.7 1.4-.2 2.8-.4 4.4-.6 6.4-.5 12.7-.4 19.1.3l.7-.7c.5-.5 1-1.1 1.5-1.7.6-.6 1.2-1.3 1.8-2l1.4-1.7c.8-.8 1.5-1.7 2.4-2.6 1.2-1.4 2.6-2.8 4-4.3l4.5-4.9c.7-.8 1.4-1.5 2.1-2.3 1.1-1.1 2.1-2.3 3.3-3.5 2.1-2.3 4.4-4.7 6.6-7.2 1.7-1.8 3.5-3.7 5.2-5.6 1.8-2 3.6-3.8 5.3-5.8 2.2-2.4 4.5-4.8 6.7-7.3 2.1-2.3 4.2-4.5 6.3-6.8 1.4-1.5 2.8-2.9 4.1-4.4 2-2.2 4-4.3 6-6.4l3-3.3c1.1-1.1 2.1-2.3 3.1-3.3 1-1.1 2-2.1 3-3.2 1.5-1.6 2.8-3 4.1-4.4.9-.9 1.8-1.8 2.6-2.8.4-.4.8-.9 1.2-1.3l1.5-1.5c.3-.3.5-.6.8-.9.5-.6 1-1.1 1.5-1.6.9-1 1.8-1.8 2.5-2.6l1-1.1c.4-.4.7-.8 1-1.1l.7-.7c.8-.8 1.7-1.5 2.6-2 .6-.4 1.3-.7 2-.9l.5-.2c.4-.1.9-.2 1.4-.3 1.2-.2 2.5-.1 3.7.2 1.9.5 3.6 1.6 4.9 3.1.2.2.3.4.5.7.1.2.3.5.4.7.2.4.4.8.6 1.3.2.4.3.9.4 1.3.1.5.2.9.2 1.4 0 .2 0 .5.1.7s0 .4 0 .7v.9L404.8 164c4.3 3.3 7.7 6.2 10.4 8.6.9.8 1.7 1.5 2.4 2.1l2 1.8c.4.4.8.7 1.1 1.1l1.3 1.2.5.5c2.5 2.3 4.8 4.8 6.9 7.4.1.2.3.4.4.6.5.7 1 1.4 1.4 2.2.5.9 1 1.9 1.3 2.8.3.9.6 1.9.8 2.8.2.9.3 1.8.4 2.8.2 2.2 0 4.5-.5 6.7-.2.6-.3 1.2-.5 1.8-.3.9-.7 1.9-1.1 2.8-.6 1.2-1.3 2.3-2 3.4-.4.5-.8 1.1-1.2 1.6l-21.3 25.3c8.1 11.5 14.5 24 19.1 37.3l.9 2.7.6 1.8c.4 1.4.9 2.9 1.3 4.3.4 1.5.7 2.8 1.1 4.1.1.4.2.9.3 1.3.4 1.5.7 2.9 1 4.4 10 49.1-5.2 99.7-40.5 135.2zM343.6 300c-4.9 6.6-12 10.3-19.8 10.3-33.9-1.2-36.2-56.7-2.2-60 23.8-1.5 36.5 31 22 49.7zm141-33.4c-4.2 7.5-14.2 11.8-25.2 5.7-13.5-7.6-8.9-23.1-33.2-28.7-1.4-.3-2.2-1.7-1.9-3.1.2-.9.9-1.6 1.7-1.8 11.5-3.4 31.5-7 48.4 2.5 13.5 7.5 12.8 20.7 10.2 25.4z" fill="#fff"/>
<path d="M213.2 338.8c-.9-.5-1.8-1.1-2.5-1.8.7.7 1.6 1.3 2.5 1.8z" fill="#fff"/>
<path d="M238.7 280.4c-4.4 22.7-32.4 32.2-44.9 10.3-10.4-18.5 4.3-46.7 26.8-42.4 13.8 2.7 21.3 18.6 18.1 32.1zM343.4 300c-4.9 6.6-12 10.3-19.8 10.3-33.9-1.2-36.2-56.7-2.2-60 23.9-1.5 36.6 31 22 49.7z" fill="#407ec9"/>
<path d="M253.4 315.7c.4-.1.7-.1 1.1-.2 3.2-.6 6.2-1.1 8.6-1.4h.2c1.9-.3 3.8-.3 5.7-.2l.6.1c.3 0 .6.1.8.2h.1c.2 0 .4.1.7.2l.2.1c.3.1.7.2 1 .3l.5.2c.4.1.9.3 1.3.5.5.2 1 .5 1.5.8.9.5 1.8 1.2 2.6 1.8.4.3.8.7 1.1 1.1 9.9 10.2 3.7 31-14.8 29.3-3.7-.5-12.9-1.3-22.8-2.6l-2.4-.3c-2.8-.4-5.6-.9-8.3-1.4-1.2-.2-2.3-.4-3.4-.7l-2.2-.5-2.1-.5c-.7-.2-1.4-.3-2-.5-1-.3-1.9-.6-2.8-.8-1.9-.6-3.7-1.3-5.4-2.2-.3-.1-.5-.3-.8-.4l-.7-.4c-.2-.2-.4-.3-.6-.5l-.5-.5c-.8-.7-1.2-1.7-1.1-2.8.3-1.2.9-2.3 1.8-3.1.5-.5 1-.9 1.6-1.3.4-.3.8-.6 1.3-.9s.9-.6 1.5-.9c4.7-2.7 11.6-5.3 18.9-7.6l2-.6c1.3-.4 2.7-.8 4-1.1.5-.2 1.1-.3 1.6-.4l3.2-.8c.9-.3 1.9-.5 2.8-.7.3-.1.6-.1.9-.2 1.6-.5 3-.8 4.3-1.1z"/>
<path d="M484.6 266.6c-4.2 7.5-14.2 11.8-25.2 5.7-13.5-7.6-8.9-23.1-33.3-28.7-1.4-.3-2.2-1.7-1.9-3.1.2-.9.9-1.6 1.7-1.8 11.5-3.4 31.5-7 48.4 2.5 13.6 7.4 12.9 20.7 10.3 25.4zM419.1 156.3c4-8.7 12.3-22.5 26.8-27.7 11.5-4.1 19.1 3.3 20.5 7.3 2.3 6.4-.3 14.7-9.8 18-11.6 4.1-18.5-6.7-34.6 4.8-.9.6-2.1.4-2.8-.5-.3-.5-.4-1.2-.1-1.9zM206.4 123.4c3.6-2.3 14-3.6 20.7 6.6 8.5 12.9 6.7 29 4.7 38.3-.2 1.1-1.3 1.8-2.4 1.5-.7-.2-1.3-.7-1.5-1.3-5.9-19-17.9-14.5-24.6-24.8-5.5-8.4-2.6-16.6 3.1-20.3zM168.5 193.1c-11.9 0-18-8.1-18-16.3 0-5 5.5-16.2 20-16.2 19 0 34.4 13.3 41.9 21.3.7.8.7 2.1-.1 2.8-.5.5-1.3.7-2 .4-23.7-7.4-26.9 8-41.8 8z" fill="#407ec9"/>
<path d="M38.8 351.3c-2.4-2.6.9-6.4 3.9-4.6.1 0 .1.1.2.1 6.9 4.1 13.1-1.2 19.2-4 11.4-5.2 16.7 4.3 22.6 11.9.9 1.2.7 2.9-.5 3.9-.8.6-1.8.7-2.6.4-2.5-1-4.7-2.5-7.8-3.8-5.9-2.4-12.3-.1-18.3.3-8.3.5-13.5-.8-16.7-4.2zM107.3 282.6c4 1.3 6.9 5.5 11.6 6 12.7 1.5 11.9 9.4 12.4 16.3.2 2.8-2.3 4.1-4.9 2.9-3.7-1.7-5.3-8-12.6-8.9-6.4-.8-8.8-7.2-10.6-12.7-.7-2.4 1.5-4.4 4.1-3.6z" fill="#f5002d"/>
<path d="M383.6 80.4c-.3 4.4-1.9 29.5-2.8 43.7-.3 10.8-8.9 17.7-18.6 14.5-1.8-.6-8.7-3.1-10.2-3.6 3.9 1.4 12.2 0 13.5-9.1l3.7-39c.2-2.7-1.8-5-4.5-5.2-1.5-.1-2.9.5-3.9 1.5l8.6-9.2c2.4-2.6 4.9-5.2 8.6-4.5 5.4.9 6.2 5.8 5.6 10.9zM391.3 193.9c-10.2 11.5-18.6 9.5-25.3 6-4.2-2.7-8.5-5.1-12.9-7.4l3.9-.6c5-.8 9.5-3.5 12.4-7.7l5.4-7.7c3.5-5 4.3-11.3 2.3-17 4.5 2.8 8.8 5.9 12.9 9.3 3.7 2.6 6.1 6.7 6.6 11.2.5 4.7-1.4 9.5-5.3 13.9z" fill="#dbac27"/>
<path d="M233.8 450.3c68.1 24.7 144-12.2 169.5-82.5s-9-147.3-77.1-172.1c-8.7-3.2-17.7-5.4-26.8-6.6 3 .6 6 1.4 9 2.3 65.3 19.7 101.1 92.5 79.9 162.6-21.1 70.1-91.3 110.9-156.6 91.2-20.3-6.2-38.6-17.8-52.8-33.5 14.6 17.5 33.5 30.8 54.9 38.6z" fill="#ebebe3"/>
<path d="M273.4 349.3c-1.1-.3-2.8-.6-4.8-1.1 18.1-1.6 21.4-26.9 4.8-33.3 1.4 0 2.9.2 4.3.5 22.7 6.4 18.6 38.7-4.3 33.9z" fill="#ebebe3"/>
<path d="M200.9 429.6c3.2-4 7.2-6.9 13.7-6.9 8.3 0 14.8 4.7 22.5 2.4 6.5 8.3 16.4 13.9 29.5 14.4 11.3 0 22-5.3 28.9-14.2 21.3-25.8 2.6-70.6-32.1-68.6-15.6 1.5-26 10-31.3 21.1-6.5 0-12.6-2.9-16.7-7.9-3.7-4.4-7.4-10.8-13.5-13-7.4-2.6-17.2 4.4-23.1-2.6-2.6-3-2.2-7.4-5.5-10.1s-5.6-1.4-9.6-1.7c-5.6-.4-8.9-3-12.6-6.7-1.1-1-2.2-3.7-3-4.7 0-.2-5.3-7.2-10.7-10l-2.5-.9c-2.7-1.3-5.6-2-8.6-1.8-8.3.2-10.1-3.8-16-9.5-6.8-6.5-13.7-11.6-23.4-12.4-9.1-.8-21.6 4.7-29.6-1-11.3-8-9.7-27.6-23.8-31.9-4.8-1.5-10.9-.8-16.2-1.3-3.4-.3-4.7 4.3-1.7 5.8 4.5 2.4 9.6 4.5 13.1 9.4 4.4 6.1 2.2 10.8 3 17.5 1.1 8.2 4.8 15 12.6 18.1 12.5 5 30.1 0 40.2 10.1 6.4 6.3 3.5 15.3 8.8 21.5 7.2 8.6 16.4 7.9 25.5 12.9 3.9 2.1 14.1 16.3 4.8 19-3.7 1.1-9.1-5.3-11.5-7.5-4.4-4.2-8.4-6.3-14.6-4.8-5.7 1.4-10 7.4-15.6 7.9h-.2c-2.5.2-3.2 3.6-.8 4.5 2.9 1 5.8 1.9 8.7 2.6 7 1.9 11.9 10.8 3.7 15.5-5.1 2.9-9.1 1.4-13.1-2.3-4-3.6-4.7-9.4-8.7-12.6-8.2-6.5-15 7.2-21.8 9.8-4.3 1.7-7.5.7-10.1-1.5-2.6-2.2-6.3 1-4.7 3.9 1 1.7 2.2 3.3 3.7 4.7 5.9 5.8 9.1 4.5 17 4.7 6.8.2 9.8 1.9 11.8 7.9 1.8 5.5 2.5 9 9.2 8.2 4.5-.5 8.7-2.9 12.9 0 4.8 3.5 5 10.6 5.9 15.9 1.1 6.4 3.7 12.6 11.7 13 5.4.2 10.3-2.7 14.2-6.4 12.3-11.5 25.5-6.1 36.3 4.2 5.4 5.1 12.4 5.6 16.6 5.2 7.1-.6 13.1-1.5 17.7-7.1 0 0 4.6-6.5 7.5-11 0 .2 1.5-1.8 1.5-1.8z" fill="#e31937"/>
<path d="M127.8 341.1c-1.8-5.8-5.8-11.3-11.5-13.1-4.2-1.3-8-1.6-10.4-3.6-.9-.9-2.4-.9-3.3.1-.4.5-.7 1.1-.6 1.7.1 5.1 1.8 9.8 7.5 11.6 4.8 1.5 10.2.6 14.2 4.5.2.2.3.4.5.5 1.2 1.9 4.3.6 3.6-1.7zM229.4 409c3.9.9 7.5 1.3 10.6-.3 2.2-1.1 5.4-6.2 8.9-10.1 1.1-1.2 1-3-.1-4.1-.8-.7-1.8-1-2.8-.7-4.5 1.3-9.2 2.9-12.7 2.6-1.9-.2-3.7-.9-5.2-2.1-1.7-1.3-3.3-2.9-5-4.3-4.1-3.3-9.2-5-14.5-4.8-10.6.1-17.4 7.1-26-3-6.7-7.9-11-15.3-22.5-15.7-2-.1-3.9 0-5.7-.1-2.1 0-4.2-.2-6.2-.8-1.8-.6-3.8.4-4.4 2.2-.1.2-.1.4-.1.7.3.9.6 1.8.9 2.8 2.1 2.8 5.4 4.7 9.6 6.4 2 .8 3.8 1.8 5.6 3 5.2 3.6 9.8 9.2 7.9 15.2-.1.5-.3 1-.5 1.4-1.7 3.5-4.8 4.9-8.4 5.1-5.9.3-13.2-2.4-17.8-3.4-5.1-1.1-10-2.3-14.6-1.8-1.8.2-3.1 1.8-2.9 3.5.1 1.4 1.1 2.5 2.5 2.8 2.8.7 5.4 2 7.8 3.7 5.2 3.8 8.4 10.9 15.5 11.2 6 .2 10.8-2.3 16.9.5 3 1.4 5.1 3.1 7.6 4 1.7.6 3.6.8 5.4.5 2.8-.4 5.4-1.5 7.7-3.1 7.2-4.6 12.7-13.2 21.4-15.2 6.3-1.4 14.1 2.3 21.1 3.9z" fill="#f6be00"/>
</svg>