<?xml version="1.0" encoding="utf-8"?>
<!-- Generator: Adobe Illustrator 19.0.0, SVG Export Plug-In . SVG Version: 6.00 Build 0)  -->
<svg version="1.1" id="jack-emoji-hungry" xmlns="http://www.w3.org/2000/svg" xmlns:xlink="http://www.w3.org/1999/xlink" x="0px" y="0px"
	 viewBox="0 0 500 500">
     
    <path d="M393.7 273v-.7c-.1-2.3-.2-4.6-.4-6.9v-.3c-1.7-22.3-8.6-44-20.2-63.1l12.3-14.6c5.6-6.7 8.4-15.3 7.8-24-.5-6.1-2.8-11.9-6.6-16.8-2.3-2.8-4.7-5.5-7.3-7.9-1.7-1.7-5.2-5.2-11.2-10.1l6-104.8c.3-4.3-.6-8.5-2.5-12.3-2.4-5-6.6-8.5-12.5-10.5l-.3-.1-.3-.1c-1.9-.5-3.8-.8-5.8-.8-4 0-10.1 1.2-15.9 6.9-4.7 4.5-57.9 62-73.5 79-1.6-.1-3.1-.1-4.6-.1-13.8 0-24.8 2.9-32.7 8.5-7.7 5.5-10.3 12-11.2 15.4-2.2 8.3-3.7 19.6-4.6 28.2-6.2 1.8-12.3 4-18.2 6.7l-.2.1-.7.4c-12.8 5.8-24.6 13.4-35.2 22.6-.2.1-.3.3-.5.4l-.1.1-.1.1c-7.3 6.5-13.9 13.6-19.8 21.4l-.5.7c-.4.6-.8 1.1-1.2 1.7l-1.1 1.5-.8 1.2c-.5.7-1 1.4-1.5 2.2l-.4.6c-13.9 21.1-21.9 45.6-23.3 70.8v.4c0 1-.1 2-.1 3.1v4.6h-.1v5c0 .7 0 1.5.1 2.2 0 .4 0 .8.1 1.3 0 .8.1 1.6.2 2.4 0 .3 0 .6.1 1 .1.9.2 1.8.2 2.7 0 .2 0 .4.1.6.1 1 .2 2.1.3 3.1v.1c3.5 28 15.3 54.4 33.8 75.7l1.2 1.4 1 1.1c3.2 3.5 6.6 6.9 10.1 10l1.7 1.5c.3.3.6.5.8.7 7.2 6.3 15.1 11.9 23.4 16.6.2 3.6 1.1 7.1 2.8 10.3 3 7 3.7 11.4 3.5 31.5-.2 5.1-.6 10.2-1.4 15.3-1.4 10.3-3 21.9 5.2 31.6 3.4 4.1 9.8 9 20.6 9.5h1.2c7.9.1 15.4-3.4 20.5-9.5 10-12.2 6.6-29.7 4.1-42.4-.3-1.4-.8-3.9-.9-4.9v-1.6c7.1-1 13.9-3.6 19.9-7.5l.3-.2c5.1-2.9 9.6-6.7 13.3-11.3 1-1.2 1.9-2.5 2.7-3.8 27-3.9 52.4-15.6 73-33.5.3-.2.6-.5.8-.7l1.7-1.5c3.5-3.2 6.8-6.5 10-10 .3-.4.7-.8 1-1.1.3-.4.8-.9 1.2-1.4 18.5-21.3 30.3-47.7 33.9-75.7v-.1c.1-1 .3-2.1.4-3.1 0-.2 0-.4.1-.6.1-.9.2-1.8.2-2.7 0-.3.1-.6.1-1 .1-.8.1-1.6.2-2.4 0-.4.1-.8.1-1.3 0-.7.1-1.5.1-2.2v-5c-.3-1.4-.3-2.5-.4-3.6z" fill="#fff"/>
    <path d="M239.2 297.6c-1-.2-2.4-.6-4.2-1 16-1.4 18.9-23.7 4.2-29.4 1.3 0 2.5.2 3.8.4 20 5.7 16.4 34.1-3.8 30z" fill="#edece6"/>
    <path d="M235.3 266.2c-8.4-1-51.2 9.5-52.2 17.9-1.1 8.3 40.1 11.4 48.5 12.4 20.1 1.7 23.7-27.1 3.7-30.3zM179.5 373.5c-43-29.2-62.1-86-43-138.6 6.9-19 18.4-36 33.5-49.5 2.2-1.4 2.9-4.4 1.4-6.7-1.4-2.2-4.4-2.9-6.7-1.4-.4.2-.7.5-1 .9-54.2 47.9-59.3 130.7-11.3 184.9 7.9 8.9 17 16.7 27 23.2-.2-4.3-.2-8.5.1-12.8z"/>
    <path d="M356.7 200.9l18.7-22.2c3.4-3.9 5.1-9.1 4.7-14.3-.3-3.6-1.6-7-3.9-9.8-1.9-2.3-3.9-4.5-6.1-6.5-4.9-4.8-10.1-9.3-15.6-13.5L360.9 23c.1-1.9-.2-3.8-1.1-5.5-.9-1.7-2.4-2.9-5.1-3.9-2-.6-5.3-.6-8.8 2.8-4.5 4.4-65.8 70.7-77.3 83.1-34.7-3.3-40.4 10.7-41.1 13.6-2.9 10.5-4.5 27.3-5.1 35.3-8.7 1.9-17.1 4.6-25.2 8.2-2.5.8-3.9 3.5-3.1 6.1.8 2.5 3.5 3.9 6.1 3.1.3-.1.7-.3 1-.4 26.7-11.9 56.9-12.9 84.3-3 59.8 21.7 90.1 89.4 67.7 151.2-12.1 33.8-38.6 60.3-72.3 72.5-.2 1.3-.3 2.8-.4 4.3-.3 4.6-1.1 9.2-2.4 13.6 70.6-15.7 115.1-85.6 99.4-156.2-3.9-16.8-10.9-32.7-20.8-46.9zm-14-39.9c-8.9 10.1-16.4 8.4-22.2 5.3-21-13.5-45.5-20.7-70.5-20.7-5.8 0-11.5.4-17.2 1.1.7-8.3 2.2-22.2 4.6-30.9 1.6-6.1 20-7.3 32.7-5.8l2.6.3C286.8 95 306.2 74 323.4 55.5c2.1-2.3 4.3-4.6 7.6-4 4.8.9 5.5 5.2 5 9.7-.3 3.9-1.7 26-2.4 38.4-.3 9.5-7.8 15.6-16.4 12.7-3.4-1.2-5.9-2.2-8.9-3.2-2.7-.9-5.6.6-6.4 3.3-.9 2.7.6 5.6 3.3 6.4 6.1 2 12 4.5 17.7 7.4 6.7 3.5 13.1 7.7 18.9 12.5 3.3 2.3 5.4 5.9 5.8 9.9.1 4.2-1.5 8.4-4.9 12.4z"/>
    <path d="M342.7 161c-8.9 10.1-16.4 8.4-22.2 5.3-21-13.5-45.5-20.7-70.5-20.7-5.8 0-11.5.4-17.2 1.1.7-8.3 2.2-22.2 4.6-30.9 1.6-6.1 20-7.3 32.7-5.8l2.6.3C286.8 95 306.2 74 323.4 55.5c2.1-2.3 4.3-4.6 7.6-4 4.8.9 5.5 5.2 5 9.7-.3 3.9-1.7 26-2.4 38.4-.3 9.5-7.8 15.6-16.4 12.7-3.4-1.2-5.9-2.2-8.9-3.2-2.7-.9-5.6.6-6.4 3.3-.9 2.7.6 5.6 3.3 6.4 6.1 2 12 4.5 17.7 7.4 6.7 3.5 13.1 7.7 18.9 12.5 3.3 2.3 5.4 5.9 5.8 9.9.1 4.2-1.5 8.4-4.9 12.4z" fill="#f6be00"/>
    <path d="M342.6 161c-9 10.1-16.4 8.4-22.3 5.3-3.7-2.4-7.4-4.5-11.3-6.5l3.5-.5c4.4-.7 8.4-3.1 10.9-6.8l4.8-6.8c3.1-4.4 3.8-10 2-15 4 2.5 7.8 5.2 11.4 8.1 3.3 2.3 5.4 5.9 5.8 9.9.2 4.2-1.4 8.4-4.8 12.3zM336 61c-.3 3.9-1.7 26-2.5 38.5-.3 9.5-7.8 15.6-16.4 12.8-1.6-.5-7.6-2.7-8.9-3.2 3.4 1.2 10.8 0 11.9-8l3.2-34.4c.2-2.4-1.6-4.4-3.9-4.6-1.3-.1-2.6.4-3.5 1.4 2.5-2.7 5.1-5.5 7.5-8.1 2.1-2.3 4.3-4.6 7.6-4 4.9.8 5.5 5.1 5 9.6z" fill="#dbac27"/>
    <path d="M203.5 253.3c-9.8 10.4-22.2 9.5-30.1-2.4-6.5-9.8-7.7-20.9-5.5-32.1.6-2.9 3.7-5.9 6.4-7.6 6.5-3.9 13.6-6.8 20.3-10.4 7.1-3.9 13.4-2 16 5.6 5.1 17.3 3.9 33.1-7.1 46.9zM256.4 237.7c.2-7.2 2-13.9 6.9-19.4 4.5-5.1 9.6-5.5 15-1.7 7.5 5.3 15.1 10.3 22.7 15.5 4 2.7 6.1 6.3 5.4 11.4-1.9 14.2-13.2 24.6-26 23.8-14.1-1-24.1-13.3-24-29.6z" fill="#407ec9"/>
    <path d="M179.6 373c0-.4.1-.7.1-1.1-8.8-5.3-16.8-11.8-23.7-19.5 6.8 8.2 14.7 15.4 23.5 21.4 0-.3 0-.6.1-.8z" fill="#ebebe3"/>
    <path d="M285.7 162.2c-7.6-2.8-15.5-4.7-23.6-5.8 2.6.6 5.3 1.3 7.9 2 57.5 17.4 89 81.5 70.4 143.2-9.5 31.4-30.1 56.1-55.6 70.5-1.6 2.9-3.2 7.3-4 14.4 33.9-12.2 60.6-38.9 72.7-72.8 22.5-61.8-7.9-129.7-67.8-151.5z" fill="#edece6"/>
    <path d="M290.3 320.6c-24.5 5.7-64.6 10.1-97.6 6.3-5.5-.6-9.4 4.8-6.4 10.5 2.5 4.7 5.6 9 9.2 12.8-3 6-5 14.3-5.8 23.5-.7 7.8-.8 22.9 5.7 35.7 3.1 8.2 3.7 15.2 3.5 34.2-.1 5.6-.7 11.3-1.5 16.9-1.2 9-2.2 16.1 2.2 21.4 2.5 3 6.2 4.6 11 4.8h.7c3.9.1 7.7-1.5 10.2-4.5 6.1-7.4 3.4-20.7 1.3-31.5-.5-2.6-1.1-5.6-1.1-6.8-.3-7.7 2-13.1 5.9-14.5h1.9c.7 0 1.5-.1 2.4-.2h2.8c10.1-.3 19.4-5.1 25.6-13.1 5.9-7.6 9.4-16.8 9.9-26.3.8-12.7 3.8-21.6 9.3-27.8 2.9-3.1 5.1-6.9 6.2-11.1 5.5-6.1 9.6-13.3 11.9-21.2 2.5-6.9-2.5-10.2-7.3-9.1zm-75.8 123.6c.2 7.3 9.7 35.5-3.3 35.5h-.4c-12.8-.5-5.1-14.2-4.8-35.8.2-7.2.1-14.5-.5-21.7 1 .8 2 1.5 3 2.2 3 1.8 6.2 3.2 9.6 4-2.3 3.6-3.8 8.9-3.6 15.8z"/>
    <path d="M271.2 339.1c-3.5-4.6-9.9-4.4-15.1-4.1-2.2.2-4.4.8-6.4 1.7l-.9.4c-6.2 3-10.9 8.3-13.1 14.9-2.4 6.8-5.2 18-6 33.4-.1 1.5-1.3 2.7-2.8 2.7-.3 0-.6-.1-.9-.2-1.2-.5-2-1.8-1.9-3.1.9-16.7 4.1-28.6 6.7-35.7 1.4-3.7-.5-7.9-4.3-9.3-.7-.3-1.5-.4-2.2-.4h-.3c-9.3-.2-14 4.5-19.1 10.8-10.6 13.1-15.7 72.8 24.3 71.4 17-.6 26.9-16.2 27.8-32 1-15.8 5.1-25.7 11.3-32.6s6-13.7 2.9-17.9z" fill="#e31937"/>
    <path d="M202.9 356.8c5.1-6.3 9.8-11 19.1-10.8h.1c4 .1 7.1 3.5 6.9 7.5 0 .3 0 .7-.1 1 .6-2 1.2-3.9 1.8-5.4 1.4-3.7-.5-7.9-4.3-9.3-.7-.3-1.5-.4-2.2-.4h-.2c-9.3-.2-14 4.5-19.1 10.8-2.1 2.6-4 7.2-5.4 12.7.8-2.2 2-4.2 3.4-6.1zM255 396.1c-.1 2.2-.5 4.5-1 6.6 1.7-4.2 2.8-8.7 3-13.3.3-4.7.9-9.5 2-14.1-2.3 6.8-3.7 13.8-4 20.8z" fill="#a30c34"/>
    <path d="M271.8 352c.2-.3.3-.6.4-1v-.1c.2-.6.5-1.2.6-1.8v-.1c.1-.3.1-.6.2-.9v-.1c.1-.3.1-.6.1-.8v-.1c0-.3.1-.6.1-.8v-.1c0-.5 0-1.1-.1-1.6v-.1c0-.3-.1-.5-.1-.8v-.1c0-.2-.1-.5-.2-.7-.1-.2-.1-.5-.2-.7v-.1c-.1-.2-.2-.5-.3-.7v-.1l-.3-.6-.1-.1-.3-.6-.1-.1-.4-.6c-3.5-4.6-9.9-4.4-15.1-4.1-2.2.2-4.4.8-6.4 1.7l-.9.4-1.2.6-.2.1c-.3.2-.7.4-1 .6l-.1.1c-.4.2-.7.5-1.1.7-4.4 3.2-7.8 7.6-9.5 12.8-.6 1.7-1.2 3.7-1.8 6 2.3-6.2 16.7-21.8 27.5-16.2 4.8 2.5 5 12.6-1.1 19.5-6.2 6.9-10.3 16.8-11.3 32.6-.6 10.3-5.1 20.6-12.9 26.6 12.9-3.9 20.3-17.3 21.1-30.9 1-15.8 5.1-25.7 11.3-32.6 1.3-1.5 2.4-3.1 3.3-4.8l.1-.4z" fill="#a30c34"/>
    <path d="M257.5 385.3c-.1 3.8-.6 7.5-1.5 11.1-6.4 25.4-22.2 24.3-29.2 25.8-7.1 1.6-12.6 8.8-12.2 21.9.2 7.3 9.7 35.5-3.3 35.5h-.4c-12.8-.5-5.1-14.2-4.8-35.8s-.5-29.1-5.5-40.8c0 0-2.8-4.4 2.5-4.4.8 0 1.6.1 2.5.2 3.9.6 13.9 7.3 24.2 7.3 1.1 0 2.3-.1 3.4-.3 6.7-.9 15-6.5 24.3-20.5" fill="#8fc9ee"/>
    <path d="M257.5 385.3c-1.1 1.6-2.2 3.2-3.2 4.6-.2 1.4-.5 2.9-.8 4.1-6.4 25.4-22.5 23.1-29.2 25.8-9.2 3.8-14 14-12 24.6 4.8 26.8-3.6 32.3-8.4 23-1.6 11.2 3.6 12.1 7.1 12.2h.4c13 0 3.5-28.2 3.3-35.5-.4-13.1 5.2-20.3 12.2-21.9s22.9-.4 29.2-25.8c.8-3.6 1.3-7.3 1.4-11.1z" fill="#407ec9"/>

</svg>