<?xml version="1.0" encoding="utf-8"?>
<!-- Generator: Adobe Illustrator 19.0.0, SVG Export Plug-In . SVG Version: 6.00 Build 0)  -->
<svg version="1.1" id="jack-emoji-chicken" xmlns="http://www.w3.org/2000/svg" xmlns:xlink="http://www.w3.org/1999/xlink" x="0px" y="0px"
	 viewBox="0 0 500 500">
     
    <path d="M437.4 312.3v-.2c0-1.3 0-2.6-.1-4.1v-1.4c0-1-.1-2-.1-3 0-.5 0-1-.1-1.5-.1-1.1-.1-2.1-.2-3.2v-.3c0-.3 0-.6-.1-.9-.1-1.4-.2-2.8-.4-4.2 0-.3-.1-.6-.1-1v-.4c-.1-1-.2-2-.3-2.9-.1-.6-.1-1.1-.2-1.7-.1-.9-.2-1.8-.4-2.7l-.1-.4c-.1-.4-.1-.8-.2-1.2-.2-1.1-.4-2.3-.6-3.4-.1-.5-.2-1-.3-1.6-.2-1.1-.4-2.1-.6-3.2-.1-.5-.2-.9-.3-1.4l-.1-.4c-.2-.8-.3-1.6-.5-2.4-.1-.6-.3-1.2-.4-1.8-.2-.8-.4-1.7-.6-2.5l-.1-.4-.3-1.2c-.2-.7-.4-1.3-.5-2-.1-.6-.2-1.1-.3-1.6-.7-5.9-1-11.9-1.3-18.3-.3-6-.6-12.3-1.3-18.7-.8-7.3-2-15.9-4.7-24.6-3-9.7-7.6-18.3-13.5-25.7-3.4-4.2-7.5-7.9-12.6-11.5-1-.7-1.9-1.3-2.9-1.9-.1-.4-.3-.8-.4-1.3-2-6.2-5-11.6-9.1-16.5-3.9-4.7-9-8.5-14.8-11.1-.6-3-1.5-6-2.8-9-3.3-7.8-8.5-14.3-15.6-19.3-2.2-1.6-4.6-2.9-7.1-4 .4-7.6.2-14.3-.4-20.9-1.1-10.3-3.1-19.1-6.1-26.8-3.3-8.4-7.7-16-13.5-23.1-10.7-13.2-25.9-23-41.6-26.8A71.8 71.8 0 00266.9 0c-2.6 0-5.3.1-7.9.4-7.1.8-13 1.9-18.6 3.6-13 3.9-24.6 10.6-34.6 19.9-10 9.3-18.3 21.3-24.7 35.6-3.6 8.2-6.1 15.9-7.6 23.6-1.9 9.8-2.8 19.9-2.7 29.9.1 9.1 1.1 18.4 2.8 27.8-1.3.6-2.6 1.4-3.8 2.2-14.6 6.9-28.1 15.6-40.3 25.9-1.1.7-2.2 1.4-3.2 2.3l-.3.3c-14.7 13-27.2 28-37.1 44.8l-.1.2c-.8 1.3-1.5 2.6-2.3 4l-.2.3c-.7 1.2-1.4 2.5-2.1 3.8l-.3.5c-.6 1.2-1.3 2.5-1.9 3.8l-.3.6c-.6 1.2-1.2 2.5-1.8 3.8l-.3.6c-.6 1.3-1.1 2.5-1.8 4 0 0-.2.4-.2.5-.6 1.4-1.2 2.9-1.8 4.3 0 .1-.1.2-.1.2-1.8 4.6-3.5 9.3-4.9 14 0 .1-.1.3-.1.4-.4 1.4-.9 2.9-1.3 4.3-.1.3-.1.5-.2.8l-.1.3c-.3 1.2-.7 2.4-1 3.6-.1.3-.3 1.4-.3 1.4-.3 1.1-.5 2.2-.8 3.3-.1.5-.2.9-.3 1.4l-.1.3c-.2 1.1-.4 2.1-.7 3.2-.1.6-.2 1.2-.3 1.7-.2 1-.4 2-.6 3.1l-.3 1.8c-.2 1-.3 2-.5 3-.1.6-.2 1.3-.3 1.9-.1 1-.3 2-.4 3.1v.2c-.1.6-.1 1.1-.2 1.7-.1 1-.2 2.1-.3 3.1v.5c0 .5-.1 1-.1 1.4-.1 1.1-.2 2.1-.2 3.2v.5c0 .4-.1.9-.1 1.3-.1 1.2-.1 2.3-.1 3.5v1.5c0 1.7-.1 3.4-.1 5.1v.2c0 94.8 70.3 173.1 161.5 185.7.3 0 .6.1.9.1 1 .1 2.1.3 3.1.4.4 0 .8.1 1.2.1l3 .3c.4 0 .9.1 1.3.1 1 .1 2 .2 3 .2.4 0 .8 0 1.2.1 3.6.2 7.2.4 10.9.4h1.3c1.5 0 2.9 0 4.4-.1.7 0 1.4 0 2.1-.1.7 0 1.4 0 2.1-.1 1 0 1.9-.1 2.9-.2.3 0 .7 0 1-.1 97.6-6.5 174.8-87.7 174.8-187v-.1l.3-.1z" fill="#fff"/>
    <g fill="#e9e9e1">
        <path d="M190.3 455.4c77.9 28.3 164.8-14 194-94.4 29.2-80.4-10.3-168.6-88.2-196.9-10.1-3.7-20.4-6.2-30.7-7.5 3.4.7 6.9 1.6 10.3 2.7 74.7 22.6 115.7 105.9 91.5 186.1S262.8 472.3 188 449.8c-24-7.2-44.5-20.7-60.5-38.4 16.3 19.3 37.5 34.8 62.8 44z"/>
        <path d="M235.8 339.9c-1.3-.3-3.2-.7-5.5-1.2 20.7-1.8 24.6-30.8 5.5-38.1 2 .1 3.7.2 4.9.5 26 7.2 21.3 44.2-4.9 38.8z"/>
    </g>
    <path d="M170 226.5c1.6 0 3.3.2 4.9.5 6.1 1.1 11.6 4.8 15.3 10.3 4.5 6.7 6.1 15.3 4.2 23.1-2.7 13.5-14.5 23.7-27.4 23.7-8.6 0-16.1-4.5-21-12.8-5.3-9-4.8-21.3 1.2-31.1 5.3-8.7 13.6-13.7 22.8-13.7zM264.7 261.3c-.6-20.3 12.8-30.7 26.4-32h1.6c10.4 0 19.7 6.1 24.9 16.3 6.2 12.1 5.1 26.3-2.8 36-5.4 7-13 10.8-21.3 10.8h-.1c-18.9-.8-28.2-16.6-28.7-31.1z" fill="#407ec9"/>
    <path d="M230.9 299.2c-10.9-1.4-66.7 12.4-68.1 23.3-1.3 10.9 52.2 14.8 63.1 16.2 26.3 2.3 31-35.3 5-39.5z" fill="#f6be00"/>
    <path d="M420.1 312.2V307c0-.9-.1-1.8-.1-2.7 0-.5 0-.9-.1-1.4-.1-1-.1-1.9-.2-2.9 0-.4 0-.7-.1-1.1-.1-1.3-.2-2.5-.3-3.8 0-.4-.1-.8-.1-1.2l-.3-2.7c-.1-.5-.1-1-.2-1.5l-.3-2.4c-.1-.5-.1-1-.2-1.5-.2-1-.3-2.1-.5-3.1-.1-.5-.2-.9-.3-1.4-.2-1-.4-1.9-.6-2.9-.1-.5-.2-1-.3-1.6-.2-.7-.3-1.5-.5-2.2-.1-.5-.2-1.1-.4-1.6-.2-.8-.4-1.5-.5-2.3-.1-.5-.2-1-.4-1.5l-.6-2.4c-.2-1.1-.4-2.1-.6-3.2-1.6-12.4-1.3-25-2.7-37.4-.8-7.2-1.8-14.4-4-21.4-2.3-7.3-5.6-14-10.5-19.9-2.6-3.2-5.7-5.9-9.1-8.2-1.5-1.1-3.2-2-4.9-2.9-1.1-.6-2.3-1.1-3.5-1.5-.3-2.6-.7-5.1-1.5-7.6-1.3-4-3.2-7.6-5.9-10.8-4.3-5.1-10.8-8-17.3-8.9-.4-.1-.7-.1-1.1-.1.1-.5.1-.9.2-1.4.6-4.7-.2-9.6-2.1-14-2.1-5-5.3-8.8-9.7-12-4.1-2.9-8.9-4.2-13.8-4.8-.6-.1-1.2-.1-1.8-.1 1.3-10.7 2-21.5.9-32.3-.8-7.6-2.2-15.2-5-22.3-2.7-6.8-6.2-12.9-10.9-18.6-8.1-10-19.7-17.9-32.3-20.9-5.9-1.4-11.8-1.7-17.8-1-5.2.6-10.4 1.4-15.4 3-10.4 3.2-19.9 8.6-27.9 16-8.9 8.3-15.7 18.9-20.6 29.9-2.9 6.5-5.1 13-6.4 19.9-1.7 8.7-2.5 17.5-2.3 26.3.2 13.1 2.2 26 5.7 38.6-4.3 1.5-8.6 3.2-12.7 5-7.7 3.6-2.7 14.7 5.1 11.4 3.7-1.6 7.6-3.1 11.4-4.5 2.8 7.8 6.1 15.4 9.9 22.8 1.8 3.4 3.6 6.8 5.6 10.1 2.6 4.4 9.4 5.7 13 1.7 2.5-2.7 5.2-5.2 8.1-7.6 5-3.7 10.5-6.8 16.2-9.3 8.5-3.5 17.4-5.7 26.5-7 10.5-1.3 21.1-1.4 31.6-.1 5.2.7 10.3 1.8 15.2 3.7.9.4 1.7.8 2.6 1.2 57.5 37.6 83.4 112.7 58.2 182.1-29.2 80.5-116.2 122.8-194.2 94.5-78-28.3-117.5-116.6-88.3-197.1 9.4-25.8 24.6-47.7 43.6-64.5 6.3-5.6-1.7-14.9-8.1-9.4-13.2 11.7-24.7 25.4-33.7 40.7 0 0 0 .1-.1.1l-2.1 3.6c-.1.1-.1.2-.2.3-.6 1.1-1.3 2.3-1.9 3.5-.1.2-.2.3-.3.5-.6 1.1-1.2 2.3-1.7 3.4l-.3.6c-.6 1.1-1.1 2.3-1.6 3.4l-.3.6c-.5 1.2-1.1 2.4-1.6 3.6-.1.1-.1.3-.2.4-.6 1.3-1.1 2.6-1.6 3.9 0 0 0 .1-.1.1-1.7 4.2-3.2 8.4-4.5 12.7q0 .1-.1.2c-.4 1.3-.8 2.7-1.2 4l-.3.9-.9 3.3c-.1.4-.2.8-.3 1.3-.2 1-.5 2-.7 3l-.3 1.5c-.2 1-.4 1.9-.6 2.9-.1.5-.2 1.1-.3 1.6-.2.9-.3 1.9-.5 2.8-.1.6-.2 1.1-.3 1.7-.1.9-.3 1.8-.4 2.8-.1.6-.2 1.1-.2 1.7-.1.9-.2 1.8-.3 2.8-.1.6-.1 1.2-.2 1.7-.1.9-.2 1.9-.3 2.8-.1.6-.1 1.1-.2 1.7-.1 1-.1 1.9-.2 2.9 0 .5-.1 1.1-.1 1.6-.1 1.1-.1 2.1-.1 3.2 0 .5 0 .9-.1 1.4 0 1.5-.1 3.1-.1 4.6 0 52.4 23.6 99.4 60.8 130.6.4.3.7.6 1.1.9.1.1.2.1.3.2 29.2 24.1 66.5 38.5 107.2 38.7h.7c41 0 78.6-14.5 108-38.8l.2-.2c.4-.4.9-.7 1.3-1.1 37.4-30.8 60.9-77.7 60.9-130.1zm-41.9-109c-6.4-8.3-13.2-16.1-21.1-23-2.1-1.8-4.2-3.6-6.4-5.3-.3-.2-.5-.4-.8-.6-4-3-8.1-5.9-12.5-8.3-1.8-1-3.7-2-5.6-2.8-7.4-3.3-15.1-4.8-23-5.8-9-1.1-18.2-1.2-27.3-.4-21.2 1.9-42.2 8.3-58.9 21.8-2.2-4.2-4.2-8.4-6-12.7-1-2.4-1.9-4.8-2.8-7.2h.1c-1.4-4-2.7-8-3.9-12.1h-.1c-1.7-6.2-3.1-12.5-4-18.9-1.3-10.5-1.5-21.1-.2-31.6 1-7 2.7-13.9 5.3-20.5 3-6.9 6.7-13.6 11.2-19.6 3.2-3.9 6.7-7.5 10.6-10.7 3.7-2.7 7.6-5 11.7-6.9 5-2 10.3-3.4 15.7-4.2 3.7-.4 7.4-.6 11-.2.8.1 1.6.3 2.4.5 2.3.5 4.6 1.2 6.8 2.1 3.5 1.6 6.9 3.6 10 5.9 3.3 2.7 6.4 5.7 9.1 9.1 2.4 3.3 4.5 6.8 6.2 10.5 2.2 5.4 3.6 11 4.4 16.8 1.4 11.9.6 23.8-1 35.7-.3 2.1-.6 4.3-.9 6.4-.2 1.5-.4 2.9 0 4.4.5 1.7 1.6 3.2 3 4.3 1 .8 2.1 1.3 3.3 1.5 1.9.4 4 .1 5.9-.9l.6-.3c.9-.3 1.8-.5 2.7-.7 1.1-.1 2.2-.1 3.3 0 .6.1 1.1.2 1.7.4s1.1.3 1.7.5c.9.4 1.7.9 2.6 1.5.6.5 1.2 1.1 1.8 1.7.5.7.9 1.5 1.3 2.3.4 1 .7 2.1.9 3.1.1 1.2.1 2.3 0 3.5-.2 1.1-.5 2.1-.9 3.1-.4.8-.8 1.5-1.3 2.2 0-.1.1-.1.1-.2-.1.1-.1.2-.2.3-.2.2-.3.4-.4.7.2-.3.5-.6.7-.9-.7 1-1.4 2-1.8 3.2-.5 1.8-.3 3.7.4 5.4 1 2.3 3.2 4.4 5.7 4.9.6.1 1.2.2 1.8.1 3.2-.2 6.5-.3 9.7 0 .8.1 1.7.3 2.5.5s1.7.5 2.5.8c.7.4 1.5.8 2.2 1.3.6.5 1.1 1 1.6 1.6.6.9 1.1 1.8 1.6 2.8.7 2 1.2 4 1.6 6.1.1.9.2 1.9.3 2.8.2 2.8 1 5.5 3.2 7.5 1.7 1.5 3.5 2.4 5.6 3.1.8.2 1.5.4 2.3.7 1.9.9 3.7 2 5.4 3.3 1.9 1.6 3.7 3.4 5.3 5.3 1.7 2.4 3.2 5.1 4.5 7.8 2.5 6.1 3.9 12.6 4.8 19.1.2 1.2.3 2.5.4 3.7-5.1-8.7-10.5-16.8-16.4-24.5z"/>
    <path d="M378.2 203.2c-6.4-8.3-13.2-16.1-21.1-23-7.6-6.7-16.1-12.9-25.3-17-7.4-3.3-15.1-4.8-23-5.8-9-1.1-18.2-1.2-27.3-.4-21.2 1.9-42.2 8.3-58.9 21.8-2.2-4.2-4.2-8.4-6-12.7-5.1-12.3-8.8-25.1-10.6-38.3-1.3-10.5-1.5-21.1-.2-31.6 1-7 2.7-13.9 5.3-20.5 3-6.9 6.7-13.6 11.2-19.6 3.2-3.9 6.7-7.5 10.6-10.7 3.7-2.7 7.6-5 11.7-6.9 5-2 10.3-3.4 15.7-4.2 3.7-.4 7.4-.6 11-.2 3.1.5 6.2 1.4 9.1 2.5 3.5 1.6 6.9 3.6 10 5.9 3.3 2.7 6.4 5.7 9.1 9.1 2.4 3.3 4.5 6.8 6.2 10.5 2.2 5.4 3.6 11 4.4 16.8 1.4 11.9.6 23.8-1 35.7-.3 2.1-.6 4.3-.9 6.4-.2 1.5-.4 2.9 0 4.4.5 1.7 1.6 3.2 3 4.3 2.7 2.1 6.2 2.2 9.2.6l.6-.3c.9-.3 1.8-.5 2.7-.7 1.1-.1 2.2-.1 3.3 0 1.1.2 2.2.5 3.3.9.9.4 1.7.9 2.6 1.5.6.5 1.2 1.1 1.8 1.7.5.7.9 1.5 1.3 2.3.4 1 .7 2.1.9 3.1.1 1.2.1 2.3 0 3.5-.2 1.1-.5 2.1-.9 3.1-.5 1-1.1 2-1.8 3 .2-.3.5-.6.7-.9-.7 1-1.4 2-1.8 3.2-.5 1.8-.3 3.7.4 5.4 1.2 2.8 4.3 5.3 7.6 5.1 3.2-.2 6.5-.3 9.7 0 1.7.3 3.3.7 4.9 1.3.7.4 1.5.8 2.2 1.3.6.5 1.1 1 1.6 1.6.6.9 1.1 1.8 1.6 2.8.7 2 1.2 4 1.6 6.1.1.9.2 1.9.3 2.8.2 2.8 1 5.5 3.2 7.5 1.7 1.5 3.5 2.4 5.6 3.1.8.2 1.5.4 2.3.7 1.9.9 3.7 2 5.4 3.3 1.9 1.6 3.7 3.4 5.3 5.3 1.7 2.4 3.2 5.1 4.5 7.8 2.5 6.1 3.9 12.6 4.8 19.1.2 1.2.3 2.5.4 3.7-5-8.6-10.4-16.7-16.3-24.4z" fill="#e31937"/>
    <path d="M215.5 67.1c3.2-3.9 6.7-7.5 10.6-10.7 3.7-2.7 7.6-5 11.7-6.9 5-2 10.3-3.4 15.7-4.2 3.7-.4 7.4-.6 11-.2 3.1.5 6.2 1.4 9.1 2.5 3.5 1.6 6.9 3.6 10 5.9 3.3 2.7 6.4 5.7 9.1 9.1 2.4 3.3 4.5 6.8 6.2 10.5 2.2 5.4 3.6 11 4.4 16.8 1.4 11.9.6 23.8-1 35.7-.3 2.1-.6 4.3-.9 6.4-.2 1.5-.4 2.9 0 4.4.5 1.7 1.6 3.2 3 4.3 2.7 2.1 6.2 2.2 9.2.6l.6-.3c.9-.3 1.8-.5 2.7-.7 1.1-.1 2.2-.1 3.3 0 1.1.2 2.2.5 3.3.9.9.4 1.7.9 2.6 1.5.6.5 1.2 1.1 1.8 1.7.5.7.9 1.5 1.3 2.3.4 1 .7 2.1.9 3.1.1 1.2.1 2.3 0 3.5-.2 1.1-.5 2.1-.9 3.1-.5 1-1.1 2-1.8 3 .2-.3.5-.6.7-.9-.6.8-1.1 1.6-1.5 2.5 1.7.6 3.4 1.2 5 2 6.3 2.8 12.1 6.5 17.6 10.7.6.3 1.3.7 1.9 1.1.6.5 1.1 1 1.6 1.6v.1c1.4 1.2 2.9 2.4 4.3 3.6 7.9 6.9 14.7 14.8 21.1 23 5.9 7.7 11.3 15.8 16.2 24.2-.1-1.2-.3-2.5-.4-3.7-.9-6.5-2.4-13-4.8-19.1-1.2-2.7-2.7-5.3-4.5-7.8-1.6-1.9-3.3-3.7-5.3-5.3-1.7-1.2-3.5-2.3-5.4-3.3-.8-.2-1.5-.4-2.3-.7-2.1-.7-3.9-1.6-5.6-3.1-2.2-1.9-3-4.7-3.2-7.5-.1-.9-.2-1.9-.3-2.8-.3-2.1-.8-4.1-1.6-6.1-.5-1-1-1.9-1.6-2.8-.5-.6-1-1.1-1.6-1.6-.7-.5-1.4-.9-2.2-1.3-1.6-.6-3.2-1-4.9-1.3-3.2-.3-6.5-.3-9.7 0-3.3.2-6.4-2.3-7.6-5.1-.7-1.7-.9-3.6-.4-5.4.3-1.2 1-2.2 1.8-3.2-.2.3-.5.6-.7.9.7-.9 1.3-1.9 1.8-3 .4-1 .6-2.1.9-3.1.1-1.2.1-2.3 0-3.5-.2-1.1-.5-2.1-.9-3.1-.4-.8-.8-1.6-1.3-2.3-.5-.6-1.1-1.2-1.8-1.7-.8-.6-1.7-1-2.6-1.5-1.1-.4-2.2-.7-3.3-.9-1.1-.1-2.2-.1-3.3 0-.9.2-1.8.4-2.7.7l-.6.3c-3 1.6-6.5 1.4-9.2-.6-1.4-1.1-2.5-2.6-3-4.3-.4-1.5-.2-2.9 0-4.4.3-2.1.6-4.3.9-6.4 1.5-11.8 2.4-23.8 1-35.7-.9-5.7-2.3-11.4-4.4-16.8-1.7-3.7-3.8-7.3-6.2-10.5-2.7-3.3-5.7-6.4-9.1-9.1-3.1-2.3-6.5-4.3-10-5.9-2.9-1.2-6-2-9.1-2.5-3.7-.4-7.4-.2-11 .2-5.4.8-10.6 2.2-15.7 4.2-4.2 1.9-8.1 4.1-11.7 6.9-3.9 3.2-7.5 6.8-10.6 10.7-3.1 4.1-5.8 8.6-8.2 13.2.6-.5 1.1-1.2 1.6-1.9z" fill="#a30c34"/>

</svg>