<?xml version="1.0" encoding="utf-8"?>
<!-- Generator: Adobe Illustrator 19.0.0, SVG Export Plug-In . SVG Version: 6.00 Build 0)  -->
<svg version="1.1" id="jack-emoji-laughing" xmlns="http://www.w3.org/2000/svg" xmlns:xlink="http://www.w3.org/1999/xlink" x="0px" y="0px"
	 viewBox="0 0 500 500">
<path d="M434.23 328.42v-.45c0-1.01-.02-2.02-.04-3.03-.01-.63-.03-1.26-.05-1.89-.01-.4-.03-.79-.04-1.19-1.12-29.85-9.83-57.76-24.26-81.81l14.53-17.28c6.73-7.97 10.1-18.35 9.24-28.49a37.638 37.638 0 00-7.79-19.96c-2.08-2.7-4.86-5.69-8.74-9.4-2.07-2.04-6.23-6.14-13.32-12l7.16-124.71c.3-5.14-.73-10.19-2.99-14.63-2.97-5.82-8.01-9.98-15-12.38l-.38-.13-.39-.11c-2.22-.64-4.52-.96-6.82-.96-4.8 0-11.99 1.41-18.98 8.16-5.53 5.34-68.79 73.79-87.45 93.99-1.86-.08-3.67-.12-5.43-.12-16.41 0-29.51 3.42-38.93 10.16-9.1 6.51-12.26 14.22-13.35 18.29-2.64 9.73-4.39 22.9-5.46 33.09-54.72 15.86-98.12 58.42-115.36 112.7-3.2.44-6.34 1.12-9.35 2.08-21.88 6.89-28.09 27.97-24.15 40.57 3.73 11.85 13.68 19.95 25.75 21.51 2.78 41.33 20.17 79.8 49.67 109.37 32.3 32.37 75.25 50.2 120.94 50.2h.04c.32 0 .63-.01.94-.01 1.12 0 2.24-.01 3.36-.04.61-.02 1.22-.05 1.83-.07.84-.03 1.67-.05 2.51-.1.54-.03 1.07-.07 1.6-.1.92-.05 1.84-.11 2.75-.18.39-.03.78-.07 1.17-.1 1.07-.09 2.14-.18 3.21-.29.21-.02.42-.05.63-.07 1.26-.13 2.51-.27 3.76-.43h.02c37.42-4.75 72.01-21.66 99.11-48.82 32.29-32.36 50.07-75.39 50.07-121.15v-.14-.09zM200.38 186.38c9.54-4.24 19.59-7.55 30.03-9.8.73-9.5 2.64-29.49 6.05-42.01.9-3.46 7.62-20.1 48.92-16.15 13.63-14.78 86.56-93.69 91.96-98.91 4.22-4.07 8.05-4.07 10.48-3.37 3.26 1.12 5.03 2.6 6.06 4.62 1.02 2.01 1.42 4.28 1.29 6.54l-7.63 132.85c10.26 7.96 15.73 13.31 18.54 16.08 2.91 2.79 5.5 5.46 7.26 7.74 2.93 3.77 4.23 7.82 4.55 11.64.52 6.16-1.6 12.25-5.58 16.97l-22.21 26.41c14.57 20.68 24.24 45.07 27.31 71.5-2.61-4.93-6.53-9.63-12.05-13.62-4.54-3.28-9.5-5.93-14.87-7.96-10.7-43.05-41.23-79.79-85.11-95.73-33.76-12.26-69.36-10.02-100.31 3.58-7.14 3.06-11.68-7.12-4.69-10.39zm-39.79 25.59c5.89-4.97 13.19 3.46 7.43 8.58-17.12 15.22-30.92 34.87-39.49 58.01a77.347 77.347 0 00-11.47-2.35c8.93-25 24.05-47.04 43.53-64.25zm102.64 272.25c-82.31 0-149.64-64.21-154.88-145.37 4.59-1.49 8.19-3.64 11.11-5.95 1.47 55.63 35.25 106.75 89.27 126.37 71.16 25.85 150.49-12.76 177.18-86.23 1.62-4.47 3.01-8.97 4.18-13.48 10.31-.16 20.05-5.22 26.16-13.65.53-.74 1.03-1.53 1.49-2.36-7.48 78.93-73.79 140.67-154.51 140.67z" fill="#fff"/>
<path d="M128.53 278.56c8.57-23.14 22.36-42.79 39.49-58.01 5.76-5.12-1.54-13.55-7.43-8.58-19.48 17.21-34.6 39.25-43.53 64.25 4 .5 7.84 1.32 11.47 2.35z"/>
<path d="M250.18 353.66c-1.17-.28-2.88-.67-4.99-1.13 18.94-1.65 22.46-28.13 5.02-34.86 1.87.06 3.4.22 4.46.48 23.78 6.65 19.51 40.47-4.49 35.51z" fill="#edece6"/>
<path d="M241.27 352.66c-9.95-1.24-58.88-4.8-57.66-14.75 1.24-9.92 52.2-22.52 62.16-21.28 23.77 3.82 19.49 38.13-4.49 36.03z"/><g fill="#edece6">
<path d="M373.3 284.77c6.14.75 11.9 2.14 17.26 4.17-10.66-43.16-41.23-80-85.21-95.98-9.25-3.36-18.64-5.62-28.03-6.87 3.14.68 6.28 1.49 9.41 2.43 44.96 13.57 76.54 51.2 86.56 96.24zM389.57 359.57c-6.19 0-12.37-1.74-18.08-5.07-.37 1.35-.75 2.69-1.15 4.04-22.12 73.28-95.41 115.97-163.71 95.35-21.92-6.62-40.65-18.95-55.25-35.07 14.76 17.81 34.17 31.97 57.28 40.36 71.2 25.86 150.57-12.76 177.27-86.28 1.61-4.43 2.98-8.88 4.14-13.35-.17 0-.33.01-.5.01z"/></g>
<path d="M205.06 196.77c30.94-13.6 66.54-15.84 100.31-3.58 43.89 15.94 74.41 52.68 85.11 95.73 5.36 2.02 10.33 4.67 14.87 7.96 5.52 3.99 9.44 8.68 12.05 13.62-3.06-26.42-12.73-50.82-27.31-71.5l22.21-26.41c3.98-4.72 6.1-10.81 5.58-16.97-.32-3.82-1.62-7.87-4.55-11.64-1.76-2.28-4.34-4.95-7.26-7.74-2.81-2.78-8.29-8.12-18.54-16.08l7.63-132.85c.13-2.26-.27-4.53-1.29-6.54-1.03-2.02-2.8-3.5-6.06-4.62-2.43-.7-6.26-.7-10.48 3.37-5.4 5.22-78.33 84.13-91.96 98.91-41.3-3.95-48.02 12.69-48.92 16.15-3.4 12.53-5.32 32.52-6.05 42.01a154.047 154.047 0 00-30.03 9.8c-6.99 3.27-2.45 13.45 4.69 10.39zM416.24 345.9c-6.11 8.43-15.84 13.49-26.16 13.65-1.17 4.51-2.55 9.01-4.18 13.48-26.69 73.48-106.02 112.08-177.18 86.23-54.02-19.62-87.8-70.74-89.27-126.37-2.92 2.3-6.52 4.46-11.11 5.95 5.24 81.16 72.57 145.37 154.88 145.37s147.03-61.74 154.51-140.67a26.3 26.3 0 01-1.49 2.36z"/>
<path d="M403.92 337.03c-5.33 7.36-16.27 10.68-27.03 2.9-13.25-9.58-6.51-25.21-31.31-34.08-2.55-.91-2.21-4.65.47-5.12 12.42-2.19 33.86-3.52 50.39 8.45 13.11 9.48 10.77 23.27 7.47 27.85zM81.36 314.37c-1.51-4.82.4-17.19 14.23-21.54 17.41-5.5 35.25 1.69 45.17 7.06 2.15 1.17 1.37 4.44-1.05 4.49-23.56.54-22.27 15.7-36.22 20.09-11.32 3.57-19.68-2.34-22.12-10.1zM276.6 302.86c-2.48 1.83-5.76-2.01-6.38-5.08-.49-2.45-.78-5.08-.83-7.9-.25-15.72 8.73-33.39 28.97-35.09h.07c8.82-.43 17.03 3.31 23.16 10.57 6.78 7.78 9.49 18.53 7.75 29.18-.55 3.39-3.66 7.6-6.69 6.09-20.81-10.4-38.44-3.38-46.06 2.23zM211.28 300.28c2.37 1.68 5.49-1.84 6.07-4.65.46-2.25.73-4.66.78-7.25.21-14.43-8.38-30.67-27.68-32.26h-.07c-8.41-.41-16.24 3.01-22.07 9.66-6.45 7.13-9.01 16.99-7.34 26.77.53 3.11 3.47 6.91 6.39 5.6 17.78-7.99 36.65-3.04 43.92 2.12z" fill="#407ec9"/>
<path d="M289.9 371.64c3.45-2.31 8.54.84 9.83 3.92 3.53 8.41 2.66 43.64-34.93 51.49-8.64 1.8-25.04.33-34.8-5.94-10.76-6.67-16.76-19.46-14.93-28.97.7-3.64 5.19-8.24 8.83-7.9 34.36 3.21 46.55.4 65.98-12.6z" fill="#e31937"/>
<path d="M372.21 165.12c-6.97-5.69-14.47-10.72-22.47-14.84-6.65-3.43-13.74-6.51-21.12-8.88a6.105 6.105 0 01-3.95-7.65c1.04-3.18 4.46-4.94 7.65-3.92 3.58 1.15 6.54 2.37 10.62 3.79 10.19 3.36 19.18-3.84 19.52-15.17.91-14.81 2.55-41.12 2.91-45.7.64-5.33-.15-10.44-5.9-11.53-3.89-.69-6.52 2.07-9.01 4.76a24864.74 24864.74 0 00-60.33 65.2l-3.07-.37c-15.05-1.73-36.97-.28-38.91 6.92-2.8 10.3-4.56 26.82-5.41 36.71 6.7-.88 13.53-1.35 20.47-1.35 30.87 0 59.63 9.03 83.81 24.61 6.97 3.73 15.81 5.77 26.44-6.25 4.07-4.65 6.01-9.68 5.61-14.6-.34-4.5-2.88-8.69-6.88-11.73z" fill="#f6be00"/>
<path d="M373.42 191.26c-10.64 12.02-19.48 9.98-26.46 6.25-4.33-2.79-8.82-5.37-13.43-7.72l4.12-.64c5.24-.8 9.93-3.7 12.98-8.04l5.67-8.07c3.66-5.2 4.54-11.86 2.36-17.84 4.7 2.94 9.2 6.2 13.51 9.71 4 3.03 6.54 7.23 6.88 11.73.39 4.92-1.55 9.96-5.62 14.61zM365.62 72.5c-.37 4.58-2 30.91-2.92 45.73-.34 11.34-9.33 18.54-19.53 15.18-1.85-.65-9.07-3.22-10.62-3.79 4.07 1.46 12.77.04 14.17-9.48l3.81-40.86c.4-4.82-5.51-7.43-8.8-3.88 3.03-3.27 6.02-6.5 8.96-9.67 2.49-2.69 5.11-5.45 9.01-4.76 5.76 1.08 6.55 6.21 5.91 11.54z" fill="#dbac27"/>
</svg>