<?xml version="1.0" encoding="UTF-8" standalone="no" ?>
<!DOCTYPE svg PUBLIC "-//W3C//DTD SVG 1.1//EN" "http://www.w3.org/Graphics/SVG/1.1/DTD/svg11.dtd">
<svg xmlns="http://www.w3.org/2000/svg" xmlns:xlink="http://www.w3.org/1999/xlink" version="1.1" width="1200" height="900" viewBox="0 0 1200 900" xml:space="preserve">
<desc>Created with Fabric.js 5.2.4</desc>
<defs>
</defs>
<g transform="matrix(1 0 0 1 600 450)" id="b14b9f18-e2df-4dfc-974e-5f0c9b14deb9"  >
<rect style="stroke: none; stroke-width: 1; stroke-dasharray: none; stroke-linecap: butt; stroke-dashoffset: 0; stroke-linejoin: miter; stroke-miterlimit: 4; fill: rgb(255,255,255); fill-rule: nonzero; opacity: 1; visibility: hidden;" vector-effect="non-scaling-stroke"  x="-600" y="-450" rx="0" ry="0" width="1200" height="900" />
</g>
<g transform="matrix(Infinity NaN NaN Infinity 0 0)" id="ab48974e-9bba-49d1-ba60-a1afa2652df2"  >
</g>
<g transform="matrix(0.83 0 0 0.83 600 450)"  >
<g style="" vector-effect="non-scaling-stroke"   >
		<g transform="matrix(1 0 0 1 47.48 -118.86)"  >
<path style="stroke: none; stroke-width: 1; stroke-dasharray: none; stroke-linecap: butt; stroke-dashoffset: 0; stroke-linejoin: miter; stroke-miterlimit: 4; fill: rgb(246,190,0); fill-rule: nonzero; opacity: 1;" vector-effect="non-scaling-stroke"  transform=" translate(-297.48, -131.14)" d="M 358.8 165.4 C 351.8 159.70000000000002 344.3 154.70000000000002 336.3 150.6 C 329.6 147.2 322.6 144.1 315.2 141.7 C 312 140.7 310.2 137.2 311.2 134 C 312.2 130.8 315.7 129.1 318.9 130.1 C 322.5 131.29999999999998 325.4 132.5 329.5 133.9 C 339.7 137.3 348.7 130.1 349 118.7 C 349.9 103.9 351.5 77.6 351.9 73 C 352.5 67.7 351.7 62.6 346 61.5 C 342.1 60.8 339.5 63.6 337 66.3 C 316.5 88.3 293.5 113.3 276.7 131.5 L 273.59999999999997 131.1 C 258.49999999999994 129.4 236.59999999999997 130.79999999999998 234.69999999999996 138 C 231.89999999999995 148.3 230.09999999999997 164.8 229.29999999999995 174.7 C 235.99999999999994 173.79999999999998 242.79999999999995 173.39999999999998 249.79999999999995 173.39999999999998 C 280.69999999999993 173.39999999999998 309.4 182.39999999999998 333.59999999999997 197.99999999999997 C 340.59999999999997 201.69999999999996 349.4 203.79999999999998 359.99999999999994 191.79999999999998 C 364.09999999999997 187.2 365.99999999999994 182.1 365.59999999999997 177.2 C 365.29999999999995 172.6 362.79999999999995 168.39999999999998 358.79999999999995 165.39999999999998 z" stroke-linecap="round" />
</g>
		<g transform="matrix(1 0 0 1 92.37 -119.08)"  >
<path style="stroke: none; stroke-width: 1; stroke-dasharray: none; stroke-linecap: butt; stroke-dashoffset: 0; stroke-linejoin: miter; stroke-miterlimit: 4; fill: rgb(219,172,39); fill-rule: nonzero; opacity: 1;" vector-effect="non-scaling-stroke"  transform=" translate(-342.37, -130.92)" d="M 352 73 C 351.6 77.6 350 103.9 349.1 118.7 C 348.8 130 339.8 137.2 329.6 133.9 C 327.70000000000005 133.3 320.5 130.70000000000002 319 130.1 C 323.1 131.6 331.8 130.1 333.2 120.6 L 337 79.69999999999999 C 337.4 74.89999999999999 331.5 72.29999999999998 328.2 75.79999999999998 C 331.2 72.49999999999999 334.2 69.29999999999998 337.2 66.09999999999998 C 339.7 63.39999999999998 342.3 60.59999999999998 346.2 61.29999999999998 C 351.8 62.499999999999986 352.59999999999997 67.69999999999999 352 72.99999999999999 z M 360 191.5 C 349.4 203.5 340.5 201.5 333.5 197.8 C 329.2 195 324.7 192.4 320.1 190.10000000000002 L 324.20000000000005 189.50000000000003 C 329.40000000000003 188.70000000000002 334.1 185.80000000000004 337.20000000000005 181.50000000000003 L 342.90000000000003 173.40000000000003 C 346.6 168.20000000000005 347.40000000000003 161.50000000000003 345.3 155.60000000000002 C 350 158.50000000000003 354.5 161.8 358.8 165.3 C 362.8 168.3 365.3 172.5 365.7 177 C 366 181.8 364.09999999999997 186.8 360 191.5 z" stroke-linecap="round" />
</g>
		<g transform="matrix(1 0 0 1 0 0)"  >
<path style="stroke: none; stroke-width: 1; stroke-dasharray: none; stroke-linecap: butt; stroke-dashoffset: 0; stroke-linejoin: miter; stroke-miterlimit: 4; fill: rgb(255,255,255); fill-rule: nonzero; opacity: 1;" vector-effect="non-scaling-stroke"  transform=" translate(-250, -250)" d="M 421 328.4 L 421 321.79999999999995 C 419.9 291.9 411.2 263.99999999999994 396.7 239.99999999999994 L 411.2 222.69999999999993 C 417.9 214.69999999999993 421.3 204.29999999999993 420.4 194.19999999999993 C 419.79999999999995 186.89999999999992 417.09999999999997 179.99999999999994 412.59999999999997 174.19999999999993 C 410.49999999999994 171.49999999999994 407.7 168.49999999999994 403.9 164.79999999999993 C 401.79999999999995 162.79999999999993 397.7 158.69999999999993 390.59999999999997 152.79999999999993 L 397.79999999999995 28.099999999999923 C 398.09999999999997 22.999999999999922 397.09999999999997 17.899999999999924 394.79999999999995 13.499999999999924 C 391.79999999999995 7.699999999999924 386.79999999999995 3.4999999999999236 379.79999999999995 1.0999999999999233 L 379.4 0.9999999999999233 L 378.9 0.9999999999999233 C 376.7 0.3999999999999233 374.4 -7.671641100159832e-14 372.09999999999997 -7.671641100159832e-14 C 367.29999999999995 -7.671641100159832e-14 360.09999999999997 1.399999999999923 353.09999999999997 8.199999999999923 C 347.59999999999997 13.499999999999922 284.29999999999995 81.99999999999991 265.69999999999993 102.19999999999992 C 263.79999999999995 102.09999999999992 261.99999999999994 102.09999999999992 260.29999999999995 102.09999999999992 C 243.89999999999995 102.09999999999992 230.79999999999995 105.49999999999993 221.39999999999995 112.29999999999993 C 212.29999999999995 118.79999999999993 209.09999999999994 126.49999999999993 208.09999999999994 130.59999999999994 C 205.49999999999994 140.29999999999993 203.69999999999993 153.49999999999994 202.59999999999994 163.69999999999993 C 141.2 181.4 94 232.7 82 296.5 C 82 296.7 81.9 296.9 81.9 297.1 C 81.80000000000001 297.90000000000003 81.60000000000001 298.70000000000005 81.5 299.5 C 79.9 309 79 318.8 79 328.6 C 79 374.40000000000003 96.8 417.40000000000003 129.1 449.70000000000005 C 161.4 482.2 204.3 500 250 500 L 254.3 500 C 254.9 500 255.5 500 256.1 499.9 C 256.90000000000003 499.9 257.8 499.79999999999995 258.6 499.79999999999995 C 259.1 499.79999999999995 259.70000000000005 499.69999999999993 260.20000000000005 499.69999999999993 C 261.1 499.5999999999999 262.00000000000006 499.5999999999999 263.00000000000006 499.49999999999994 C 263.40000000000003 499.49999999999994 263.80000000000007 499.3999999999999 264.20000000000005 499.3999999999999 C 265.30000000000007 499.2999999999999 266.30000000000007 499.19999999999993 267.40000000000003 499.0999999999999 C 267.6 499.0999999999999 267.8 499.0999999999999 268.00000000000006 498.9999999999999 C 269.30000000000007 498.89999999999986 270.50000000000006 498.6999999999999 271.80000000000007 498.5999999999999 C 309.20000000000005 493.8999999999999 343.80000000000007 476.8999999999999 370.9000000000001 449.7999999999999 C 403.2000000000001 417.3999999999999 421.0000000000001 374.39999999999986 421.0000000000001 328.69999999999993 L 421.0000000000001 328.3999999999999 Q 421.0000000000001 328.49999999999994 421.0000000000001 328.3999999999999 z M 250 484.2 C 164.3 484.2 94.80000000000001 414.6 94.80000000000001 328.6 C 94.80000000000001 282.1 115.10000000000001 240.40000000000003 147.4 211.90000000000003 C 153.3 206.90000000000003 160.6 215.40000000000003 154.8 220.50000000000003 C 137.5 235.90000000000003 123.50000000000001 255.90000000000003 115.00000000000001 279.40000000000003 C 88.30000000000001 352.90000000000003 124.40000000000002 433.40000000000003 195.5 459.20000000000005 C 266.7 485 346 446.4 372.7 373 C 399.4 299.5 363.3 219 292.2 193.2 C 258.4 180.89999999999998 222.79999999999998 183.2 191.89999999999998 196.79999999999998 C 184.79999999999998 199.89999999999998 180.2 189.7 187.2 186.39999999999998 C 196.7 182.2 206.79999999999998 178.89999999999998 217.2 176.59999999999997 C 217.89999999999998 167.09999999999997 219.79999999999998 147.09999999999997 223.2 134.59999999999997 C 224.1 131.09999999999997 230.79999999999998 114.49999999999997 272.09999999999997 118.49999999999997 C 285.7 103.69999999999997 358.69999999999993 24.79999999999997 364.09999999999997 19.599999999999966 C 368.29999999999995 15.499999999999966 372.09999999999997 15.499999999999966 374.59999999999997 16.199999999999967 C 377.9 17.29999999999997 379.59999999999997 18.79999999999997 380.7 20.79999999999997 C 381.7 22.79999999999997 382.09999999999997 25.09999999999997 382 27.29999999999997 L 374.4 160.2 C 384.7 168.2 390.09999999999997 173.5 392.9 176.29999999999998 C 395.79999999999995 179.1 398.4 181.79999999999998 400.2 183.99999999999997 C 403.09999999999997 187.79999999999998 404.4 191.79999999999998 404.8 195.59999999999997 C 405.3 201.79999999999995 403.2 207.89999999999998 399.2 212.59999999999997 L 376.9 239 C 394.79999999999995 264.3 405.29999999999995 295.3 405.29999999999995 328.7 C 405.19999999999993 414.6 335.69999999999993 484.2 249.99999999999994 484.2 z" stroke-linecap="round" />
</g>
		<g transform="matrix(1 0 0 1 9.8 76.67)"  >
<path style="stroke: none; stroke-width: 1; stroke-dasharray: none; stroke-linecap: butt; stroke-dashoffset: 0; stroke-linejoin: miter; stroke-miterlimit: 4; fill: rgb(235,235,227); fill-rule: nonzero; opacity: 1;" vector-effect="non-scaling-stroke"  transform=" translate(-259.8, -326.67)" d="M 195.4 459.2 C 266.6 485.09999999999997 346 446.4 372.70000000000005 372.9 C 399.4000000000001 299.4 363.30000000000007 218.79999999999998 292.1 192.99999999999997 C 282.90000000000003 189.59999999999997 273.5 187.39999999999998 264.1 186.09999999999997 C 267.20000000000005 186.79999999999995 270.40000000000003 187.59999999999997 273.5 188.49999999999997 C 341.8 209.09999999999997 379.2 285.2 357.1 358.5 C 335.00000000000006 431.8 261.70000000000005 474.5 193.40000000000003 453.9 C 171.50000000000003 447.29999999999995 152.80000000000004 434.9 138.10000000000002 418.79999999999995 C 152.90000000000003 436.59999999999997 172.3 450.79999999999995 195.40000000000003 459.19999999999993 z" stroke-linecap="round" />
</g>
		<g transform="matrix(1 0 0 1 -5.44 100.45)"  >
<path style="stroke: none; stroke-width: 1; stroke-dasharray: none; stroke-linecap: butt; stroke-dashoffset: 0; stroke-linejoin: miter; stroke-miterlimit: 4; fill: rgb(235,235,227); fill-rule: nonzero; opacity: 1;" vector-effect="non-scaling-stroke"  transform=" translate(-244.56, -350.45)" d="M 236.9 368.2 C 235.70000000000002 367.9 234 367.5 231.9 367.09999999999997 C 250.8 365.4 254.4 338.99999999999994 236.9 332.2 C 238.8 332.3 240.3 332.4 241.4 332.7 C 265.2 339.4 260.9 373.2 236.9 368.2 z" stroke-linecap="round" />
</g>
		<g transform="matrix(1 0 0 1 0 0.23)"  >
<path style="stroke: none; stroke-width: 1; stroke-dasharray: none; stroke-linecap: butt; stroke-dashoffset: 0; stroke-linejoin: miter; stroke-miterlimit: 4; fill: rgb(0,0,0); fill-rule: nonzero; opacity: 1;" vector-effect="non-scaling-stroke"  transform=" translate(-250, -250.23)" d="M 376.8 239.2 L 399 212.79999999999998 C 403 208.1 405.1 201.99999999999997 404.6 195.79999999999998 C 404.3 191.99999999999997 403 187.89999999999998 400.1 184.2 C 398.3 181.89999999999998 395.8 179.29999999999998 392.8 176.5 C 390 173.7 384.5 168.4 374.3 160.4 L 381.90000000000003 27.599999999999994 C 382.00000000000006 25.299999999999994 381.6 23.099999999999994 380.6 21.099999999999994 C 379.6 19.099999999999994 377.8 17.599999999999994 374.5 16.499999999999993 C 372.1 15.799999999999994 368.2 15.799999999999994 364 19.89999999999999 C 358.6 25.09999999999999 285.7 103.99999999999999 272.1 118.8 C 230.8 114.89999999999999 224.10000000000002 131.5 223.20000000000002 134.9 C 219.8 147.4 217.9 167.4 217.20000000000002 176.9 C 206.8 179.1 196.70000000000002 182.5 187.20000000000002 186.70000000000002 C 180.20000000000002 190.00000000000003 184.70000000000002 200.10000000000002 191.9 197.10000000000002 C 222.8 183.50000000000003 258.4 181.3 292.1 193.50000000000003 C 363.20000000000005 219.30000000000004 399.3 299.8 372.6 373.20000000000005 C 345.90000000000003 446.6000000000001 266.6 485.20000000000005 195.50000000000003 459.40000000000003 C 124.4 433.5 88.4 353.1 115 279.6 C 123.5 256.1 137.5 236.20000000000002 154.8 220.8 C 160.60000000000002 215.70000000000002 153.3 207.3 147.4 212.20000000000002 C 115.2 240.70000000000002 94.9 282.40000000000003 94.9 328.8 C 94.9 414.70000000000005 164.4 484.3 250 484.3 C 335.6 484.3 405.1 414.70000000000005 405.1 328.8 C 405.1 295.5 394.6 264.6 376.8 239.20000000000002 z M 360.2 191.7 C 349.59999999999997 203.7 340.7 201.7 333.8 197.89999999999998 C 309.6 182.29999999999998 280.90000000000003 173.29999999999998 250 173.29999999999998 C 243.1 173.29999999999998 236.2 173.79999999999998 229.5 174.6 C 230.3 164.7 232.1 148.2 234.9 137.89999999999998 C 236.8 130.7 258.7 129.29999999999998 273.8 130.99999999999997 L 276.90000000000003 131.39999999999998 C 293.70000000000005 113.19999999999997 316.70000000000005 88.29999999999998 337.20000000000005 66.19999999999997 C 339.70000000000005 63.49999999999997 342.30000000000007 60.799999999999976 346.20000000000005 61.39999999999998 C 351.90000000000003 62.49999999999998 352.70000000000005 67.59999999999998 352.1 72.89999999999998 C 351.70000000000005 77.49999999999997 350.1 103.79999999999998 349.20000000000005 118.59999999999998 C 348.90000000000003 129.89999999999998 339.90000000000003 137.09999999999997 329.70000000000005 133.79999999999998 C 325.6 132.39999999999998 322.70000000000005 131.2 319.1 129.99999999999997 C 315.90000000000003 128.99999999999997 312.5 130.69999999999996 311.5 133.89999999999998 C 310.5 137.1 312.2 140.49999999999997 315.4 141.49999999999997 C 322.79999999999995 143.89999999999998 329.9 146.99999999999997 336.5 150.39999999999998 C 344.5 154.49999999999997 352 159.49999999999997 359 165.2 C 363 168.2 365.5 172.39999999999998 365.9 176.89999999999998 C 366.2 181.99999999999997 364.2 187.09999999999997 360.2 191.7 z" stroke-linecap="round" />
</g>
		<g transform="matrix(1 0 0 1 -40.65 99.41)"  >
<path style="stroke: none; stroke-width: 1; stroke-dasharray: none; stroke-linecap: butt; stroke-dashoffset: 0; stroke-linejoin: miter; stroke-miterlimit: 4; fill: rgb(0,0,0); fill-rule: nonzero; opacity: 1;" vector-effect="non-scaling-stroke"  transform=" translate(-209.35, -349.41)" d="M 232.5 331.4 C 222.6 330.2 171.6 342.7 170.4 352.7 C 169.20000000000002 362.59999999999997 218.10000000000002 366.2 228 367.4 C 252 369.5 256.3 335.2 232.5 331.4 z" stroke-linecap="round" />
</g>
		<g transform="matrix(1 0 0 1 -19.41 52.74)"  >
<path style="stroke: none; stroke-width: 1; stroke-dasharray: none; stroke-linecap: butt; stroke-dashoffset: 0; stroke-linejoin: miter; stroke-miterlimit: 4; fill: rgb(64,126,201); fill-rule: nonzero; opacity: 1;" vector-effect="non-scaling-stroke"  transform=" translate(-230.59, -302.74)" d="M 155.8 278.5 C 152.70000000000002 277.9 149.60000000000002 279.9 148.70000000000002 283.1 C 146.9 289.6 147.00000000000003 296.5 149.20000000000002 302.6 C 152.9 312.6 160.00000000000003 319 169.4 320.70000000000005 C 183.3 323.20000000000005 198.1 314.20000000000005 203.7 299.80000000000007 C 204.6 297.6000000000001 205.29999999999998 295.30000000000007 205.79999999999998 293.00000000000006 C 206.39999999999998 290.00000000000006 204.39999999999998 287.1000000000001 201.39999999999998 286.50000000000006 L 155.79999999999998 278.50000000000006 z M 261 285.9 C 258.1 286.2 255.9 288.59999999999997 255.7 291.5 C 255.6 293.8 255.7 296.3 256.09999999999997 298.9 C 258.2 313.4 269.2 328.4 288.49999999999994 327 L 288.59999999999997 327 C 296.99999999999994 326.1 304.2 321.4 308.9 313.8 C 314.09999999999997 305.6 315.09999999999997 295.3 311.9 285.7 C 310.9 282.7 307.9 280.7 304.7 281.09999999999997 L 261 285.9 z" stroke-linecap="round" />
</g>
		<g transform="matrix(1 0 0 1 91.38 -17.25)"  >
<path style="stroke: none; stroke-width: 1; stroke-dasharray: none; stroke-linecap: butt; stroke-dashoffset: 0; stroke-linejoin: miter; stroke-miterlimit: 4; fill: rgb(255,255,255); fill-rule: nonzero; opacity: 1;" vector-effect="non-scaling-stroke"  transform=" translate(-341.38, -232.75)" d="M 347.9 286.1 C 346.2 286.6 344.29999999999995 287 342.5 287.1 C 336.6 287.5 330.7 285.5 325.8 281.3 C 321 277.2 318 270.8 317.8 264.3 C 317.8 263 317.8 261.7 318 260.5 C 314.7 261.1 311.4 261.1 308.1 260.3 C 307.40000000000003 260.1 306.8 259.90000000000003 306.1 259.7 L 304.3 259 C 303.90000000000003 258.8 303.5 258.7 303.1 258.5 C 297.70000000000005 255.9 293.5 251.1 291.40000000000003 245 C 289.3 239.1 289.90000000000003 232.2 293.00000000000006 226.5 C 295.90000000000003 221.1 300.90000000000003 216.9 306.50000000000006 215.3 C 307.20000000000005 215.10000000000002 307.80000000000007 214.9 308.50000000000006 214.8 C 310.90000000000003 214.3 313.30000000000007 213.8 315.6000000000001 213 C 318.30000000000007 212.2 321.1000000000001 211.2 323.80000000000007 210 C 329.20000000000005 207.5 334.30000000000007 204.3 338.9000000000001 200.5 C 342.9000000000001 197.1 346.5000000000001 193.2 349.6000000000001 189.1 C 350.9000000000001 187 352.50000000000006 185.2 354.4000000000001 183.7 C 356.7000000000001 181.7 359.4000000000001 180.2 362.30000000000007 179.29999999999998 C 362.6000000000001 179.2 362.80000000000007 179.1 363.1000000000001 179.1 L 363.2000000000001 179.1 C 366.8000000000001 178.2 370.4000000000001 178.1 374.1000000000001 178.79999999999998 C 378.9000000000001 179.7 383.4000000000001 182.39999999999998 386.80000000000007 186.29999999999998 C 389.20000000000005 188.89999999999998 390.9000000000001 191.99999999999997 391.80000000000007 195.49999999999997 L 392.1000000000001 196.99999999999997 L 392.4000000000001 198.99999999999997 C 392.6000000000001 200.09999999999997 392.6000000000001 201.19999999999996 392.6000000000001 202.29999999999998 C 392.30000000000007 209.1 391.4000000000001 215.7 390.00000000000006 221.89999999999998 C 387.6000000000001 232.89999999999998 383.6000000000001 243.49999999999997 378.1000000000001 253.39999999999998 C 372.50000000000006 263.5 365.7000000000001 272.5 357.7000000000001 280.2 C 354.9000000000001 283 351.6000000000001 285 347.9000000000001 286.09999999999997 z" stroke-linecap="round" />
</g>
		<g transform="matrix(1 0 0 1 57.85 136.69)"  >
<path style="stroke: none; stroke-width: 1; stroke-dasharray: none; stroke-linecap: butt; stroke-dashoffset: 0; stroke-linejoin: miter; stroke-miterlimit: 4; fill: rgb(0,0,0); fill-rule: nonzero; opacity: 1;" vector-effect="non-scaling-stroke"  transform=" translate(-307.85, -386.69)" d="M 331.43 354.48 C 325.89 353.34000000000003 320.91 355.29 317.88 359.40000000000003 L 318.24 359.62000000000006 L 317.87 359.4100000000001 C 316.16059782603975 362.96053585622855 314.174468225632 366.3710614326863 311.93 369.61000000000007 C 303.99 381.05000000000007 295.07 391.0900000000001 282.64 395.8400000000001 C 281.13 396.4200000000001 279.83 396.7800000000001 278.71999999999997 397.8800000000001 C 275.69 401.1600000000001 274.65 405.6500000000001 275.84 410.60000000000014 C 277.06 415.64000000000016 280.75 417.90000000000015 285.38 419.15000000000015 C 287.15999999999997 419.63000000000017 292.12 417.20000000000016 294.19 416.10000000000014 C 304.88 410.4400000000001 315.1 403.35000000000014 323.08 394.33000000000015 C 336.25 379.45000000000016 338.90999999999997 371.8000000000002 340.19 365.1200000000002 C 341.19 359.89000000000016 336.84 355.58000000000015 331.41 354.4700000000002 z" stroke-linecap="round" />
</g>
		<g transform="matrix(1 0 0 1 53.92 122.36)"  >
<path style="stroke: none; stroke-width: 1; stroke-dasharray: none; stroke-linecap: butt; stroke-dashoffset: 0; stroke-linejoin: miter; stroke-miterlimit: 4; fill: rgb(0,0,0); fill-rule: nonzero; opacity: 1;" vector-effect="non-scaling-stroke"  transform=" translate(-303.92, -372.36)" d="M 294.83 410.8 C 300.75 412.45 305.53999999999996 408.76 307.12 407.54 C 307.93 406.91 308.67 406.28000000000003 309.25 405.77000000000004 C 309.36 405.68000000000006 309.46 405.59000000000003 309.55 405.50000000000006 C 309.64 405.43000000000006 309.74 405.36000000000007 309.83 405.2900000000001 C 310.63 404.6700000000001 311.34 404.06000000000006 311.90999999999997 403.57000000000005 L 311.91999999999996 403.57000000000005 C 313.23999999999995 402.4200000000001 314.59999999999997 400.68000000000006 315.73999999999995 398.6700000000001 C 316.68999999999994 397.00000000000006 317.41999999999996 395.19000000000005 317.92999999999995 393.30000000000007 C 320.0799999999999 393.0300000000001 322.10999999999996 392.20000000000005 323.96999999999997 390.82000000000005 C 324.04999999999995 390.76000000000005 324.11999999999995 390.71000000000004 324.19 390.66 C 324.82 390.18 325.43 389.64000000000004 326.01 389.05 C 326.24 388.90000000000003 326.44 388.76 326.64 388.61 C 326.74 388.53000000000003 326.84 388.46000000000004 326.94 388.39 C 333.58 383.27 334.27 376.8 334.39 371.13 C 334.49 366.26 331.93 359.3 327.53999999999996 352.5 C 324.71999999999997 348.13 318.71 340.19 310.15999999999997 336.07 C 305.85999999999996 334 301.53 333.18 297.28 333.63 C 293.03 334.08 288.95 335.79 285.15 338.71999999999997 C 284.84999999999997 338.95 284.54999999999995 339.19 284.26 339.42999999999995 C 283.88 339.73999999999995 283.51 340.0799999999999 283.08 340.48999999999995 C 282.84999999999997 340.65999999999997 282.60999999999996 340.8299999999999 282.38 341.00999999999993 C 282.12 341.2099999999999 281.85 341.42999999999995 281.59 341.63999999999993 C 276.41999999999996 345.92999999999995 273.60999999999996 351.85999999999996 273.46 358.80999999999995 C 273.33 364.87999999999994 275.27 371.19999999999993 278.91999999999996 376.5899999999999 C 283.64 383.5799999999999 285.65999999999997 389.3999999999999 285.27 394.9099999999999 C 284.59 404.4899999999999 289.99 409.44999999999993 294.83 410.7999999999999 z" stroke-linecap="round" />
</g>
		<g transform="matrix(1 0 0 1 55.24 121.26)"  >
<path style="stroke: none; stroke-width: 1; stroke-dasharray: none; stroke-linecap: butt; stroke-dashoffset: 0; stroke-linejoin: miter; stroke-miterlimit: 4; fill: rgb(227,25,55); fill-rule: nonzero; opacity: 1;" vector-effect="non-scaling-stroke"  transform=" translate(-305.24, -371.26)" d="M 298.9 403.53 C 302.59999999999997 404.55999999999995 305.88 401.83 308.48999999999995 399.59 C 309.29999999999995 398.89 310.2699999999999 397.67999999999995 311.16999999999996 396.09 C 311.27 395.9 311.37999999999994 395.71999999999997 311.46999999999997 395.53 C 313.55999999999995 391.5 313.78 386.77 312.34 382.46999999999997 C 310.83 377.96 307.83 370.95 302.02 362.57 C 301.45 361.75 301.63 360.64 302.40999999999997 360.04 C 302.54999999999995 359.93 302.7 359.84000000000003 302.93999999999994 359.78000000000003 C 303.79999999999995 359.55 304.69999999999993 359.92 305.2099999999999 360.65000000000003 C 311.4899999999999 369.75000000000006 314.5999999999999 377.26000000000005 316.11999999999995 382.00000000000006 C 317.09999999999997 385.08000000000004 320.81999999999994 386.36000000000007 323.43999999999994 384.46000000000004 L 323.50999999999993 384.41 C 328.42999999999995 380.76000000000005 329.0199999999999 376.37 329.13999999999993 371.03000000000003 C 329.37999999999994 359.87 307.9799999999999 326.55 287.6099999999999 343.47 C 278.9699999999999 350.65000000000003 280.0799999999999 362.78000000000003 285.9399999999999 371.45000000000005 C 291.7999999999999 380.12000000000006 293.6099999999999 386.98 293.1699999999999 393.08000000000004 C 292.7299999999999 399.18000000000006 295.5899999999999 402.62000000000006 298.8999999999999 403.55000000000007 z" stroke-linecap="round" />
</g>
		<g transform="matrix(1 0 0 1 -92.99 -42.2)"  >
<path style="stroke: none; stroke-width: 1; stroke-dasharray: none; stroke-linecap: butt; stroke-dashoffset: 0; stroke-linejoin: miter; stroke-miterlimit: 4; fill: rgb(255,255,255); fill-rule: nonzero; opacity: 1;" vector-effect="non-scaling-stroke"  transform=" translate(-157.01, -207.8)" d="M 144.3 260.7 C 142.20000000000002 260.7 140.10000000000002 260.4 138.10000000000002 259.9 C 132.3 258.29999999999995 127.20000000000002 254.39999999999998 124.10000000000002 249.2 C 120.90000000000002 243.79999999999998 118.40000000000002 237.89999999999998 116.70000000000002 231.6 C 111.30000000000001 211.7 114.10000000000002 191.89999999999998 117.50000000000001 173.39999999999998 C 118.60000000000001 167.39999999999998 122.30000000000001 162.09999999999997 128 158.39999999999998 C 131.5 156.09999999999997 135.8 154.89999999999998 140.2 154.89999999999998 C 141.29999999999998 154.89999999999998 142.39999999999998 154.99999999999997 143.5 155.09999999999997 C 148.4 155.79999999999995 152.7 157.79999999999995 156.4 161.19999999999996 L 156.5 161.29999999999995 C 158.9 163.49999999999994 160.7 166.19999999999996 161.9 169.09999999999997 C 162.9 171.39999999999998 163.5 173.79999999999995 163.70000000000002 176.29999999999995 C 164.20000000000002 179.19999999999996 165.00000000000003 181.99999999999994 166.10000000000002 184.79999999999995 C 167.50000000000003 187.89999999999995 169.20000000000002 190.89999999999995 171.3 193.69999999999996 C 173.4 196.29999999999995 175.8 198.69999999999996 178.4 200.89999999999995 C 181.1 202.89999999999995 184 204.59999999999994 187 205.79999999999995 C 192.7 208.19999999999996 197.1 213.39999999999995 199.3 219.99999999999994 C 201.20000000000002 225.89999999999995 200.5 232.29999999999995 197.5 238.09999999999994 C 194.7 243.39999999999995 189.4 247.59999999999994 183.5 249.39999999999995 C 181.5 249.99999999999994 179.4 250.29999999999995 177.3 250.29999999999995 C 176.20000000000002 250.29999999999995 175 250.19999999999996 173.9 249.99999999999994 C 171.20000000000002 249.69999999999993 168.5 248.89999999999995 166.1 247.59999999999994 L 165.5 247.29999999999993 C 163.6 251.19999999999993 160.6 254.59999999999994 156.7 257.0999999999999 C 153.2 259.3999999999999 148.89999999999998 260.69999999999993 144.29999999999998 260.69999999999993 z" stroke-linecap="round" />
</g>
		<g transform="matrix(1 0 0 1 2.62 -25.84)"  >
<path style="stroke: none; stroke-width: 1; stroke-dasharray: none; stroke-linecap: butt; stroke-dashoffset: 0; stroke-linejoin: miter; stroke-miterlimit: 4; fill: rgb(0,0,0); fill-rule: nonzero; opacity: 1;" vector-effect="non-scaling-stroke"  transform=" translate(-252.62, -224.16)" d="M 187.3 222.5 C 185.3 221.8 183.3 221.2 181.20000000000002 220.8 C 181.00000000000003 220.60000000000002 180.70000000000002 220.5 180.50000000000003 220.4 C 176.20000000000002 218.6 172.20000000000002 216.20000000000002 168.50000000000003 213.5 C 164.80000000000004 210.5 161.50000000000003 207.2 158.50000000000003 203.5 C 155.60000000000002 199.6 153.20000000000002 195.5 151.20000000000002 191.1 C 149.50000000000003 186.9 148.3 182.6 147.60000000000002 178.1 C 147.60000000000002 177.1 147.40000000000003 176.2 147.00000000000003 175.4 C 146.70000000000002 174.5 146.20000000000002 173.6 145.40000000000003 173 C 144.10000000000002 171.8 142.70000000000005 171.1 141.00000000000003 170.9 C 139.40000000000003 170.70000000000002 137.60000000000002 170.9 136.20000000000002 171.8 C 134.60000000000002 172.8 133.10000000000002 174.4 132.70000000000002 176.3 C 129.60000000000002 193.10000000000002 127.00000000000001 210.8 131.60000000000002 227.5 C 132.90000000000003 232.3 134.8 237 137.40000000000003 241.2 C 137.50000000000003 241.39999999999998 137.70000000000005 241.7 137.90000000000003 241.89999999999998 C 137.00000000000003 243.59999999999997 136.20000000000005 245.29999999999998 135.60000000000002 247.09999999999997 C 134.20000000000002 250.89999999999998 136.20000000000002 255.09999999999997 139.90000000000003 256.49999999999994 C 140.70000000000005 256.79999999999995 141.60000000000002 256.8999999999999 142.40000000000003 256.8999999999999 C 145.40000000000003 256.8999999999999 148.20000000000005 255.0999999999999 149.20000000000005 252.0999999999999 C 151.60000000000005 245.39999999999992 156.50000000000006 240.0999999999999 162.70000000000005 237.0999999999999 C 168.90000000000003 234.0999999999999 175.90000000000003 233.7999999999999 182.20000000000005 236.0999999999999 C 186.00000000000006 237.49999999999991 190.20000000000005 235.49999999999991 191.60000000000005 231.7999999999999 C 193.10000000000005 228.0999999999999 191.10000000000005 223.8999999999999 187.30000000000004 222.4999999999999 z M 148.3 229.2 C 148.3 229.1 148.20000000000002 229 148.10000000000002 228.89999999999998 C 146.50000000000003 224.99999999999997 145.50000000000003 220.89999999999998 144.90000000000003 216.7 C 144.60000000000002 214.39999999999998 144.50000000000003 212.1 144.40000000000003 209.79999999999998 C 146.10000000000002 212.29999999999998 148.00000000000003 214.6 150.00000000000003 216.79999999999998 C 152.20000000000002 219.29999999999998 154.60000000000002 221.6 157.20000000000002 223.7 C 157.00000000000003 223.79999999999998 156.70000000000002 223.89999999999998 156.50000000000003 224 C 153.50000000000003 225.5 150.80000000000004 227.2 148.30000000000004 229.2 z M 376 199.1 C 375.7 198.1 375.2 197.2 374.5 196.5 C 373.5 195.3 372.1 194.2 370.5 193.9 C 369.2 193.6 367.8 193.70000000000002 366.5 194 C 365.5 194.3 364.6 194.8 363.9 195.5 C 363.09999999999997 196 362.59999999999997 196.7 362.09999999999997 197.5 C 358.09999999999997 202.9 353.4 207.9 348.29999999999995 212.3 C 342.59999999999997 216.9 336.29999999999995 220.9 329.59999999999997 224 C 323.49999999999994 226.7 317.2 228.6 310.7 229.9 C 310.3 230 309.9 230.1 309.5 230.3 C 306.6 230 303.7 229.9 300.7 230.10000000000002 C 296.7 230.40000000000003 293.7 233.90000000000003 294 237.90000000000003 C 294.3 241.90000000000003 297.8 244.90000000000003 301.8 244.60000000000002 C 317.90000000000003 243.40000000000003 332 255.10000000000002 333.1 270.70000000000005 C 333.40000000000003 274.50000000000006 336.6 277.50000000000006 340.40000000000003 277.50000000000006 L 340.90000000000003 277.50000000000006 C 344.90000000000003 277.20000000000005 347.90000000000003 273.70000000000005 347.6 269.70000000000005 C 347.5 268.90000000000003 347.40000000000003 268.00000000000006 347.3 267.20000000000005 C 353.7 260.70000000000005 359.2 253.30000000000004 363.6 245.40000000000003 C 368.3 236.90000000000003 371.8 227.70000000000005 373.90000000000003 218.20000000000005 C 375.1 212.60000000000005 375.8 206.90000000000003 376.1 201.20000000000005 C 376.20000000000005 200.50000000000006 376.1 199.80000000000004 376 199.10000000000005 z M 355.6 227.1 C 352.90000000000003 234 349.3 240.6 345 246.7 C 343.9 248.2 342.8 249.6 341.7 251 C 339 246.6 335.59999999999997 242.8 331.59999999999997 239.6 C 335.09999999999997 238.2 338.49999999999994 236.6 341.9 234.79999999999998 C 346.9 232.1 351.79999999999995 228.89999999999998 356.2 225.39999999999998 C 356 225.89999999999998 355.8 226.49999999999997 355.59999999999997 227.09999999999997 z" stroke-linecap="round" />
</g>
		<g transform="matrix(1 0 0 1 93.9 -11.8)"  >
<path style="stroke: none; stroke-width: 1; stroke-dasharray: none; stroke-linecap: butt; stroke-dashoffset: 0; stroke-linejoin: miter; stroke-miterlimit: 4; fill: rgb(227,25,55); fill-rule: nonzero; opacity: 1;" vector-effect="non-scaling-stroke"  transform=" translate(-343.9, -238.2)" d="M 355.6 227.1 C 352.90000000000003 234 349.3 240.6 345 246.7 C 343.9 248.2 342.8 249.6 341.7 251 C 339 246.6 335.59999999999997 242.8 331.59999999999997 239.6 C 335.09999999999997 238.2 338.49999999999994 236.6 341.9 234.79999999999998 C 346.9 232.1 351.79999999999995 228.89999999999998 356.2 225.39999999999998 C 356 225.89999999999998 355.8 226.49999999999997 355.59999999999997 227.09999999999997 z" stroke-linecap="round" />
</g>
		<g transform="matrix(1 0 0 1 -124.09 19.66)"  >
<path style="stroke: none; stroke-width: 1; stroke-dasharray: none; stroke-linecap: butt; stroke-dashoffset: 0; stroke-linejoin: miter; stroke-miterlimit: 4; fill: rgb(0,0,0); fill-rule: nonzero; opacity: 1;" vector-effect="non-scaling-stroke"  transform=" translate(-125.91, -269.66)" d="M 115 279.5 C 123.5 256 137.5 236.1 154.8 220.7 C 160.60000000000002 215.6 153.3 207.2 147.4 212.1 C 115.2 240.6 94.9 282.3 94.9 328.7" stroke-linecap="round" />
</g>
		<g transform="matrix(1 0 0 1 -99.2 -30.5)"  >
<path style="stroke: none; stroke-width: 1; stroke-dasharray: none; stroke-linecap: butt; stroke-dashoffset: 0; stroke-linejoin: miter; stroke-miterlimit: 4; fill: rgb(227,25,55); fill-rule: nonzero; opacity: 1;" vector-effect="non-scaling-stroke"  transform=" translate(-150.8, -219.5)" d="M 148.3 229.2 C 148.3 229.1 148.20000000000002 229 148.10000000000002 228.89999999999998 C 146.50000000000003 224.99999999999997 145.50000000000003 220.89999999999998 144.90000000000003 216.7 C 144.60000000000002 214.39999999999998 144.50000000000003 212.1 144.40000000000003 209.79999999999998 C 146.10000000000002 212.29999999999998 148.00000000000003 214.6 150.00000000000003 216.79999999999998 C 152.20000000000002 219.29999999999998 154.60000000000002 221.6 157.20000000000002 223.7 C 157.00000000000003 223.79999999999998 156.70000000000002 223.89999999999998 156.50000000000003 224 C 153.50000000000003 225.5 150.80000000000004 227.2 148.30000000000004 229.2 z" stroke-linecap="round" />
</g>
</g>
</g>
</svg>