<?xml version="1.0" encoding="utf-8"?>
<!-- Generator: Adobe Illustrator 19.0.0, SVG Export Plug-In . SVG Version: 6.00 Build 0)  -->
<svg version="1.1" id="jack-emoji-yum" xmlns="http://www.w3.org/2000/svg" xmlns:xlink="http://www.w3.org/1999/xlink" x="0px" y="0px"
	 viewBox="0 0 500 500">
     
        <path d="M250 484.21c-85.73 0-155.22-69.64-155.22-155.56 0-46.48 20.34-88.19 52.58-116.69 5.89-4.97 13.19 3.46 7.43 8.58-17.34 15.41-31.28 35.36-39.82 58.88-26.69 73.47 9.36 153.99 80.53 179.84 71.16 25.85 150.49-12.75 177.18-86.23 26.68-73.47-9.37-153.99-80.54-179.84-33.76-12.26-69.36-10.02-100.31 3.58-7.14 3.06-11.68-7.12-4.69-10.39 9.54-4.24 19.59-7.55 30.03-9.8.73-9.5 2.64-29.49 6.05-42.01.9-3.46 7.62-20.1 48.92-16.15 13.63-14.78 86.56-93.69 91.96-98.91 4.22-4.07 8.05-4.07 10.48-3.37 3.26 1.12 5.03 2.6 6.06 4.62 1.02 2.01 1.42 4.28 1.29 6.54l-7.63 132.85c10.26 7.96 15.73 13.31 18.54 16.08 2.91 2.79 5.5 5.46 7.26 7.74 2.93 3.77 4.23 7.82 4.55 11.64.52 6.16-1.6 12.25-5.58 16.97l-22.21 26.41c17.86 25.34 28.36 56.26 28.36 89.65 0 85.91-69.49 155.56-155.22 155.56z"/>
        <path d="M358.99 165.12c-6.97-5.69-14.47-10.72-22.47-14.84-6.65-3.43-13.74-6.51-21.12-8.88a6.105 6.105 0 01-3.95-7.65c1.04-3.18 4.46-4.94 7.65-3.92 3.58 1.15 6.54 2.37 10.62 3.79 10.19 3.36 19.18-3.84 19.52-15.17.91-14.81 2.55-41.12 2.91-45.7.64-5.33-.15-10.44-5.9-11.53-3.89-.69-6.52 2.07-9.01 4.76a24864.74 24864.74 0 00-60.33 65.2l-3.07-.37c-15.05-1.73-36.97-.28-38.91 6.92-2.8 10.3-4.56 26.82-5.41 36.71 6.7-.88 13.53-1.35 20.47-1.35 30.87 0 59.63 9.03 83.81 24.61 6.97 3.73 15.81 5.77 26.44-6.25 4.07-4.65 6.01-9.68 5.61-14.6-.34-4.5-2.88-8.69-6.88-11.73z" fill="#f6be00"/>
        <path d="M421.01 328.42v-.45c0-1.01-.02-2.02-.04-3.03-.01-.63-.03-1.26-.05-1.89-.01-.4-.03-.79-.05-1.19-1.12-29.85-9.83-57.76-24.26-81.81l14.53-17.28c6.73-7.97 10.1-18.35 9.24-28.49a37.638 37.638 0 00-7.79-19.96c-2.08-2.7-4.86-5.69-8.74-9.4-2.07-2.04-6.23-6.14-13.32-12l7.16-124.71c.3-5.14-.73-10.19-2.99-14.63-2.97-5.82-8.01-9.98-15-12.38l-.38-.13-.39-.11c-2.22-.64-4.52-.96-6.82-.96-4.8 0-11.99 1.41-18.98 8.16-5.53 5.34-68.79 73.79-87.45 93.99-1.86-.08-3.67-.12-5.43-.12-16.41 0-29.51 3.42-38.93 10.16-9.1 6.51-12.26 14.22-13.35 18.29-2.64 9.73-4.39 22.9-5.46 33.09C141.16 181.35 94 232.69 82.04 296.49l-.12.62c-.15.81-.29 1.62-.43 2.43-1.64 9.55-2.5 19.28-2.5 29.1 0 45.76 17.78 88.79 50.07 121.15 32.3 32.37 75.25 50.2 120.94 50.2h.04c.32 0 .63-.01.94-.01 1.12 0 2.24-.01 3.36-.04.61-.02 1.22-.05 1.83-.07.84-.03 1.67-.05 2.51-.1.54-.03 1.07-.07 1.6-.1.92-.05 1.84-.11 2.75-.18.39-.03.78-.07 1.17-.1 1.07-.09 2.14-.18 3.21-.29.21-.02.42-.05.63-.07 1.26-.13 2.51-.27 3.76-.43h.02c37.42-4.75 72.01-21.66 99.11-48.82C403.22 417.42 421 374.39 421 328.63v-.14-.09zM250 484.21c-85.73 0-155.22-69.64-155.22-155.56 0-46.48 20.34-88.19 52.58-116.69 5.89-4.97 13.19 3.46 7.43 8.58-17.34 15.41-31.28 35.36-39.82 58.88-26.69 73.47 9.36 153.99 80.53 179.84 71.16 25.85 150.49-12.75 177.18-86.23 26.68-73.47-9.37-153.99-80.54-179.84-33.76-12.26-69.36-10.02-100.31 3.58-7.14 3.06-11.68-7.12-4.69-10.39 9.54-4.24 19.59-7.55 30.03-9.8.73-9.5 2.64-29.49 6.05-42.01.9-3.46 7.62-20.1 48.92-16.15 13.63-14.78 86.56-93.69 91.96-98.91 4.22-4.07 8.05-4.07 10.48-3.37 3.26 1.12 5.03 2.6 6.06 4.62 1.02 2.01 1.42 4.28 1.29 6.54l-7.63 132.85c10.26 7.96 15.73 13.31 18.54 16.08 2.91 2.79 5.5 5.46 7.26 7.74 2.93 3.77 4.23 7.82 4.55 11.64.52 6.16-1.6 12.25-5.58 16.97l-22.21 26.41c17.86 25.34 28.36 56.26 28.36 89.65 0 85.91-69.49 155.56-155.22 155.56z" fill="#fff"/>
        <path d="M352.09 72.5c-.37 4.58-2 30.91-2.92 45.73-.34 11.34-9.33 18.54-19.53 15.18-1.85-.65-9.07-3.22-10.62-3.79 4.07 1.46 12.77.04 14.17-9.48L337 79.28c.4-4.82-5.51-7.43-8.8-3.88 3.03-3.27 6.02-6.5 8.96-9.67 2.49-2.69 5.11-5.45 9.01-4.76 5.76 1.08 6.55 6.21 5.91 11.54zM360.2 191.26c-10.64 12.02-19.48 9.98-26.46 6.25-4.33-2.79-8.82-5.37-13.43-7.72l4.12-.64c5.24-.8 9.93-3.7 12.98-8.04l5.67-8.07c3.66-5.2 4.54-11.86 2.36-17.84 4.7 2.94 9.2 6.2 13.51 9.71 4 3.03 6.54 7.23 6.88 11.73.39 4.92-1.55 9.96-5.62 14.61z" fill="#dbac27"/>
        <path d="M195.43 459.18c71.2 25.86 150.57-12.76 177.27-86.28 26.7-73.51-9.38-154.07-80.58-179.93-9.25-3.36-18.64-5.62-28.03-6.87 3.14.68 6.28 1.49 9.41 2.43 68.29 20.61 105.72 96.73 83.6 170.01-22.12 73.28-95.41 115.97-163.71 95.35-21.92-6.62-40.65-18.95-55.25-35.07 14.76 17.81 34.17 31.97 57.28 40.36z" fill="#ebebe3"/>
        <path d="M236.96 353.66c-1.17-.28-2.88-.67-4.99-1.13 18.94-1.65 22.46-28.13 5.02-34.86 1.87.06 3.4.22 4.46.48 23.78 6.65 19.51 40.47-4.49 35.51z" fill="#ebebe3"/>
        <path d="M228.05 352.66c-9.95-1.24-58.88-4.8-57.66-14.75 1.24-9.92 52.2-22.52 62.16-21.28 23.77 3.82 19.49 38.13-4.49 36.03zM331.43 354.48c-5.54-1.14-10.52.81-13.55 4.92l.36.22-.37-.21a75.12 75.12 0 01-5.94 10.2c-7.94 11.44-16.86 21.48-29.29 26.23-1.51.58-2.81.94-3.92 2.04-3.03 3.28-4.07 7.77-2.88 12.72 1.22 5.04 4.91 7.3 9.54 8.55 1.78.48 6.74-1.95 8.81-3.05 10.69-5.66 20.91-12.75 28.89-21.77 13.17-14.88 15.83-22.53 17.11-29.21 1-5.23-3.35-9.54-8.78-10.65z"/>
        <g>
            <path d="M294.83 410.8c5.92 1.65 10.71-2.04 12.29-3.26.81-.63 1.55-1.26 2.13-1.77.11-.09.21-.18.3-.27.09-.07.19-.14.28-.21.8-.62 1.51-1.23 2.08-1.72h.01c1.32-1.15 2.68-2.89 3.82-4.9.95-1.67 1.68-3.48 2.19-5.37 2.15-.27 4.18-1.1 6.04-2.48.08-.06.15-.11.22-.16.63-.48 1.24-1.02 1.82-1.61.23-.15.43-.29.63-.44.1-.08.2-.15.3-.22 6.64-5.12 7.33-11.59 7.45-17.26.1-4.87-2.46-11.83-6.85-18.63-2.82-4.37-8.83-12.31-17.38-16.43-4.3-2.07-8.63-2.89-12.88-2.44-4.25.45-8.33 2.16-12.13 5.09-.3.23-.6.47-.89.71-.38.31-.75.65-1.18 1.06-.23.17-.47.34-.7.52-.26.2-.53.42-.79.63-5.17 4.29-7.98 10.22-8.13 17.17-.13 6.07 1.81 12.39 5.46 17.78 4.72 6.99 6.74 12.81 6.35 18.32-.68 9.58 4.72 14.54 9.56 15.89z"/>
            <path d="M298.9 403.53c3.7 1.03 6.98-1.7 9.59-3.94.81-.7 1.78-1.91 2.68-3.5.1-.19.21-.37.3-.56 2.09-4.03 2.31-8.76.87-13.06-1.51-4.51-4.51-11.52-10.32-19.9-.57-.82-.39-1.93.39-2.53.14-.11.29-.2.53-.26.86-.23 1.76.14 2.27.87 6.28 9.1 9.39 16.61 10.91 21.35.98 3.08 4.7 4.36 7.32 2.46l.07-.05c4.92-3.65 5.51-8.04 5.63-13.38.24-11.16-21.16-44.48-41.53-27.56-8.64 7.18-7.53 19.31-1.67 27.98 5.86 8.67 7.67 15.53 7.23 21.63-.44 6.1 2.42 9.54 5.73 10.47z" fill="#e31937"/>
        </g>
        <path d="M320.72 291.43c-4.27-16.85-16.88-28.23-32.14-28.99-17.42-.8-33.14 9.59-38.28 25.28-1.17 3.58.52 5.33 1.31 5.92 2.6 1.95 7.52 1.1 12.23-2.12 6.84-4.68 12.3-6.63 18.82-6.75 8.42-.14 15.63 1.69 23.59 11.16 3.32 3.95 6.52 5.36 9.01 5.36 1 0 1.88-.22 2.61-.6 2.83-1.45 3.92-5 2.84-9.26zM214.1 284.95c-4.27-16.85-16.88-28.23-32.14-28.99-17.42-.8-33.14 9.59-38.28 25.28-1.17 3.58.52 5.33 1.31 5.92 2.6 1.95 7.52 1.1 12.23-2.12 6.84-4.68 12.3-6.63 18.82-6.75 8.42-.14 15.63 1.69 23.59 11.16 3.32 3.95 6.52 5.36 9.01 5.36 1 0 1.88-.22 2.61-.6 2.83-1.45 3.92-5 2.84-9.26z" fill="#407ec9"/>

</svg>