<?xml version="1.0" encoding="utf-8"?>
<!-- Generator: Adobe Illustrator 19.0.0, SVG Export Plug-In . SVG Version: 6.00 Build 0)  -->
<svg version="1.1" id="jack-emoji-love-it" xmlns="http://www.w3.org/2000/svg" xmlns:xlink="http://www.w3.org/1999/xlink" x="0px" y="0px"
	 viewBox="0 0 500 500">
    <path d="M358.81 165.36c-6.97-5.69-14.47-10.72-22.47-14.84-6.65-3.43-13.74-6.51-21.12-8.88a6.105 6.105 0 01-3.95-7.65c1.04-3.18 4.46-4.94 7.65-3.92 3.58 1.15 6.54 2.37 10.62 3.79 10.19 3.36 19.18-3.84 19.52-15.17.91-14.81 2.55-41.12 2.91-45.7.64-5.33-.15-10.44-5.9-11.53-3.89-.69-6.52 2.07-9.01 4.76a24864.74 24864.74 0 00-60.33 65.2l-3.07-.37c-15.05-1.73-36.97-.28-38.91 6.92-2.8 10.3-4.56 26.82-5.41 36.71 6.7-.88 13.53-1.35 20.47-1.35 30.87 0 59.63 9.03 83.81 24.61 6.97 3.73 15.81 5.77 26.44-6.25 4.07-4.65 6.01-9.68 5.61-14.6-.34-4.5-2.88-8.69-6.88-11.73z" fill="#f6be00"/>
    <path d="M351.96 73c-.37 4.58-2 30.91-2.92 45.73-.34 11.34-9.33 18.54-19.53 15.18-1.85-.65-9.07-3.22-10.62-3.79 4.07 1.46 12.77.04 14.17-9.48l3.81-40.86c.4-4.82-5.51-7.43-8.8-3.88 3.03-3.27 6.02-6.5 8.96-9.67 2.49-2.69 5.11-5.45 9.01-4.76 5.76 1.08 6.55 6.21 5.91 11.54zM360.02 191.5c-10.64 12.02-19.48 9.98-26.46 6.25-4.33-2.79-8.82-5.37-13.43-7.72l4.12-.64c5.24-.8 9.93-3.7 12.98-8.04l5.67-8.07c3.66-5.2 4.54-11.86 2.36-17.84 4.7 2.94 9.2 6.2 13.51 9.71 4 3.03 6.54 7.23 6.88 11.73.39 4.92-1.55 9.96-5.62 14.61z" fill="#dbac27"/>
    <path d="M421.01 328.42v-.45c0-1.01-.02-2.02-.04-3.03-.01-.63-.03-1.26-.05-1.89-.01-.4-.03-.79-.05-1.19-1.12-29.85-9.83-57.76-24.26-81.81l14.53-17.28c6.73-7.97 10.1-18.35 9.24-28.49a37.638 37.638 0 00-7.79-19.96c-2.08-2.7-4.86-5.69-8.74-9.4-2.07-2.04-6.23-6.14-13.32-12l7.16-124.71c.3-5.14-.73-10.19-2.99-14.63-2.97-5.82-8.01-9.98-15-12.38l-.38-.13-.39-.11c-2.22-.64-4.52-.96-6.82-.96-4.8 0-11.99 1.41-18.98 8.16-5.53 5.34-68.79 73.79-87.45 93.99-1.86-.08-3.67-.12-5.43-.12-16.41 0-29.51 3.42-38.93 10.16-9.1 6.51-12.26 14.22-13.35 18.29-2.64 9.73-4.39 22.9-5.46 33.09C141.16 181.35 94 232.69 82.04 296.49l-.12.62c-.15.81-.29 1.62-.43 2.43-1.64 9.55-2.5 19.28-2.5 29.1 0 45.76 17.78 88.79 50.07 121.15 32.3 32.37 75.25 50.2 120.94 50.2h.04c.32 0 .63-.01.94-.01 1.12 0 2.24-.01 3.36-.04.61-.02 1.22-.05 1.83-.07.84-.03 1.67-.05 2.51-.1.54-.03 1.07-.07 1.6-.1.92-.05 1.84-.11 2.75-.18.39-.03.78-.07 1.17-.1 1.07-.09 2.14-.18 3.21-.29.21-.02.42-.05.63-.07 1.26-.13 2.51-.27 3.76-.43h.02c37.42-4.75 72.01-21.66 99.11-48.82C403.22 417.42 421 374.39 421 328.63v-.14-.09zM250 484.21c-85.73 0-155.22-69.64-155.22-155.56 0-46.48 20.34-88.19 52.58-116.69 5.89-4.97 13.19 3.46 7.43 8.58-17.34 15.41-31.28 35.36-39.82 58.88-26.69 73.47 9.36 153.99 80.53 179.84 71.16 25.85 150.49-12.75 177.18-86.23 26.68-73.47-9.37-153.99-80.54-179.84-33.76-12.26-69.36-10.02-100.31 3.58-7.14 3.06-11.68-7.12-4.69-10.39 9.54-4.24 19.59-7.55 30.03-9.8.73-9.5 2.64-29.49 6.05-42.01.9-3.46 7.62-20.1 48.92-16.15 13.63-14.78 86.56-93.69 91.96-98.91 4.22-4.07 8.05-4.07 10.48-3.37 3.26 1.12 5.03 2.6 6.06 4.62 1.02 2.01 1.42 4.28 1.29 6.54l-7.63 132.85c10.26 7.96 15.73 13.31 18.54 16.08 2.91 2.79 5.5 5.46 7.26 7.74 2.93 3.77 4.23 7.82 4.55 11.64.52 6.16-1.6 12.25-5.58 16.97l-22.21 26.41c17.86 25.34 28.36 56.26 28.36 89.65 0 85.91-69.49 155.56-155.22 155.56z" fill="#fff"/>
    <path d="M195.38 459.19c71.2 25.86 150.57-12.76 177.27-86.28 26.7-73.51-9.38-154.07-80.58-179.93-9.25-3.36-18.64-5.62-28.03-6.87 3.14.68 6.28 1.49 9.41 2.43 68.29 20.61 105.72 96.73 83.6 170.01-22.12 73.28-95.41 115.97-163.71 95.35-21.92-6.62-40.65-18.95-55.25-35.07 14.76 17.81 34.17 31.97 57.28 40.36z" fill="#edece6"/>
    <path d="M236.9 353.67c-1.17-.28-2.88-.67-4.99-1.13 18.94-1.65 22.46-28.13 5.02-34.86 1.87.06 3.4.22 4.46.48 23.78 6.65 19.51 40.47-4.49 35.51z" fill="#edece6"/>
    <path d="M376.57 239l22.18-26.37c3.98-4.72 6.09-10.8 5.57-16.95-.32-3.81-1.61-7.86-4.54-11.63-1.76-2.28-4.34-4.94-7.25-7.73-2.81-2.77-8.27-8.11-18.51-16.06l7.62-132.66c.13-2.25-.27-4.52-1.29-6.53-1.03-2.01-2.8-3.5-6.05-4.61-2.43-.7-6.25-.7-10.46 3.37-5.39 5.21-78.22 84.01-91.82 98.76-41.24-3.94-47.94 12.67-48.85 16.12-3.4 12.51-5.31 32.47-6.04 41.95a153.979 153.979 0 00-29.98 9.78c-6.98 3.27-2.45 13.43 4.68 10.38 30.9-13.58 66.44-15.82 100.16-3.57 71.06 25.81 107.06 106.21 80.42 179.57-26.65 73.37-105.86 111.91-176.92 86.1-71.06-25.81-107.06-106.21-80.41-179.57 8.53-23.49 22.44-43.41 39.76-58.79 5.75-5.12-1.54-13.53-7.42-8.57-32.2 28.45-52.5 70.11-52.5 116.51 0 85.79 69.39 155.33 154.99 155.33S404.9 414.29 404.9 328.5c0-33.34-10.48-64.22-28.31-89.52zm-16.59-47.49c-10.62 12-19.44 9.96-26.4 6.24-24.14-15.55-52.86-24.57-83.68-24.57-6.93 0-13.75.46-20.44 1.34.85-9.88 2.61-26.38 5.4-36.66 1.94-7.19 23.82-8.64 38.85-6.91l3.06.37c16.79-18.21 39.79-43.09 60.24-65.1 2.48-2.68 5.1-5.44 8.99-4.75 5.74 1.09 6.54 6.2 5.9 11.52-.37 4.57-2 30.85-2.91 45.63-.34 11.32-9.31 18.5-19.49 15.15-4.08-1.42-7.03-2.63-10.61-3.79-3.19-1.03-6.61.73-7.64 3.91-1 3.19.73 6.61 3.94 7.64 7.36 2.37 14.45 5.45 21.09 8.87 7.99 4.12 15.47 9.14 22.44 14.82 3.99 3.03 6.53 7.21 6.87 11.71.39 4.91-1.54 9.94-5.61 14.58z"/>
    <path d="M232.46 316.52c-9.94-1.24-60.82 11.33-62.06 21.24-1.21 9.94 47.64 13.49 57.58 14.73 23.95 2.1 28.22-32.16 4.49-35.97z"/><g fill="#407ec9">
    <path d="M317.69 257.15c-4.1-5.12-9.74-8.07-15.47-8.11h-.13c-4.58 0-8.83 1.82-12.16 5.15-4.01-4.34-9.2-6.81-14.46-6.83-5.23-.09-9.98 2.3-13.46 6.55-4.37 5.33-6.39 13.19-5.41 21.01.68 5.42 3.21 10.81 7.3 15.61 6.74 7.91 11.69 15.34 16.05 24.1 1.06 2.13 3 3.59 5.34 4.02a7.415 7.415 0 006.42-1.85c1.33-1.23 2.65-2.42 3.95-3.61 7.1-6.45 13.8-12.53 21.29-22.49 8.6-12.79 8.83-23.45.74-33.55zM196.74 247.86c-4.94-.81-10.37.53-15.19 3.7-2.04-3.07-5.41-5-9.54-5.38-7.21-.65-15.07 3.45-19.49 10.24-6.6 10.15-4.37 17.59-1.01 25.57 4.45 10.61 10.15 17.72 19.09 27.14l.33.3c1.21.94 2.64 1.44 4.07 1.44.38 0 .75-.03 1.12-.1 1.78-.34 3.33-1.49 4.36-3.24 4.41-7.49 9.75-13.03 17.83-21.43l2.54-2.65c9.22-9.61 11.6-20.71 6.21-28.98-2.31-3.55-5.98-5.9-10.34-6.61z"/></g><circle cx="208.43" cy="394.18" r="18.63" fill="#e31937"/>
</svg>